<svg width="670" height="132" viewBox="0 0 670 132" fill="none" xmlns="http://www.w3.org/2000/svg">
<circle cx="44" cy="88" r="44" fill="#2FBFC3"/>
<circle cx="98.2667" cy="88" r="44" fill="#5DB9E0"/>
<circle cx="71.1334" cy="44" r="44" fill="#B2D66E"/>
<path d="M198.114 99V51.4H217.562C223.184 51.4 227.626 52.9187 230.89 55.956C234.154 58.9933 235.786 63.0053 235.786 67.992C235.786 73.296 233.973 77.4213 230.346 80.368C226.72 83.2693 222.118 84.72 216.542 84.72H208.586V99H198.114ZM208.586 75.404H216.882C219.466 75.404 221.484 74.724 222.934 73.364C224.43 72.004 225.178 70.236 225.178 68.06C225.178 65.748 224.43 63.98 222.934 62.756C221.438 61.4867 219.353 60.852 216.678 60.852H208.586V75.404ZM284.744 92.676C279.939 97.436 273.91 99.816 266.656 99.816C259.403 99.816 253.374 97.436 248.568 92.676C243.808 87.916 241.428 82.0907 241.428 75.2C241.428 68.3547 243.831 62.552 248.636 57.792C253.487 52.9867 259.539 50.584 266.792 50.584C274.046 50.584 280.052 52.964 284.812 57.724C289.618 62.484 292.02 68.3093 292.02 75.2C292.02 82.0453 289.595 87.8707 284.744 92.676ZM256.456 85.808C259.176 88.7093 262.622 90.16 266.792 90.16C270.963 90.16 274.386 88.732 277.06 85.876C279.735 82.9747 281.072 79.416 281.072 75.2C281.072 71.0293 279.712 67.4933 276.992 64.592C274.272 61.6907 270.827 60.24 266.656 60.24C262.486 60.24 259.063 61.6907 256.388 64.592C253.714 67.448 252.376 70.984 252.376 75.2C252.376 79.3707 253.736 82.9067 256.456 85.808ZM301.31 99V51.4H312.598L325.11 71.528L337.622 51.4H348.91V99H338.506V67.924L325.11 88.256H324.838L311.578 68.128V99H301.31ZM401.553 92.676C396.747 97.436 390.718 99.816 383.465 99.816C376.211 99.816 370.182 97.436 365.377 92.676C360.617 87.916 358.237 82.0907 358.237 75.2C358.237 68.3547 360.639 62.552 365.445 57.792C370.295 52.9867 376.347 50.584 383.601 50.584C390.854 50.584 396.861 52.964 401.621 57.724C406.426 62.484 408.829 68.3093 408.829 75.2C408.829 82.0453 406.403 87.8707 401.553 92.676ZM373.265 85.808C375.985 88.7093 379.43 90.16 383.601 90.16C387.771 90.16 391.194 88.732 393.869 85.876C396.543 82.9747 397.881 79.416 397.881 75.2C397.881 71.0293 396.521 67.4933 393.801 64.592C391.081 61.6907 387.635 60.24 383.465 60.24C379.294 60.24 375.871 61.6907 373.197 64.592C370.522 67.448 369.185 70.984 369.185 75.2C369.185 79.3707 370.545 82.9067 373.265 85.808ZM441.034 99.816C433.645 99.816 427.616 97.504 422.946 92.88C418.322 88.256 416.01 82.3627 416.01 75.2C416.01 68.3547 418.39 62.552 423.15 57.792C427.91 52.9867 433.849 50.584 440.966 50.584C445.092 50.584 448.582 51.128 451.438 52.216C454.294 53.2587 457.037 54.8907 459.666 57.112L453.07 65.068C451.076 63.3907 449.149 62.1667 447.29 61.396C445.432 60.6253 443.21 60.24 440.626 60.24C436.818 60.24 433.577 61.7133 430.902 64.66C428.273 67.5613 426.958 71.0747 426.958 75.2C426.958 79.552 428.296 83.156 430.97 86.012C433.69 88.868 437.158 90.296 441.374 90.296C445.273 90.296 448.56 89.344 451.234 87.44V80.64H440.694V71.596H461.366V92.268C455.428 97.3 448.65 99.816 441.034 99.816ZM491.298 99.748C484.816 99.748 479.761 97.9573 476.134 94.376C472.508 90.7493 470.694 85.4907 470.694 78.6V51.4H481.166V78.328C481.166 82.136 482.05 85.06 483.818 87.1C485.632 89.0947 488.17 90.092 491.434 90.092C494.698 90.092 497.214 89.1173 498.982 87.168C500.796 85.2187 501.702 82.3853 501.702 78.668V51.4H512.174V78.26C512.174 85.332 510.316 90.6813 506.598 94.308C502.926 97.9347 497.826 99.748 491.298 99.748ZM533.925 99V61.056H519.441V51.4H558.881V61.056H544.397V99H533.925ZM558.665 99V88.12H569.681V99H558.665ZM579.618 99V51.4H601.718C607.204 51.4 611.352 52.8053 614.162 55.616C616.338 57.792 617.426 60.5347 617.426 63.844C617.426 68.332 615.341 71.7547 611.17 74.112C614.117 75.2453 616.338 76.7413 617.834 78.6C619.33 80.4133 620.078 82.8613 620.078 85.944C620.078 90.2053 618.492 93.4467 615.318 95.668C612.145 97.8893 607.793 99 602.262 99H579.618ZM589.818 70.644H599.474C604.506 70.644 607.022 68.9213 607.022 65.476C607.022 63.8893 606.433 62.688 605.254 61.872C604.076 61.0107 602.376 60.58 600.154 60.58H589.818V70.644ZM589.818 89.82H602.262C607.204 89.82 609.674 88.052 609.674 84.516C609.674 81.0707 607.09 79.348 601.922 79.348H589.818V89.82ZM640.03 99V80.232L621.738 51.4H633.978L645.334 70.508L656.894 51.4H668.794L650.502 80.028V99H640.03Z" fill="#5DB9E0"/>
</svg>
