<svg width="24" height="18" viewBox="0 0 24 18" fill="none" xmlns="http://www.w3.org/2000/svg">
<path fill-rule="evenodd" clip-rule="evenodd" d="M23.2807 5.35107C23.6128 5.18896 24 5.43081 24 5.80041V15.9591C24 17.0862 23.1046 18 22 18H2C0.89545 18 0 17.0862 0 15.9591V5.80041C0 5.43081 0.387159 5.18896 0.719308 5.35107L11.1371 10.4357C11.6827 10.702 12.3173 10.702 12.8629 10.4357L23.2807 5.35107Z" fill="white"/>
<path d="M22.0151 0H1.98488C-0.129595 0 -0.774535 2.8941 1.13638 3.80747L11.1515 8.59444C11.6885 8.85114 12.3115 8.85114 12.8485 8.59444L22.8636 3.80748C24.7745 2.89411 24.1296 0 22.0151 0Z" fill="white"/>
</svg>
