<svg width="268" height="47" viewBox="0 0 268 47" fill="none" xmlns="http://www.w3.org/2000/svg">
<path d="M58.68 21H61.76V16.8H64.1C67.24 16.8 69.76 15.12 69.76 11.88C69.76 8.98 67.74 7 64.4 7H58.68V21ZM61.76 14.06V9.78H64.14C65.68 9.78 66.64 10.52 66.64 11.9C66.64 13.14 65.74 14.06 64.2 14.06H61.76ZM78.8394 21.24C83.1594 21.24 86.2994 17.98 86.2994 14C86.2994 9.98 83.1994 6.76 78.8794 6.76C74.5594 6.76 71.4194 10.02 71.4194 14C71.4194 18.02 74.5194 21.24 78.8394 21.24ZM78.8794 18.4C76.3994 18.4 74.6394 16.4 74.6394 14C74.6394 11.56 76.3594 9.6 78.8394 9.6C81.3194 9.6 83.0794 11.6 83.0794 14C83.0794 16.44 81.3594 18.4 78.8794 18.4ZM89.0316 21H92.0516V11.92L95.9516 17.84H96.0316L99.9716 11.86V21H103.032V7H99.7116L96.0316 12.92L92.3516 7H89.0316V21ZM113.195 21.24C117.515 21.24 120.655 17.98 120.655 14C120.655 9.98 117.555 6.76 113.235 6.76C108.915 6.76 105.775 10.02 105.775 14C105.775 18.02 108.875 21.24 113.195 21.24ZM113.235 18.4C110.755 18.4 108.995 16.4 108.995 14C108.995 11.56 110.715 9.6 113.195 9.6C115.675 9.6 117.435 11.6 117.435 14C117.435 16.44 115.715 18.4 113.235 18.4ZM130.127 21.24C132.687 21.24 134.667 20.24 136.107 19.02V12.94H130.027V15.6H133.127V17.6C132.347 18.16 131.347 18.44 130.227 18.44C127.747 18.44 125.987 16.56 125.987 14C125.987 11.58 127.767 9.6 130.007 9.6C131.627 9.6 132.587 10.12 133.667 11.02L135.607 8.68C134.147 7.44 132.627 6.76 130.107 6.76C125.867 6.76 122.767 10.02 122.767 14C122.767 18.18 125.767 21.24 130.127 21.24ZM144.911 21.22C148.671 21.22 151.051 19.14 151.051 14.9V7H147.971V15.02C147.971 17.24 146.831 18.38 144.951 18.38C143.071 18.38 141.931 17.2 141.931 14.92V7H138.851V15C138.851 19.12 141.151 21.22 144.911 21.22ZM157.448 21H160.528V9.84H164.788V7H153.188V9.84H157.448V21ZM164.724 21H167.964V17.8H164.724V21ZM170.887 21H177.547C180.707 21 182.787 19.72 182.787 17.16C182.787 15.24 181.787 14.3 180.167 13.68C181.167 13.12 182.007 12.24 182.007 10.66C182.007 9.66 181.687 8.88 181.047 8.24C180.247 7.44 178.987 7 177.387 7H170.887V21ZM173.887 12.66V9.7H176.927C178.227 9.7 178.947 10.22 178.947 11.14C178.947 12.22 178.087 12.66 176.727 12.66H173.887ZM173.887 18.3V15.22H177.447C179.027 15.22 179.727 15.8 179.727 16.74C179.727 17.82 178.907 18.3 177.547 18.3H173.887ZM188.655 21H191.735V15.42L197.115 7H193.615L190.215 12.62L186.875 7H183.275L188.655 15.48V21Z" fill="#5DB9E0"/>
<path d="M61.935 44.18C64.23 44.18 65.91 42.35 65.91 40.19C65.91 38.06 64.215 36.335 62.19 36.335C60.54 36.335 59.52 37.1 58.98 38.015C59.1 36.53 59.64 35.66 61.245 35.255L65.445 34.22L65.22 33.245L60.9 34.265C58.2 34.91 58.005 37.31 58.005 39.815C58.005 42.515 59.58 44.18 61.935 44.18ZM61.965 43.145C60.405 43.145 59.19 41.84 59.19 40.22C59.19 38.6 60.33 37.295 61.935 37.295C63.495 37.295 64.71 38.6 64.71 40.22C64.71 41.84 63.57 43.145 61.965 43.145ZM71.3919 44.18C72.8619 44.18 73.8069 43.595 74.5869 42.725L73.8669 42.08C73.2369 42.74 72.4869 43.175 71.4219 43.175C70.0569 43.175 68.8569 42.23 68.6919 40.595H74.8419C74.8569 40.415 74.8569 40.295 74.8569 40.19C74.8569 37.91 73.5369 36.08 71.2419 36.08C69.0969 36.08 67.5219 37.88 67.5219 40.13C67.5219 42.545 69.2619 44.18 71.3919 44.18ZM68.6919 39.665C68.8569 38.165 69.8769 37.055 71.2119 37.055C72.7419 37.055 73.5519 38.255 73.6869 39.665H68.6919ZM79.3389 44.18C81.2589 44.18 82.4139 43.085 82.4139 41.84C82.4139 40.82 81.8289 40.235 80.9739 39.935C81.6339 39.665 82.2189 39.11 82.2189 38.15C82.2189 36.95 81.1539 36.08 79.4139 36.08C78.2739 36.08 77.2239 36.425 76.4139 37.055L76.9839 37.865C77.6589 37.325 78.5739 37.085 79.3389 37.085C80.2989 37.085 81.0189 37.52 81.0189 38.24C81.0189 39.05 80.3139 39.575 79.2939 39.575H78.2439V40.52H79.2789C80.5389 40.52 81.2289 41.015 81.2289 41.795C81.2289 42.695 80.3139 43.175 79.3089 43.175C78.3789 43.175 77.4939 42.83 76.7139 42.17L76.1289 43.025C77.0739 43.79 78.1089 44.18 79.3389 44.18ZM88.0946 44.18C90.4346 44.18 92.1596 42.32 92.1596 40.13C92.1596 37.91 90.4496 36.08 88.1246 36.08C85.7846 36.08 84.0746 37.94 84.0746 40.13C84.0746 42.35 85.7696 44.18 88.0946 44.18ZM88.1246 43.145C86.4896 43.145 85.2596 41.795 85.2596 40.13C85.2596 38.465 86.4146 37.1 88.0946 37.1C89.7296 37.1 90.9746 38.465 90.9746 40.13C90.9746 41.795 89.8046 43.145 88.1246 43.145ZM94.2519 44H95.4069V37.265H99.8169V44H100.972V36.245H94.2519V44ZM105.864 44.165C107.229 44.165 108.114 43.535 108.654 42.845V44H109.794V39.26C109.794 38.27 109.524 37.52 108.984 36.98C108.429 36.425 107.574 36.125 106.479 36.125C105.339 36.125 104.514 36.395 103.659 36.785L104.004 37.73C104.724 37.4 105.444 37.175 106.359 37.175C107.814 37.175 108.654 37.895 108.654 39.275V39.515C107.964 39.32 107.274 39.185 106.284 39.185C104.319 39.185 102.969 40.055 102.969 41.72C102.969 43.34 104.409 44.165 105.864 44.165ZM106.089 43.235C105.039 43.235 104.139 42.665 104.139 41.69C104.139 40.73 104.964 40.1 106.404 40.1C107.349 40.1 108.099 40.265 108.669 40.43V41.15C108.669 42.38 107.514 43.235 106.089 43.235ZM115.735 44.18C117.19 44.18 118.12 43.55 118.9 42.68L118.135 41.975C117.52 42.635 116.785 43.145 115.795 43.145C114.175 43.145 112.945 41.81 112.945 40.13C112.945 38.435 114.145 37.1 115.72 37.1C116.77 37.1 117.49 37.595 118.105 38.24L118.84 37.46C118.12 36.695 117.205 36.08 115.735 36.08C113.47 36.08 111.76 37.94 111.76 40.13C111.76 42.335 113.47 44.18 115.735 44.18ZM120.81 44H121.965V40.61H126.435V44H127.59V36.245H126.435V39.59H121.965V36.245H120.81V44ZM133.71 44.18C136.05 44.18 137.775 42.32 137.775 40.13C137.775 37.91 136.065 36.08 133.74 36.08C131.4 36.08 129.69 37.94 129.69 40.13C129.69 42.35 131.385 44.18 133.71 44.18ZM133.74 43.145C132.105 43.145 130.875 41.795 130.875 40.13C130.875 38.465 132.03 37.1 133.71 37.1C135.345 37.1 136.59 38.465 136.59 40.13C136.59 41.795 135.42 43.145 133.74 43.145ZM143.362 44.18C144.817 44.18 145.747 43.55 146.527 42.68L145.762 41.975C145.147 42.635 144.412 43.145 143.422 43.145C141.802 43.145 140.572 41.81 140.572 40.13C140.572 38.435 141.772 37.1 143.347 37.1C144.397 37.1 145.117 37.595 145.732 38.24L146.467 37.46C145.747 36.695 144.832 36.08 143.362 36.08C141.097 36.08 139.387 37.94 139.387 40.13C139.387 42.335 141.097 44.18 143.362 44.18ZM150.311 44H151.481V37.265H154.256V36.245H147.536V37.265H150.311V44ZM155.936 44H159.296C161.066 44 162.221 43.025 162.221 41.48C162.221 39.845 160.841 39.155 159.161 39.155H157.091V36.245H155.936V44ZM157.091 42.98V40.145H159.146C160.331 40.145 161.051 40.61 161.051 41.51C161.051 42.485 160.346 42.98 159.191 42.98H157.091ZM168.505 44H172.39C174.1 44 175.21 43.19 175.21 41.885C175.21 40.79 174.43 40.22 173.5 39.965C174.145 39.695 174.79 39.2 174.79 38.18C174.79 37.01 173.8 36.245 172.255 36.245H168.505V44ZM169.66 43.01V40.505H172.09C173.35 40.505 174.025 40.955 174.025 41.705C174.025 42.515 173.35 43.01 172.24 43.01H169.66ZM169.66 39.575V37.235H172.075C173.08 37.235 173.62 37.685 173.62 38.33C173.62 39.14 172.975 39.575 172.045 39.575H169.66ZM185.286 44.18C186.741 44.18 187.671 43.55 188.451 42.68L187.686 41.975C187.071 42.635 186.336 43.145 185.346 43.145C183.726 43.145 182.496 41.81 182.496 40.13C182.496 38.435 183.696 37.1 185.271 37.1C186.321 37.1 187.041 37.595 187.656 38.24L188.391 37.46C187.671 36.695 186.756 36.08 185.286 36.08C183.021 36.08 181.311 37.94 181.311 40.13C181.311 42.335 183.021 44.18 185.286 44.18ZM193.75 44.18C195.22 44.18 196.165 43.595 196.945 42.725L196.225 42.08C195.595 42.74 194.845 43.175 193.78 43.175C192.415 43.175 191.215 42.23 191.05 40.595H197.2C197.215 40.415 197.215 40.295 197.215 40.19C197.215 37.91 195.895 36.08 193.6 36.08C191.455 36.08 189.88 37.88 189.88 40.13C189.88 42.545 191.62 44.18 193.75 44.18ZM191.05 39.665C191.215 38.165 192.235 37.055 193.57 37.055C195.1 37.055 195.91 38.255 196.045 39.665H191.05ZM201.112 44H202.282V37.265H205.057V36.245H198.337V37.265H201.112V44ZM206.737 44H207.847L212.467 37.865V44H213.622V36.245H212.497L207.892 42.38V36.245H206.737V44Z" fill="#5DB9E0"/>
<circle opacity="0.7" cx="13.5" cy="30.5" r="13.5" fill="white"/>
<circle opacity="0.7" cx="33.5" cy="30.5" r="13.5" fill="white"/>
<circle opacity="0.7" cx="23.5" cy="13.5" r="13.5" fill="white"/>
<circle opacity="0.7" cx="13.5" cy="30.5" r="13.5" fill="#2FBFC3"/>
<circle opacity="0.7" cx="33.5" cy="30.5" r="13.5" fill="#5DB9E0"/>
<circle opacity="0.7" cx="23.5" cy="13.5" r="13.5" fill="#B2D66E"/>
</svg>
