<svg width="154" height="154" viewBox="0 0 154 154" fill="none" xmlns="http://www.w3.org/2000/svg">
<circle cx="77" cy="77" r="77" fill="white"/>
<mask id="mask0" mask-type="alpha" maskUnits="userSpaceOnUse" x="0" y="0" width="154" height="154">
<circle cx="77" cy="77" r="77" fill="white"/>
</mask>
<g mask="url(#mask0)">
<path d="M77.0266 156.454C76.7904 157.242 76.7731 158.072 76.9762 158.868C77.1548 159.482 78.1165 159.638 78.6249 159.664C80.7543 159.761 82.5861 159.486 84.7064 159.291C87.4541 159.037 90.4765 158.681 92.409 156.835C93.0227 156.251 93.4898 155.302 92.9586 154.65C92.5828 154.286 92.0687 154.072 91.5252 154.053C89.591 153.794 87.6207 153.892 85.7276 154.341C82.9387 155.001 80.3238 156.416 77.4479 156.484L77.0266 156.454Z" fill="#269D9A"/>
<path d="M88.0218 153.839C87.0513 153.839 84.2667 154.028 84.2077 153.701C82.7519 145.676 81.7542 137.481 80.3845 129.437C80.3584 129.125 80.2538 128.824 80.0807 128.564C79.8648 128.33 79.5828 128.17 79.2734 128.104C78.5248 127.898 77.7375 127.882 76.9813 128.058C76.2251 128.233 75.5232 128.595 74.9378 129.111L73.9491 131.133C73.9763 137.6 76.0942 153.131 76.4435 156.873C76.5115 157.581 77.3505 157.765 77.7496 157.76C81.5592 157.705 85.21 157.204 88.6341 155.416C88.9697 155.241 89.3416 154.956 89.3416 154.593C89.3189 154.028 88.5796 153.849 88.0218 153.839Z" fill="#FBCFAF"/>
<path d="M47.0131 106.653C46.4152 106.292 46.4415 105.265 45.8304 104.936C45.3907 104.695 44.8368 104.996 44.4147 105.297C40.7786 107.908 37.7141 111.658 36.6413 116.153C36.3888 116.99 36.3629 117.885 36.5666 118.736C36.6771 119.158 36.913 119.532 37.2397 119.803C37.5665 120.073 37.9669 120.227 38.3824 120.241C38.9313 120.155 39.4405 119.89 39.8377 119.482C40.4913 118.885 41.0958 118.232 41.6448 117.528C44.0644 114.498 45.8461 110.962 46.8724 107.153" fill="#269D9A"/>
<path d="M63.2898 125.749C62.6982 122.522 59.6771 120.517 57.207 118.489C54.0743 115.908 51.3882 112.792 49.2636 109.276C49.0875 108.985 48.9023 108.686 48.7081 108.391C48.1527 107.351 47.5521 106.33 46.9018 105.341C46.8435 105.223 46.7626 105.119 46.664 105.034C46.5654 104.949 46.4511 104.887 46.3283 104.85C46.1558 104.84 45.9845 104.884 45.836 104.976C42.6072 106.573 41.0583 109.191 39.3197 112.428C38.9341 113.132 38.6222 113.876 38.3894 114.648C38.335 114.899 38.3443 115.161 38.4163 115.407C38.4883 115.653 38.6206 115.876 38.8003 116.053C39.0404 116.242 39.3304 116.35 39.6313 116.363C40.9363 116.47 42.0608 115.473 42.9865 114.489C43.1491 114.32 43.3026 114.147 43.4381 113.978L51.5667 126.555C52.4969 127.993 53.4498 129.459 54.7774 130.508C56.1051 131.557 57.8979 132.133 59.4739 131.557C60.533 131.083 61.4567 130.335 62.1563 129.384C62.582 128.925 62.9219 128.388 63.1588 127.801C63.3814 127.142 63.4267 126.433 63.2898 125.749Z" fill="#FBCFAF"/>
<path d="M60.457 36.4942C59.3208 32.9707 57.2452 29.6978 54.2883 27.5372C51.3315 25.3765 47.4486 24.4147 43.9326 25.3674C39.7814 26.4888 36.7127 29.9257 33.5188 32.8613C30.3248 35.7968 26.1825 38.4497 22 37.4879C25.7128 45.237 35.1023 49.6859 43.3198 47.5572C48.3701 46.249 52.6153 42.8713 57.187 40.2958C58.7258 39.4206 60.5465 38.2537 60.4794 36.4578" fill="#BD7013"/>
<path d="M53.7467 42.5852C53.8903 43.1545 54.2862 43.4678 54.4993 43.1545C56.357 40.608 58.7803 38.1101 60.8903 35.7798C61.5951 34.9943 61.7082 33.988 60.7424 33.2775C60.0376 32.7611 59.4372 32.0638 58.3365 33.8247C56.6311 36.5963 53.7467 42.5852 53.7467 42.5852Z" fill="#F17288"/>
<path d="M101.443 28.5658L101.849 28.934C98.2467 37.5528 92.2611 46.0009 87.2023 53.8516C82.6595 60.9029 81.0798 71.125 73.5647 75.0099C67.6293 78.082 57.7812 73.5099 54.1424 66.9257C53.1891 65.1126 52.5429 63.1587 52.2294 61.1409C50.7957 53.0566 53.2292 44.4783 58.4341 38.0783C63.639 31.6782 71.4919 27.5148 79.7375 26.3695C82.31 26.0363 84.9056 25.9071 87.4991 25.9833C92.4346 26.0731 97.1372 26.392 101.516 28.6331" fill="#BD7013"/>
<path d="M120.85 48.1522C119.622 47.2048 116.623 48.1522 116.623 48.1522C116.584 47.0967 116.401 46.0513 116.078 45.0445C114.837 41.1163 112.793 37.4832 110.073 34.3714C107.491 31.3736 101.074 27.8861 101.074 27.8861C101.074 27.8861 99.0233 32.3393 95.4848 35.4516C91.4277 38.99 86.261 41.0305 80.8596 41.2275C80.849 43.0404 80.6789 44.849 80.3515 46.6327C79.8869 48.9675 79.0212 51.206 77.7923 53.2507C77.7923 53.2507 77.1086 52.0195 74.3 50.7792C71.4913 49.5389 66.4885 49.5252 66.2575 55.5391C66.0265 61.553 75.441 60.4454 75.441 60.4454C75.441 60.4454 76.1247 67.8095 70.4658 75.9791C73.2375 77.8739 77.6214 80.1668 77.6214 80.1668L76.8037 88.547L84.9617 91.38C84.9617 91.38 85.941 80.8534 87.8489 80.7115C94.3083 80.3335 100.592 78.4788 106.207 75.2926C102.816 73.1598 99.8133 70.3588 98.6261 66.5966C97.9655 64.5142 96.7182 60.482 98.5845 54.34C100.214 57.2913 102.418 59.8927 105.07 61.9936C107.722 64.0944 110.768 65.6528 114.032 66.5783C115.912 62.5873 117.158 58.3326 117.728 53.9647C117.728 53.9647 120.319 53.6947 121.423 52.2072C121.666 51.9085 121.845 51.5635 121.948 51.1936C122.052 50.8237 122.077 50.4368 122.024 50.0567C121.97 49.6766 121.838 49.3115 121.636 48.9839C121.434 48.6563 121.167 48.3732 120.85 48.1522Z" fill="#FBCFAF"/>
<path d="M89.8009 88.9795C98.308 87.312 106.681 85.0033 114.85 82.0727C116.549 81.4617 118.483 80.5474 118.831 78.7506C118.991 77.6504 118.907 76.5278 118.586 75.4646C118.109 73.9343 117.513 72.445 116.803 71.0109C117.247 70.9032 117.712 70.9232 118.146 71.0687C118.58 71.2142 118.965 71.4794 119.259 71.8347C120.092 72.7399 121.318 75.089 121.759 75.4873C122 73.1145 122.044 70.7254 121.893 68.3451C122.838 68.0283 123.582 69.1733 123.912 70.1284C124.425 71.622 124.741 73.7266 125.111 75.2655C126.894 74.2426 126.515 70.5674 127.393 69.549C127.446 69.465 127.515 69.3931 127.596 69.3378C127.677 69.2824 127.769 69.2449 127.866 69.2277C128.021 69.2371 128.168 69.303 128.28 69.4132C129.131 70.1148 129.452 72.3688 128.204 75.442C127.781 76.483 127.143 77.9268 126.756 78.9814C127.834 78.9822 128.91 78.9081 129.978 78.7596C130.625 78.7098 131.315 78.6103 131.587 79.2122C131.859 79.8142 131.422 80.4478 130.945 80.8642C128.931 82.6294 126.675 82.385 124.104 83.073C122.74 83.4351 121.67 84.1411 120.199 84.8065C110.392 89.2123 100.093 92.3889 89.529 94.266L89.3418 90.1111" fill="#FBCFAF"/>
<path d="M72.0253 80.6947C68.0551 73.8863 64.071 67.0548 61.0666 59.7728C59.7247 56.5088 58.5731 52.877 59.6736 49.5211C60.1937 47.9166 60.7462 47.342 61.0249 45.6778C61.1099 45.3417 61.0721 44.9867 60.918 44.6756C60.7654 44.478 60.5501 44.3369 60.3066 44.2752C60.0632 44.2135 59.8059 44.2347 59.5761 44.3354C59.1203 44.553 58.7322 44.8881 58.4523 45.3054C57.606 46.3773 56.9883 47.6082 56.6367 48.9234C54.9657 47.404 53.039 46.1857 50.9438 45.3238C50.1962 45.0112 49.0864 44.5009 48.5384 45.0985C47.9905 45.6962 48.8496 46.5467 49.3371 46.9834C50.628 48.1327 52.2579 49.1993 53.7299 50.2658C51.9149 49.5106 50.0257 48.9436 48.0927 48.574C47.215 48.4131 45.7291 48.2338 45.4226 48.6476C44.7726 49.4889 46.1656 50.4451 47.1407 50.8267L51.5335 52.5368C49.7777 52.3419 48.0112 52.2574 46.2445 52.284C44.3221 52.3116 45.2508 53.4425 45.8173 53.7505C46.9643 54.3757 49.639 54.9779 50.9716 55.0699C51.6098 55.0734 52.241 55.2015 52.829 55.4469C53.3832 55.7577 53.8593 56.1883 54.2221 56.7065C56.1817 59.1706 57.3983 62.1266 58.587 65.032L64.4889 79.4075C65.1019 80.9108 66.3463 84.1013 67.8926 84.584C69.4389 85.0667 70.6787 82.6026 71.8303 81.4303" fill="#FBCFAF"/>
<path d="M106.061 43.3973C106.978 43.5302 107.816 43.9801 108.421 44.6648C109.026 45.3496 109.357 46.2234 109.355 47.1266C109.417 46.9493 109.468 46.7685 109.507 46.5853C109.578 46.0976 109.548 45.6013 109.421 45.1247C109.294 44.6481 109.072 44.2005 108.768 43.8075C108.463 43.4144 108.082 43.0837 107.646 42.8341C107.21 42.5844 106.728 42.4209 106.228 42.3527C105.727 42.2845 105.217 42.313 104.728 42.4366C104.239 42.5602 103.779 42.7765 103.375 43.0731C102.972 43.3697 102.632 43.7408 102.376 44.1652C102.119 44.5896 101.951 45.059 101.881 45.5467C101.858 45.7289 101.847 45.9124 101.848 46.0961C102.103 45.2298 102.668 44.4812 103.441 43.986C104.214 43.4908 105.143 43.2819 106.061 43.3973Z" fill="#7E4C02"/>
<path d="M77.5141 85.6285C77.9653 86.4578 78.5106 87.2337 79.1393 87.9412C80.9502 89.6814 82.1906 89.8559 84.0151 89.6367C85.6856 89.4354 85.3732 88.6078 86.4869 87.8473C88.9949 86.1295 93.5039 87.0555 95.2423 87.5476C95.1065 89.337 95.274 90.6208 96.0255 93.2333C96.116 93.542 96.0753 93.5465 95.9757 93.8551C95.8444 94.2533 92.9018 95.309 90.1312 96.4945C89.9952 102.012 89.5296 107.516 88.7368 112.979C84.6049 113.8 80.3365 113.661 76.2678 112.575C72.1992 111.488 68.4416 109.482 65.2909 106.716C69.2431 99.3127 69.0484 90.339 65.644 82.2868C67.8368 81.7299 69.8127 80.542 71.321 78.8736C71.321 78.8736 76.0971 83.1412 77.5141 85.6285Z" fill="#7DC4C2"/>
<path d="M65.768 103.886C60.9193 105.658 56.5551 107.743 51.7064 109.514C51.565 109.533 51.4295 109.584 51.3095 109.662C51.1895 109.74 51.0879 109.843 51.0116 109.965C50.9354 110.087 50.8866 110.224 50.8684 110.366C50.8503 110.509 50.8633 110.654 50.9066 110.792C51.5418 117.425 52.6066 124.473 57.0258 129.446C62.0527 135.147 70.2786 136.73 77.8829 136.587C80.7805 136.584 83.667 136.226 86.479 135.521C89.9064 134.524 93.1485 132.965 96.0758 130.908C92.2234 125.064 90.208 118.915 88.3572 112.143C72.4904 109.256 65.768 103.886 65.768 103.886Z" fill="#F17288"/>
</g>
</svg>
