<svg width="299" height="289" viewBox="0 0 299 289" fill="none" xmlns="http://www.w3.org/2000/svg">
<path d="M210.128 45.4368C237.859 58.092 274.051 62.722 289.492 81.3035C304.932 99.8851 299.621 132.418 287.392 158.469C275.163 184.521 255.955 204.09 235.574 216.436C215.192 228.721 193.576 233.66 170.045 247.735C146.452 261.748 121.006 284.836 93.7689 288.479C66.532 292.121 37.5658 276.317 20.149 252.55C2.73215 228.783 -3.07346 196.991 1.49691 169.273C6.06728 141.493 21.0754 117.788 31.6984 90.9956C42.3214 64.2653 48.4976 34.4484 66.532 17.3484C84.5047 0.248472 114.212 -4.19628 138.67 3.95244C163.189 12.1012 182.459 32.7816 210.128 45.4368Z" fill="#00AEEF"/>
</svg>
