<svg width="68" height="68" viewBox="0 0 68 68" fill="none" xmlns="http://www.w3.org/2000/svg">
<circle cx="34" cy="34" r="34" fill="#F17185"/>
<circle cx="34" cy="34" r="29" fill="#EB3450"/>
<path d="M33.2929 26.7071C33.6834 26.3166 34.3166 26.3166 34.7071 26.7071L37 29L26.5 39.5C25.6716 40.3284 24.3284 40.3284 23.5 39.5C22.6716 38.6716 22.6716 37.3284 23.5 36.5L33.2929 26.7071Z" fill="white"/>
<path d="M31 29L33.2929 26.7071C33.6834 26.3166 34.3166 26.3166 34.7071 26.7071L44.5 36.5C45.3284 37.3284 45.3284 38.6716 44.5 39.5C43.6716 40.3284 42.3284 40.3284 41.5 39.5L31 29Z" fill="white"/>
</svg>
