<svg width="328" height="30" viewBox="0 0 328 30" fill="none" xmlns="http://www.w3.org/2000/svg">
<path fill-rule="evenodd" clip-rule="evenodd" d="M94.5 20.4545C98.7273 20.4545 102.205 16.8409 102.205 12.4091C102.205 7.97727 98.7955 4.36364 94.5 4.36364C90.2727 4.36364 86.7955 7.97727 86.7955 12.4091C86.8636 16.8409 90.2727 20.4545 94.5 20.4545ZM100.5 7.90909C100.091 8.18182 99.6818 8.45455 99.2727 8.65909C99 8.11364 98.7273 7.63636 98.3864 7.15909C98.7273 6.95455 99 6.75 99.2727 6.47727C99.75 6.95455 100.159 7.43182 100.5 7.90909ZM99 6.27273L98.1818 6.88636C97.7727 6.40909 97.3636 6 96.8864 5.65909L97.2955 5.25C97.9091 5.52273 98.4546 5.86364 99 6.27273ZM97.8409 7.09091C97.4318 7.29545 97.0227 7.5 96.5455 7.63636C96.3409 7.15909 96.1364 6.75 95.9318 6.34091C96.2046 6.20455 96.4091 6.06818 96.6136 5.93182C97.0909 6.27273 97.5 6.68182 97.8409 7.09091ZM96.9546 5.11364C96.8182 5.25 96.75 5.38636 96.6136 5.45455C96.2046 5.18182 95.7955 4.90909 95.3182 4.70455L96.9546 5.11364ZM96.3409 5.72727C96.1364 5.86364 95.9318 6 95.7273 6.06818C95.5227 5.72727 95.25 5.31818 94.9773 4.97727C95.5227 5.18182 95.9318 5.45455 96.3409 5.72727ZM94.7046 5.04545C94.9773 5.38636 95.25 5.79545 95.5227 6.20455C95.25 6.27273 94.9773 6.34091 94.7046 6.34091V5.04545ZM94.7046 6.68182C95.0455 6.68182 95.3864 6.61364 95.6591 6.47727C95.8636 6.88636 96.1364 7.29545 96.2727 7.77273C95.7273 7.90909 95.1818 7.97727 94.7046 7.97727V6.68182ZM94.3636 5.04545V6.34091C94.0909 6.34091 93.8182 6.27273 93.6136 6.20455C93.8182 5.79545 94.0909 5.38636 94.3636 5.04545ZM93.2727 6.06818C93.0682 6 92.8636 5.86364 92.6591 5.72727C93.0682 5.45455 93.5455 5.18182 93.9546 4.97727C93.75 5.31818 93.4773 5.65909 93.2727 6.06818ZM93.6818 4.77273C93.2046 4.97727 92.7955 5.25 92.3864 5.52273L92.0455 5.18182C92.5909 4.97727 93.1364 4.84091 93.6818 4.77273ZM91.7727 5.25L92.1818 5.65909C91.8409 5.86364 91.2273 6.54545 91.2273 6.54545C91.2273 6.54545 91.2955 6.54545 91.4318 6.61364C91.5 6.61364 91.6364 6.68182 91.6364 6.68182C91.6364 6.68182 92.25 6.13636 92.5227 5.93182C92.7273 6.13636 93 6.27273 93.2046 6.34091C93.0682 6.54545 92.7273 7.22727 92.7273 7.22727C92.7273 7.22727 92.7955 7.29545 92.8636 7.29545C92.9318 7.36364 93 7.36364 93 7.36364C93 7.36364 93.3409 6.61364 93.4773 6.40909C93.8182 6.54545 94.0909 6.54545 94.4318 6.61364V7.90909C94.2273 7.90909 93.8182 7.90909 93.6136 7.84091H93.4773L93.5455 7.97727C93.6136 8.04545 93.6136 8.11364 93.6818 8.18182H94.4318V10.5682H94.7727V10.0227C95.25 10.0227 95.6591 9.95455 96.0682 9.95455L96.4773 9.54545H96.2727C95.7955 9.61364 95.3182 9.61364 94.9091 9.68182H94.7046V8.18182C95.25 8.18182 95.8636 8.11364 96.4091 7.90909C96.5455 8.31818 96.8864 9.27273 96.8864 9.27273L97.1591 9.20455C97.1591 9.20455 96.8864 8.25 96.6818 7.84091C97.1591 7.70455 97.6364 7.5 98.0455 7.22727C98.3864 7.70455 98.7273 8.18182 98.9318 8.72727C98.7273 8.86364 98.3182 9 98.3182 9C98.6591 9.06818 98.9318 9.13636 98.9318 9.13636C98.9318 9.13636 99.0682 9.06818 99.1364 9.06818C99.1364 9.13636 99.2046 9.27273 99.2046 9.27273L99.6136 9.47727L99.5455 9.34091C99.5455 9.34091 99.4091 9 99.4091 8.93182C99.8182 8.72727 100.295 8.45455 100.705 8.18182C101.455 9.40909 101.932 10.9091 101.932 12.4091C101.932 14.9318 100.773 17.1136 99 18.5455C97.9773 17.9318 97.9773 17.1136 98.0455 16.8409C98.1136 16.5682 98.3182 16.6364 98.4546 16.6364C99.1364 16.6364 99.8182 16.4318 100.705 15.4773C101.659 14.4545 102 12.0682 100.5 10.5682C98.8636 8.93182 97.1591 9.20455 96.0682 10.7045C95.8636 10.9773 95.25 11.25 94.7727 11.1818C94.0909 11.1818 94.5 11.7273 94.5 11.8636C94.5 12 94.3636 12.0682 94.2955 12.0682C94.0227 12 94.1591 12.3409 94.1591 12.4773C94.1591 12.6136 94.0909 12.6818 94.0227 12.6818C93.75 12.6818 93.8182 12.9545 93.8182 13.0227C93.8182 13.0909 93.8182 13.2273 93.6818 13.2955C93.6136 13.3636 93.4773 13.5682 93.4773 13.7727C93.4773 14.1136 93.75 14.3182 94.2955 14.7273C94.7727 15.1364 94.8409 15.4773 94.8409 15.75C94.8409 16.0227 94.8409 16.4318 94.9773 16.7045C95.1136 17.0455 95.1136 17.6591 94.4318 17.7273C93.6136 17.7955 92.1136 18.4773 91.9773 18.5455C91.5 18.75 90.8864 18.8182 90.4091 18.6818C90.1364 18.4773 89.8636 18.2727 89.6591 18.0682C89.5909 17.7273 89.7273 17.3182 89.9318 17.0455C90.2046 17.3182 90.6136 17.3182 90.8864 17.3182C91.0909 17.3182 92.25 17.1136 92.4546 17.1136C92.5909 17.0455 92.6591 17.0455 92.7955 17.1136C93.2046 17.25 93.8182 17.3182 94.0909 16.4318C94.3636 15.5455 93.75 15.8182 93.6818 15.8182C93.6136 15.8864 93.4773 15.8182 93.5455 15.75C93.6818 15.5455 93.4773 15.5455 93.4091 15.5455C93.2046 15.5455 92.8636 15.75 92.7955 15.8864C92.7273 15.9545 92.5909 15.9545 92.5909 15.9545C92.25 15.8182 91.3636 16.0227 91.0909 15.4773C91.0909 15.3409 90.8864 13.1591 90.75 12.8182C90.75 12.75 90.6818 12.6136 90.8182 12.4773C91.0227 12.1364 91.7046 12.4773 92.0455 12.4773C92.4546 12.4773 92.5227 12.2727 92.6591 12.1364C92.7955 12 92.8636 12.0682 92.9318 12C93 11.9318 92.9318 11.8636 92.9318 11.7955C92.9318 11.7273 93 11.7955 93.0682 11.7273C93.1364 11.6591 93.0682 11.5227 93.0682 11.4545C93.2046 11.3182 93.4773 11.4545 93.2727 10.9773C93.2046 10.7727 93.3409 10.5 93.4091 10.2955C93.6136 10.0227 94.4318 8.86364 93 7.63636C91.6364 6.47727 90.3409 6.54545 89.4546 7.56818C88.5682 8.52273 89.0455 10.0227 89.1136 10.3636C89.1818 10.7727 88.9773 11.1136 88.6364 11.25C88.4318 11.3864 87.8864 11.7273 87.4773 12.1364C87.2046 9.13636 89.0455 6.40909 91.7727 5.25ZM84.75 9.40909L84.8182 9.68182L84.9546 9.54545C85.5682 8.93182 86.0455 7.90909 86.25 6.75L86.3182 6.40909L86.1818 6.54545L86.0455 6.68182C85.5682 7.09091 84.5455 8.18182 84.75 9.40909C84.75 9.40909 84.6818 9.34091 84.75 9.40909ZM84.4091 12.8182L84.4773 12.9545L84.5455 12.4091C84.6818 11.5227 84.4773 9.61364 84.2046 8.72727L84.0682 8.45455L84 8.59091L83.9318 8.72727C83.8636 8.93182 83.7273 9.34091 83.6591 9.88636C83.5909 10.7045 83.5909 11.7955 84.2727 12.6818C84.3409 12.6818 84.4091 12.8182 84.4091 12.8182ZM84.8182 15.8864L85.0227 16.0227V15.8182C85.0227 15.0682 84.1364 12.8182 83.5227 12L83.3182 11.7955V12.0682C83.25 12.8182 83.25 14.7955 84.8182 15.8864ZM86.6591 19.2273L86.5909 19.0227C86.3182 18.1364 84.75 16.1591 83.7273 15.4773L83.5227 15.3409V15.6136C83.7273 16.7727 84.8182 18.6136 86.3864 19.1591L86.6591 19.2273ZM84.9546 11.1818V11.4545L85.1591 11.3182C85.8409 10.7727 86.5909 9.34091 86.8636 8.52273L86.9318 8.25L86.7955 8.31818L86.6591 8.38636C85.5 9.06818 84.8864 10.0227 84.9546 11.1818ZM86.1818 10.6364L86.1136 10.7045L86.0455 10.7727C85.7046 11.0455 84.75 12.2045 84.8182 13.5682C84.8182 13.7727 84.8864 13.9773 84.9546 14.25L85.0227 14.4545L85.1591 14.25C85.6364 13.5682 86.25 11.7273 86.25 10.8409L86.1818 10.6364ZM85.9091 17.25L85.9773 17.0455C86.1818 16.6364 86.3864 15.2045 86.3182 14.1136C86.3182 13.7045 86.25 13.4318 86.1818 13.1591L86.1136 12.8864L86.0455 13.0227L85.9773 13.1591C85.5 13.9091 85.2273 14.7273 85.2273 15.4773C85.2273 16.0227 85.4318 16.5682 85.7046 17.0455L85.9091 17.25ZM86.7273 15.6818V15.8182C86.5909 16.2955 86.5227 16.8409 86.5227 17.3182C86.5227 18.4091 87 19.2273 87.8864 19.7727L88.0227 19.8409V19.6364V19.5C88.0227 18.6136 87.4091 16.4318 86.9318 15.8182L86.7955 15.6136L86.7273 15.6818ZM88.9091 21.3409H89.1136L89.0455 21.2045C88.6364 20.5909 86.1818 19.1591 85.2955 19.0227L85.0227 18.9545L85.0909 19.0909L85.1591 19.2273C85.7727 20.25 86.8636 21.75 88.9091 21.3409ZM88.2955 18.2727L88.0909 18.1364V18.4091C88.2955 19.7045 88.7727 21.4091 90.8864 21.2045H91.0227V21.0682C90.8864 20.4545 88.9773 18.75 88.2955 18.2727ZM104.114 9.54545L104.25 9.68182L104.318 9.40909V9.34091C104.455 8.11364 103.432 7.02273 103.023 6.61364L102.886 6.47727L102.75 6.34091L102.818 6.68182C103.023 7.90909 103.5 8.93182 104.114 9.54545ZM104.591 12.8864L104.659 12.75L104.727 12.6818C105.409 11.8636 105.409 10.7045 105.341 9.88636C105.273 9.34091 105.136 8.93182 105.068 8.72727L105 8.59091L104.932 8.45455L104.795 8.72727C104.455 9.54545 104.318 11.4545 104.455 12.4091L104.591 12.8864ZM105.75 11.8636V11.7273L105.545 11.9318C104.932 12.75 104.045 15 104.045 15.75V15.9545L104.25 15.8182C105.818 14.7273 105.818 12.75 105.818 11.9318L105.75 11.8636ZM102.477 19.0227L102.409 19.2273L102.614 19.1591C104.25 18.6136 105.273 16.7727 105.477 15.6136V15.3409L105.273 15.4773C104.318 16.0909 102.75 18.1364 102.477 19.0227ZM103.909 11.25L104.114 11.3864V11.1136C104.182 9.95455 103.636 9 102.477 8.25L102.341 8.18182L102.205 8.11364L102.273 8.38636C102.477 9.27273 103.295 10.7045 103.909 11.25ZM104.045 14.5227L104.114 14.3182C104.182 14.1136 104.25 13.8409 104.25 13.6364C104.318 12.2727 103.364 11.1818 103.023 10.8409L102.955 10.7727L102.886 10.7045V10.9773C102.886 11.8636 103.5 13.7045 103.977 14.3864L104.045 14.5227ZM102.818 13.0227L102.75 13.2955C102.682 13.5 102.682 13.8409 102.614 14.25C102.614 15.3409 102.75 16.7045 102.955 17.1818L103.023 17.3864L103.159 17.25C103.5 16.7727 103.636 16.2273 103.636 15.6818C103.636 14.9318 103.432 14.1136 102.886 13.3636L102.818 13.2273V13.0227ZM102.273 15.5455L102.136 15.75C101.659 16.4318 101.045 18.6136 101.045 19.4318V19.7727L101.182 19.7045C102.068 19.1591 102.477 18.2727 102.545 17.25C102.545 16.7727 102.477 16.2955 102.341 15.75V15.6136L102.273 15.5455ZM100.091 21.2045L100.023 21.3409H100.159C102.205 21.75 103.295 20.25 103.977 19.0909L104.045 18.9545L104.114 18.8182L103.841 18.8864C102.955 19.0909 100.5 20.5909 100.091 21.2045ZM94.5 22.0909C93.1364 21.4773 90.8864 21.0682 88.0227 21.8864L87.6818 21.9545L88.0227 22.0909C89.3182 22.6364 90.9546 22.8409 91.9091 22.5C92.25 22.3636 92.4546 22.1591 92.7273 21.8864C93.2046 21.9545 93.6136 22.0909 94.0227 22.2955C93.6136 22.5 92.4546 23.25 91.6364 24.3409L91.5682 24.4091L91.6364 24.4773C91.7046 24.5455 91.8409 24.6818 91.9773 24.6818H92.0455L92.1136 24.6136C92.6591 23.8636 93.5455 22.9773 94.5 22.4318C95.4546 22.9773 96.2727 23.8636 96.8864 24.6136L96.9546 24.6818H97.0227C97.0909 24.6136 97.2955 24.5455 97.3636 24.4091L97.4318 24.3409L97.3636 24.2727C96.5455 23.1818 95.3864 22.4318 94.9773 22.2273C95.3864 22.0227 95.8636 21.8864 96.2727 21.8182C96.5455 22.0909 96.75 22.2955 97.0909 22.4318C98.0455 22.7727 99.6818 22.5682 100.977 22.0227L101.318 21.8864L100.977 21.8182C98.1136 21.1364 95.9318 21.4773 94.5 22.0909ZM98.0455 21.0682V21.2045H98.1818C100.227 21.4091 100.773 19.7045 100.977 18.4091V18.1364L100.773 18.2727C100.091 18.75 98.1818 20.4545 98.0455 21.0682ZM129.068 10.2955H121.364C121.364 15.9545 121.227 18.4773 119.318 21.2727H118.091V25.8409H119.386V22.4318H129.341V25.8409H130.636V21.2727H129V10.2955H129.068ZM127.705 21.2727H120.955C122.523 18.9545 122.795 15.3409 122.795 11.5227H127.773V21.2727H127.705ZM132.273 21.2045C132.136 21.2045 131.727 21.2045 131.523 21.1364V22.4318C131.795 22.5 132.273 22.5 132.477 22.5C133.909 22.5 136.432 21.8864 136.432 11.4545H141.273V22.3636H142.705V10.2955H135.136C135.136 19.0909 133.773 21.2045 132.273 21.2045ZM144.818 13.8409C144.818 15.8182 146.114 17.0455 147.886 17.3182L144.136 22.4318H145.909L149.523 17.3182H152.386V22.4318H153.818V10.2955H148.568C146.318 10.2955 144.818 11.6591 144.818 13.8409ZM152.455 11.5227V16.1591H149.045C147.273 16.1591 146.386 15.2727 146.386 13.8409C146.386 12.5455 147.341 11.5227 148.909 11.5227H152.455ZM161.455 22.4318H162.886V10.2955H161.455V22.4318ZM170.182 10.2955H168.409L162.818 16.1591L168.818 22.4318H170.591L164.591 16.1591L170.182 10.2955ZM180.068 14.3182C180.068 11.3182 178.705 10.0909 175.841 10.0909C173.795 10.0909 171.818 10.9773 171.75 13.4318H173.114C173.318 11.7273 174.341 11.1818 175.773 11.1818C177.818 11.1818 178.568 12.2727 178.568 14.3182V15.1364H177.955C175.091 15.1364 170.795 15.2727 170.795 19.1591C170.795 21.6136 172.705 22.7045 174.818 22.7045C176.523 22.7045 177.75 22.2273 178.705 20.6591C178.773 21.2045 178.841 21.8182 178.909 22.4318H180.205C180.068 20.9318 180 19.4318 180 17.9318V14.3182H180.068ZM175.227 21.6818C173.727 21.6818 172.364 20.7955 172.364 19.1591C172.364 16.3636 175.705 16.2273 177.614 16.2273C178.023 16.2273 178.364 16.2273 178.773 16.2955C178.705 18.8864 178.5 21.6818 175.227 21.6818ZM181.977 10.2955L187.364 16.1591L181.5 22.4318H183.341L189.068 16.1591L183.75 10.2955H181.977ZM189.068 22.4318H190.5V10.2955H189.068V22.4318ZM197.591 10.2955H195.818L190.5 16.1591L196.227 22.4318H198.068L192.205 16.1591L197.591 10.2955ZM210.068 10.2955H202.364C202.364 15.9545 202.227 18.4773 200.318 21.2727H199.091V25.8409H200.386V22.4318H210.341V25.8409H211.636V21.2727H210V10.2955H210.068ZM208.636 21.2727H201.886C203.455 18.9545 203.727 15.3409 203.727 11.5227H208.705V21.2727H208.636ZM217.636 10.0227C214.091 10.0227 212.182 12.75 212.182 16.2273C212.182 19.7727 214.023 22.6364 217.636 22.6364C221.114 22.6364 223.023 19.6364 223.023 16.2273C223.023 12.75 221.182 10.0227 217.636 10.0227ZM217.636 21.4773C214.841 21.4773 213.682 18.8182 213.682 16.2273C213.682 13.6364 214.841 11.1818 217.636 11.1818C220.432 11.1818 221.591 13.6364 221.591 16.2273C221.523 18.8182 220.364 21.4773 217.636 21.4773ZM225 22.4318H226.432V11.5227H232.568V10.2955H225.068V22.4318H225ZM238.227 10.0227C234.682 10.0227 232.773 12.75 232.773 16.2273C232.773 19.7727 234.614 22.6364 238.227 22.6364C241.705 22.6364 243.614 19.6364 243.614 16.2273C243.614 12.75 241.773 10.0227 238.227 10.0227ZM238.227 21.4773C235.432 21.4773 234.273 18.8182 234.273 16.2273C234.273 13.6364 235.432 11.1818 238.227 11.1818C241.023 11.1818 242.182 13.6364 242.182 16.2273C242.114 18.8182 240.955 21.4773 238.227 21.4773ZM256.295 10.0909C254.455 10.0909 253.227 10.8409 252.273 12.5455L252.205 10.2955H250.773C250.841 11.5227 250.841 12.75 250.841 13.9091V27H252.273V20.4545C253.227 21.9545 254.25 22.6364 256.023 22.6364C259.432 22.6364 261.136 19.4318 261.136 16.1591C261.068 13.0227 259.636 10.0909 256.295 10.0909ZM255.818 21.4773C253.091 21.4773 252.273 18.8182 252.273 16.4318C252.273 13.9091 253.295 11.25 256.091 11.25C258.75 11.25 259.636 14.0455 259.636 16.3636C259.568 18.8864 258.614 21.4773 255.818 21.4773ZM272.386 16.5682C272.386 13.2955 271.432 10.0909 267.682 10.0909C264 10.0909 262.432 13.0909 262.432 16.5682C262.432 19.9773 264 22.7045 267.545 22.7045C270.136 22.7045 271.841 21.3409 272.318 18.6136H270.955C270.682 20.4545 269.523 21.6136 267.682 21.6136C265.159 21.6136 263.795 19.3636 263.795 16.9091V16.6364H272.386V16.5682ZM267.614 11.25C269.795 11.25 270.955 13.1591 270.955 15.2727V15.5455H263.864C264.068 13.2955 265.295 11.25 267.614 11.25ZM279.545 10.0909C277.636 10.0909 276.068 11.0455 275.045 13.0227C275.114 11.7955 275.523 9.75 276.477 8.65909C277.705 7.29545 279.205 7.29545 281.114 7.02273C283.227 6.75 284.182 6.47727 284.386 4.97727H282.886C282.818 5.38636 281.659 5.52273 280.295 5.72727C278.659 5.93182 276.955 6.13636 275.659 7.63636C274.295 9.27273 273.886 11.8636 273.886 15.4773C273.886 17.3864 274.091 18.8182 274.705 19.9773C275.659 21.75 277.295 22.6364 279.273 22.6364C282.545 22.6364 284.591 19.9091 284.591 16.2273C284.659 12.8864 282.818 10.0909 279.545 10.0909ZM279.273 21.4773C276.886 21.4773 275.386 19.5 275.386 16.2273C275.386 13.0909 276.886 11.1818 279.273 11.1818C281.591 11.1818 283.091 13.1591 283.091 16.1591C283.159 19.3636 281.659 21.4773 279.273 21.4773ZM295.909 16.5682C295.909 13.2955 294.955 10.0909 291.205 10.0909C287.523 10.0909 285.955 13.0909 285.955 16.5682C285.955 19.9773 287.523 22.7045 291.068 22.7045C293.659 22.7045 295.364 21.3409 295.841 18.6136H294.477C294.205 20.4545 293.046 21.6136 291.205 21.6136C288.682 21.6136 287.318 19.2955 287.318 16.9091V16.6364H295.909V16.5682ZM291.136 11.25C293.318 11.25 294.477 13.1591 294.477 15.2727V15.5455H287.386C287.591 13.2955 288.818 11.25 291.136 11.25ZM305.591 15.6136H299.182V10.2955H297.75V22.4318H299.182V16.7727H305.591V22.4318H307.023V10.2955H305.591V15.6136ZM309.136 22.4318H310.568V10.2955H309.136V22.4318ZM317.864 10.2955H316.091L310.5 16.1591L316.5 22.4318H318.273L312.273 16.1591L317.864 10.2955ZM327.75 17.9318V14.3182C327.75 11.3182 326.386 10.0909 323.523 10.0909C321.477 10.0909 319.5 10.9773 319.432 13.4318H320.795C321 11.7273 322.023 11.1818 323.455 11.1818C325.5 11.1818 326.25 12.2727 326.25 14.3182V15.1364H325.636C322.773 15.1364 318.477 15.2727 318.477 19.1591C318.477 21.6136 320.386 22.7045 322.5 22.7045C324.205 22.7045 325.432 22.2273 326.386 20.6591C326.455 21.2045 326.523 21.8182 326.591 22.4318H327.886C327.818 20.9318 327.75 19.4318 327.75 17.9318ZM322.841 21.6818C321.341 21.6818 319.977 20.7955 319.977 19.1591C319.977 16.3636 323.318 16.2273 325.227 16.2273C325.636 16.2273 325.977 16.2273 326.386 16.2955C326.386 18.8864 326.182 21.6818 322.841 21.6818ZM111.886 30H112.295V0H111.886V30ZM9.54546 10.0227C6.54545 10.0227 4.43182 12.1364 4.09091 15.4091H2.04545V10.2955H0V22.4318H2.04545V16.9773H4.02273C4.29545 20.5227 6.34091 22.7045 9.47727 22.7045C12.6818 22.7045 15 20.1136 15 16.3636C15 12.4091 12.75 10.0227 9.54546 10.0227ZM9.47727 21.2727C7.5 21.2727 6.13636 19.3636 6.13636 16.2955C6.13636 13.3636 7.43182 11.5227 9.47727 11.5227C11.5227 11.5227 12.8182 13.3636 12.8182 16.2955C12.8182 19.2273 11.4545 21.2727 9.47727 21.2727ZM24.6818 15.4773H18.8182V10.3636H16.7727V22.5H18.8182V17.0455H24.6818V22.5H26.7273V10.2955H24.6818V15.4773ZM30.75 19.8409V10.2955H28.7045V22.4318H30.9545L36.8182 13.0909V22.4318H38.8636V10.2955H36.6136L30.75 19.8409ZM49.2273 18.3409C49.0909 20.1136 48 21.2727 46.3636 21.2727C43.7727 21.2727 42.8182 18.75 42.8182 16.4318C42.8182 13.9773 43.7045 11.4545 46.4318 11.4545C48.0682 11.4545 49.0909 12.4773 49.1591 14.25H51.1364C50.9318 11.3864 49.0227 10.0227 46.4318 10.0227C42.6818 10.0227 40.7046 12.8182 40.7046 16.5682C40.7046 20.25 42.6818 22.7727 46.3636 22.7727C49.0227 22.7727 51.0682 21.3409 51.2727 18.4773H49.2273V18.3409ZM62.9318 16.7727C62.9318 13.2273 61.8409 10.0909 57.9546 10.0909C54.2046 10.0909 52.4318 12.9545 52.4318 16.5682C52.4318 20.1818 54.2045 22.7045 57.75 22.7045C60.4091 22.7045 62.3864 21.4091 62.7955 18.5455H60.8864C60.6136 20.25 59.5227 21.3409 57.8864 21.3409C55.5682 21.3409 54.4091 19.2955 54.4091 17.0455V16.7727H62.9318ZM57.8864 11.5227C60 11.5227 60.9546 13.3636 60.9546 15.3409H54.5455C54.6818 13.3636 55.7727 11.5227 57.8864 11.5227ZM76.2273 10.0909C75.1364 10.0909 74.0455 10.6364 73.5 11.1818V5.04545H71.4546V11.1818C70.9091 10.6364 69.8182 10.0909 68.7955 10.0909C65.9318 10.0909 64.4318 12.6136 64.4318 16.3636C64.4318 20.1136 66 22.6364 68.7955 22.6364C69.8864 22.6364 70.9091 22.0909 71.4546 21.5455V26.9318H73.5V21.5455C74.0455 22.0909 75 22.6364 76.1591 22.6364C78.9546 22.6364 80.5909 20.0455 80.5909 16.3636C80.5909 12.6136 79.0909 10.0909 76.2273 10.0909ZM71.5227 20.1136C71.1818 20.5909 70.1591 21.2045 69.4091 21.2045C67.4318 21.2045 66.6136 19.2955 66.6136 16.3636C66.6136 13.4318 67.4318 11.5909 69.4773 11.5909C70.2273 11.5909 71.1136 12 71.5227 12.5455V20.1136ZM75.6818 21.2045C75 21.2045 73.9773 20.6591 73.5682 20.1136V12.6136C73.9773 12 74.8636 11.6591 75.6136 11.6591C77.7273 11.6591 78.4773 13.5 78.4773 16.4318C78.4773 19.2955 77.5909 21.2045 75.6818 21.2045Z" fill="#00AEEF"/>
</svg>
