<svg width="141" height="30" viewBox="0 0 141 30" fill="none" xmlns="http://www.w3.org/2000/svg">
<path fill-rule="evenodd" clip-rule="evenodd" d="M125.619 21.3897C131.239 21.3897 135.861 16.5861 135.861 10.6949C135.861 4.80363 131.329 0 125.619 0C120 0 115.378 4.80363 115.378 10.6949C115.468 16.5861 120 21.3897 125.619 21.3897ZM133.595 4.71299C133.051 5.07553 132.508 5.43807 131.964 5.70997C131.601 4.98489 131.239 4.35045 130.786 3.71601C131.239 3.44411 131.601 3.1722 131.964 2.80967C132.598 3.44411 133.142 4.07855 133.595 4.71299ZM131.601 2.53776L130.514 3.35347C129.97 2.71903 129.426 2.17523 128.792 1.72205L129.335 1.17825C130.151 1.54079 130.876 1.99396 131.601 2.53776ZM130.06 3.62538C129.517 3.89728 128.973 4.16918 128.338 4.35045C128.066 3.71601 127.795 3.17221 127.523 2.6284C127.885 2.44713 128.157 2.26586 128.429 2.08459C129.063 2.53776 129.607 3.08157 130.06 3.62538ZM128.882 0.996979C128.701 1.17825 128.61 1.35952 128.429 1.45015C127.885 1.08761 127.341 0.725075 126.707 0.453172L128.882 0.996979ZM128.066 1.81269C127.795 1.99396 127.523 2.17523 127.251 2.26586C126.979 1.81269 126.616 1.26888 126.254 0.81571C126.979 1.08761 127.523 1.45015 128.066 1.81269ZM125.891 0.906344C126.254 1.35952 126.616 1.90332 126.979 2.44713C126.616 2.53776 126.254 2.6284 125.891 2.6284V0.906344ZM125.891 3.08157C126.344 3.08157 126.798 2.99094 127.16 2.80967C127.432 3.35347 127.795 3.89728 127.976 4.53172C127.251 4.71299 126.526 4.80363 125.891 4.80363V3.08157ZM125.438 0.906344V2.6284C125.076 2.6284 124.713 2.53776 124.441 2.44713C124.713 1.90332 125.076 1.35952 125.438 0.906344ZM123.988 2.26586C123.716 2.17523 123.444 1.99396 123.172 1.81269C123.716 1.45015 124.35 1.08761 124.894 0.81571C124.622 1.26888 124.26 1.72205 123.988 2.26586ZM124.532 0.543807C123.897 0.81571 123.353 1.17825 122.81 1.54079L122.357 1.08761C123.082 0.81571 123.807 0.634441 124.532 0.543807ZM121.994 1.17825L122.538 1.72205C122.085 1.99396 121.269 2.9003 121.269 2.9003C121.269 2.9003 121.36 2.9003 121.541 2.99094C121.631 2.99094 121.813 3.08157 121.813 3.08157C121.813 3.08157 122.628 2.3565 122.991 2.08459C123.263 2.3565 123.625 2.53776 123.897 2.6284C123.716 2.9003 123.263 3.80665 123.263 3.80665C123.263 3.80665 123.353 3.89728 123.444 3.89728C123.535 3.98792 123.625 3.98792 123.625 3.98792C123.625 3.98792 124.079 2.99094 124.26 2.71903C124.713 2.9003 125.076 2.9003 125.529 2.99094V4.71299C125.257 4.71299 124.713 4.71299 124.441 4.62236H124.26L124.35 4.80363C124.441 4.89426 124.441 4.98489 124.532 5.07553H125.529V8.24773H125.982V7.52266C126.616 7.52266 127.16 7.43202 127.704 7.43202L128.248 6.88822H127.976C127.341 6.97885 126.707 6.97885 126.163 7.06949H125.891V5.07553C126.616 5.07553 127.432 4.98489 128.157 4.71299C128.338 5.2568 128.792 6.52568 128.792 6.52568L129.154 6.43504C129.154 6.43504 128.792 5.16616 128.52 4.62236C129.154 4.44109 129.789 4.16918 130.332 3.80665C130.786 4.44109 131.239 5.07553 131.511 5.8006C131.239 5.98187 130.695 6.16314 130.695 6.16314C131.148 6.25378 131.511 6.34441 131.511 6.34441C131.511 6.34441 131.692 6.25378 131.782 6.25378C131.782 6.34441 131.873 6.52568 131.873 6.52568L132.417 6.79758L132.326 6.61631C132.326 6.61631 132.145 6.16314 132.145 6.07251C132.689 5.8006 133.323 5.43807 133.867 5.07553C134.864 6.70695 135.499 8.70091 135.499 10.6949C135.499 14.0483 133.958 16.9486 131.601 18.852C130.242 18.0363 130.242 16.9486 130.332 16.5861C130.423 16.2236 130.695 16.3142 130.876 16.3142C131.782 16.3142 132.689 16.0423 133.867 14.7734C135.136 13.4139 135.589 10.2417 133.595 8.24773C131.42 6.07251 129.154 6.43504 127.704 8.429C127.432 8.79154 126.616 9.15408 125.982 9.06344C125.076 9.06344 125.619 9.78852 125.619 9.96979C125.619 10.1511 125.438 10.2417 125.347 10.2417C124.985 10.1511 125.166 10.6042 125.166 10.7855C125.166 10.9668 125.076 11.0574 124.985 11.0574C124.622 11.0574 124.713 11.4199 124.713 11.5106C124.713 11.6012 124.713 11.7825 124.532 11.8731C124.441 11.9637 124.26 12.2357 124.26 12.5076C124.26 12.9607 124.622 13.2326 125.347 13.7764C125.982 14.3202 126.073 14.7734 126.073 15.136C126.073 15.4985 126.073 16.0423 126.254 16.4048C126.435 16.858 126.435 17.6737 125.529 17.7643C124.441 17.855 122.447 18.7613 122.266 18.852C121.631 19.1239 120.816 19.2145 120.181 19.0332C119.819 18.7613 119.456 18.4894 119.184 18.2175C119.094 17.7644 119.275 17.2205 119.547 16.858C119.909 17.2205 120.453 17.2205 120.816 17.2205C121.088 17.2205 122.628 16.9486 122.9 16.9486C123.082 16.858 123.172 16.858 123.353 16.9486C123.897 17.1299 124.713 17.2205 125.076 16.0423C125.438 14.864 124.622 15.2266 124.532 15.2266C124.441 15.3172 124.26 15.2266 124.35 15.136C124.532 14.864 124.26 14.864 124.169 14.864C123.897 14.864 123.444 15.136 123.353 15.3172C123.263 15.4079 123.082 15.4079 123.082 15.4079C122.628 15.2266 121.45 15.4985 121.088 14.7734C121.088 14.5921 120.816 11.6918 120.634 11.2387C120.634 11.148 120.544 10.9668 120.725 10.7855C120.997 10.3323 121.903 10.7855 122.357 10.7855C122.9 10.7855 122.991 10.5136 123.172 10.3323C123.353 10.1511 123.444 10.2417 123.535 10.1511C123.625 10.0604 123.535 9.96979 123.535 9.87915C123.535 9.78852 123.625 9.87915 123.716 9.78852C123.807 9.69789 123.716 9.51662 123.716 9.42598C123.897 9.24471 124.26 9.42598 123.988 8.79154C123.897 8.51964 124.079 8.1571 124.169 7.8852C124.441 7.52266 125.529 5.98187 123.625 4.35045C121.813 2.80967 120.091 2.9003 118.912 4.25982C117.734 5.5287 118.369 7.52266 118.459 7.97583C118.55 8.51964 118.278 8.97281 117.825 9.15408C117.553 9.33535 116.828 9.78852 116.284 10.3323C115.921 6.34441 118.369 2.71903 121.994 1.17825ZM112.659 6.70695L112.749 7.06949L112.931 6.88822C113.746 6.07251 114.381 4.71299 114.653 3.1722L114.743 2.71903L114.562 2.9003L114.381 3.08157C113.746 3.62538 112.387 5.07553 112.659 6.70695ZM112.205 11.2387L112.296 11.4199L112.387 10.6949C112.568 9.51662 112.296 6.97885 111.934 5.8006L111.752 5.43807L111.662 5.61934L111.571 5.8006C111.48 6.07251 111.299 6.61631 111.208 7.34139C111.118 8.429 111.118 9.87915 112.024 11.0574C112.115 11.0574 112.205 11.2387 112.205 11.2387ZM112.749 15.3172L113.021 15.4985V15.2266C113.021 14.2296 111.843 11.2387 111.027 10.1511L110.755 9.87915V10.2417C110.665 11.2387 110.665 13.8671 112.749 15.3172ZM115.196 19.7583L115.106 19.4864C114.743 18.3082 112.659 15.6798 111.299 14.7734L111.027 14.5921V14.9547C111.299 16.4955 112.749 18.9426 114.834 19.6677L115.196 19.7583ZM112.931 9.06344V9.42598L113.202 9.24471C114.109 8.51964 115.106 6.61631 115.468 5.5287L115.559 5.16616L115.378 5.2568L115.196 5.34743C113.656 6.25378 112.84 7.52266 112.931 9.06344ZM114.562 8.33837L114.471 8.429L114.381 8.51964C113.927 8.88217 112.659 10.423 112.749 12.2357C112.749 12.5076 112.84 12.7795 112.931 13.142L113.021 13.4139L113.202 13.142C113.837 12.2357 114.653 9.78852 114.653 8.61027L114.562 8.33837ZM114.199 17.1299L114.29 16.858C114.562 16.3142 114.834 14.4109 114.743 12.9607C114.743 12.4169 114.653 12.0544 114.562 11.6918L114.471 11.3293L114.381 11.5106L114.29 11.6918C113.656 12.6888 113.293 13.7764 113.293 14.7734C113.293 15.4985 113.565 16.2236 113.928 16.858L114.199 17.1299ZM115.287 15.0453V15.2266C115.106 15.861 115.015 16.5861 115.015 17.2205C115.015 18.6707 115.65 19.7583 116.828 20.4834L117.009 20.574V20.3021V20.1208C117.009 18.9426 116.193 16.0423 115.559 15.2266L115.378 14.9547L115.287 15.0453ZM118.187 22.568H118.459L118.369 22.3867C117.825 21.571 114.562 19.6677 113.384 19.4864L113.021 19.3958L113.112 19.577L113.202 19.7583C114.018 21.1178 115.468 23.1118 118.187 22.568ZM117.372 18.4894L117.1 18.3082V18.6707C117.372 20.3927 118.006 22.6586 120.816 22.3867H120.997V22.2054C120.816 21.3897 118.278 19.1239 117.372 18.4894ZM138.399 6.88822L138.58 7.06949L138.671 6.70695V6.61631C138.852 4.98489 137.492 3.53474 136.949 2.99094L136.767 2.80967L136.586 2.6284L136.677 3.08157C136.949 4.71299 137.583 6.07251 138.399 6.88822ZM139.033 11.3293L139.124 11.148L139.215 11.0574C140.121 9.96979 140.121 8.429 140.03 7.34139C139.94 6.61631 139.758 6.07251 139.668 5.8006L139.577 5.61934L139.486 5.43807L139.305 5.8006C138.852 6.88822 138.671 9.42598 138.852 10.6949L139.033 11.3293ZM140.574 9.96979V9.78852L140.302 10.0604C139.486 11.148 138.308 14.139 138.308 15.136V15.4079L138.58 15.2266C140.665 13.7764 140.665 11.148 140.665 10.0604L140.574 9.96979ZM136.224 19.4864L136.133 19.7583L136.405 19.6677C138.58 18.9426 139.94 16.4955 140.211 14.9547V14.5921L139.94 14.7734C138.671 15.5891 136.586 18.3082 136.224 19.4864ZM138.127 9.15408L138.399 9.33535V8.97281C138.489 7.43202 137.764 6.16314 136.224 5.16616L136.042 5.07553L135.861 4.98489L135.952 5.34743C136.224 6.52568 137.311 8.429 138.127 9.15408ZM138.308 13.5045L138.399 13.2326C138.489 12.9607 138.58 12.5982 138.58 12.3263C138.671 10.5136 137.402 9.06344 136.949 8.61027L136.858 8.51964L136.767 8.429V8.79154C136.767 9.96979 137.583 12.4169 138.218 13.3233L138.308 13.5045ZM136.677 11.5106L136.586 11.8731C136.495 12.145 136.495 12.5982 136.405 13.142C136.405 14.5921 136.586 16.4048 136.858 17.0393L136.949 17.3112L137.13 17.1299C137.583 16.4955 137.764 15.7704 137.764 15.0453C137.764 14.0483 137.492 12.9607 136.767 11.9637L136.677 11.7825V11.5106ZM135.952 14.864L135.77 15.136C135.136 16.0423 134.32 18.9426 134.32 20.0302V20.4834L134.502 20.3927C135.68 19.6677 136.224 18.4894 136.314 17.1299C136.314 16.4955 136.224 15.861 136.042 15.136V14.9547L135.952 14.864ZM133.051 22.3867L132.961 22.568H133.142C135.861 23.1118 137.311 21.1178 138.218 19.577L138.308 19.3958L138.399 19.2145L138.036 19.3051C136.858 19.577 133.595 21.571 133.051 22.3867ZM125.619 23.565C123.807 22.7492 120.816 22.2054 117.009 23.293L116.556 23.3837L117.009 23.565C118.731 24.29 120.906 24.5619 122.175 24.1088C122.628 23.9275 122.9 23.6556 123.263 23.293C123.897 23.3837 124.441 23.565 124.985 23.8369C124.441 24.1088 122.9 25.1057 121.813 26.5559L121.722 26.6465L121.813 26.7372C121.903 26.8278 122.085 27.0091 122.266 27.0091H122.357L122.447 26.9184C123.172 25.9214 124.35 24.7432 125.619 24.0181C126.888 24.7432 127.976 25.9214 128.792 26.9184L128.882 27.0091H128.973C129.063 26.9184 129.335 26.8278 129.426 26.6465L129.517 26.5559L129.426 26.4653C128.338 25.0151 126.798 24.0181 126.254 23.7462C126.798 23.4743 127.432 23.2931 127.976 23.2024C128.338 23.565 128.61 23.8369 129.063 24.0181C130.332 24.4713 132.508 24.1994 134.23 23.4743L134.683 23.293L134.23 23.2024C130.423 22.2961 127.523 22.7492 125.619 23.565ZM130.332 22.2054V22.3867H130.514C133.233 22.6586 133.958 20.3927 134.23 18.6707V18.3082L133.958 18.4894C133.051 19.1239 130.514 21.3897 130.332 22.2054ZM12.6888 7.52266C8.70091 7.52266 5.89124 10.3323 5.43807 14.6828H2.71903V7.8852H0V24.0181H2.71903V16.7674H5.34743C5.70997 21.4804 8.429 24.3807 12.5982 24.3807C16.858 24.3807 19.9396 20.9366 19.9396 15.9517C19.9396 10.6949 16.9486 7.52266 12.6888 7.52266ZM12.5982 22.4773C9.96979 22.4773 8.1571 19.9396 8.1571 15.861C8.1571 11.9637 9.87915 9.51662 12.5982 9.51662C15.3172 9.51662 17.0393 11.9637 17.0393 15.861C17.0393 19.7583 15.2266 22.4773 12.5982 22.4773ZM32.8097 14.7734H25.0151V7.97583H22.2961V24.1088H25.0151V16.858H32.8097V24.1088H35.5287V7.8852H32.8097V14.7734ZM40.8761 20.574V7.8852H38.1571V24.0181H41.148L48.9426 11.6012V24.0181H51.6616V7.8852H48.6707L40.8761 20.574ZM65.4381 18.5801C65.2568 20.9366 63.8067 22.4773 61.6314 22.4773C58.1873 22.4773 56.9184 19.1239 56.9184 16.0423C56.9184 12.7795 58.0967 9.42598 61.7221 9.42598C63.8973 9.42598 65.2568 10.7855 65.3474 13.142H67.9758C67.7039 9.33535 65.1662 7.52266 61.7221 7.52266C56.7372 7.52266 54.1088 11.2387 54.1088 16.2236C54.1088 21.1178 56.7372 24.4713 61.6314 24.4713C65.1662 24.4713 67.8852 22.568 68.1571 18.7613H65.4381V18.5801ZM83.6556 16.4955C83.6556 11.7825 82.2054 7.61329 77.0393 7.61329C72.0544 7.61329 69.6979 11.4199 69.6979 16.2236C69.6979 21.0272 72.0544 24.3807 76.7674 24.3807C80.3021 24.3807 82.9305 22.6586 83.4743 18.852H80.9366C80.574 21.1178 79.1239 22.568 76.9486 22.568C73.8671 22.568 72.3263 19.8489 72.3263 16.858V16.4955H83.6556ZM76.9486 9.51662C79.7583 9.51662 81.0272 11.9637 81.0272 14.5921H72.5076C72.6888 11.9637 74.139 9.51662 76.9486 9.51662ZM101.329 7.61329C99.8792 7.61329 98.429 8.33837 97.7039 9.06344V0.906344H94.9849V9.06344C94.2598 8.33837 92.8097 7.61329 91.4502 7.61329C87.6435 7.61329 85.6496 10.9668 85.6496 15.9517C85.6496 20.9366 87.7342 24.29 91.4502 24.29C92.9003 24.29 94.2598 23.565 94.9849 22.8399V30H97.7039V22.8399C98.429 23.565 99.6979 24.29 101.239 24.29C104.955 24.29 107.13 20.8459 107.13 15.9517C107.13 10.9668 105.136 7.61329 101.329 7.61329ZM95.0755 20.9366C94.6224 21.571 93.2628 22.3867 92.2659 22.3867C89.6375 22.3867 88.5499 19.8489 88.5499 15.9517C88.5499 12.0544 89.6375 9.60725 92.3565 9.60725C93.3535 9.60725 94.5317 10.1511 95.0755 10.8761V20.9366ZM100.604 22.3867C99.6979 22.3867 98.3384 21.6616 97.7946 20.9366V10.9668C98.3384 10.1511 99.5166 9.69789 100.514 9.69789C103.323 9.69789 104.32 12.145 104.32 16.0423C104.32 19.8489 103.142 22.3867 100.604 22.3867Z" fill="white"/>
</svg>
