<svg width="208" height="16" viewBox="0 0 208 16" fill="none" xmlns="http://www.w3.org/2000/svg">
<path d="M5.57984 15.24C8.63984 15.24 10.8798 12.8 10.8798 9.92C10.8798 7.08 8.61984 4.78 5.91984 4.78C3.71984 4.78 2.35984 5.8 1.63984 7.02C1.79984 5.04 2.51984 3.88 4.65984 3.34L10.2598 1.96L9.95984 0.660004L4.19984 2.02C0.599844 2.88 0.339844 6.08 0.339844 9.42C0.339844 13.02 2.43984 15.24 5.57984 15.24ZM5.61984 13.86C3.53984 13.86 1.91984 12.12 1.91984 9.96C1.91984 7.8 3.43984 6.06 5.57984 6.06C7.65984 6.06 9.27984 7.8 9.27984 9.96C9.27984 12.12 7.75984 13.86 5.61984 13.86Z" fill="#5DB9E0"/>
<path d="M18.1891 15.24C20.1491 15.24 21.4091 14.46 22.4491 13.3L21.4891 12.44C20.6491 13.32 19.6491 13.9 18.2291 13.9C16.4091 13.9 14.8091 12.64 14.5891 10.46H22.7891C22.8091 10.22 22.8091 10.06 22.8091 9.92C22.8091 6.88 21.0491 4.44 17.9891 4.44C15.1291 4.44 13.0291 6.84 13.0291 9.84C13.0291 13.06 15.3491 15.24 18.1891 15.24ZM14.5891 9.22C14.8091 7.22 16.1691 5.74 17.9491 5.74C19.9891 5.74 21.0691 7.34 21.2491 9.22H14.5891Z" fill="#5DB9E0"/>
<path d="M28.785 15.24C31.345 15.24 32.885 13.78 32.885 12.12C32.885 10.76 32.105 9.98 30.965 9.58C31.845 9.22 32.625 8.48 32.625 7.2C32.625 5.6 31.205 4.44 28.885 4.44C27.365 4.44 25.965 4.9 24.885 5.74L25.645 6.82C26.545 6.1 27.765 5.78 28.785 5.78C30.065 5.78 31.025 6.36 31.025 7.32C31.025 8.4 30.085 9.1 28.725 9.1H27.325V10.36H28.705C30.385 10.36 31.305 11.02 31.305 12.06C31.305 13.26 30.085 13.9 28.745 13.9C27.505 13.9 26.325 13.44 25.285 12.56L24.505 13.7C25.765 14.72 27.145 15.24 28.785 15.24Z" fill="#5DB9E0"/>
<path d="M40.4594 15.24C43.5794 15.24 45.8794 12.76 45.8794 9.84C45.8794 6.88 43.5994 4.44 40.4994 4.44C37.3794 4.44 35.0994 6.92 35.0994 9.84C35.0994 12.8 37.3594 15.24 40.4594 15.24ZM40.4994 13.86C38.3194 13.86 36.6794 12.06 36.6794 9.84C36.6794 7.62 38.2194 5.8 40.4594 5.8C42.6394 5.8 44.2994 7.62 44.2994 9.84C44.2994 12.06 42.7394 13.86 40.4994 13.86Z" fill="#5DB9E0"/>
<path d="M48.6691 15H50.2091V6.02H56.0891V15H57.6291V4.66H48.6691V15Z" fill="#5DB9E0"/>
<path d="M64.1514 15.22C65.9714 15.22 67.1514 14.38 67.8714 13.46V15H69.3914V8.68C69.3914 7.36 69.0314 6.36 68.3114 5.64C67.5714 4.9 66.4314 4.5 64.9714 4.5C63.4514 4.5 62.3514 4.86 61.2114 5.38L61.6714 6.64C62.6314 6.2 63.5914 5.9 64.8114 5.9C66.7514 5.9 67.8714 6.86 67.8714 8.7V9.02C66.9514 8.76 66.0314 8.58 64.7114 8.58C62.0914 8.58 60.2914 9.74 60.2914 11.96C60.2914 14.12 62.2114 15.22 64.1514 15.22ZM64.4514 13.98C63.0514 13.98 61.8514 13.22 61.8514 11.92C61.8514 10.64 62.9514 9.8 64.8714 9.8C66.1314 9.8 67.1314 10.02 67.8914 10.24V11.2C67.8914 12.84 66.3514 13.98 64.4514 13.98Z" fill="#5DB9E0"/>
<path d="M77.3134 15.24C79.2534 15.24 80.4934 14.4 81.5334 13.24L80.5134 12.3C79.6934 13.18 78.7134 13.86 77.3934 13.86C75.2334 13.86 73.5934 12.08 73.5934 9.84C73.5934 7.58 75.1934 5.8 77.2934 5.8C78.6934 5.8 79.6534 6.46 80.4734 7.32L81.4534 6.28C80.4934 5.26 79.2734 4.44 77.3134 4.44C74.2934 4.44 72.0134 6.92 72.0134 9.84C72.0134 12.78 74.2934 15.24 77.3134 15.24Z" fill="#5DB9E0"/>
<path d="M84.0792 15H85.6192V10.48H91.5792V15H93.1192V4.66H91.5792V9.12H85.6192V4.66H84.0792V15Z" fill="#5DB9E0"/>
<path d="M101.28 15.24C104.4 15.24 106.7 12.76 106.7 9.84C106.7 6.88 104.42 4.44 101.32 4.44C98.1997 4.44 95.9197 6.92 95.9197 9.84C95.9197 12.8 98.1797 15.24 101.28 15.24ZM101.32 13.86C99.1397 13.86 97.4997 12.06 97.4997 9.84C97.4997 7.62 99.0397 5.8 101.28 5.8C103.46 5.8 105.12 7.62 105.12 9.84C105.12 12.06 103.56 13.86 101.32 13.86Z" fill="#5DB9E0"/>
<path d="M114.149 15.24C116.089 15.24 117.329 14.4 118.369 13.24L117.349 12.3C116.529 13.18 115.549 13.86 114.229 13.86C112.069 13.86 110.429 12.08 110.429 9.84C110.429 7.58 112.029 5.8 114.129 5.8C115.529 5.8 116.489 6.46 117.309 7.32L118.289 6.28C117.329 5.26 116.109 4.44 114.149 4.44C111.129 4.44 108.849 6.92 108.849 9.84C108.849 12.78 111.129 15.24 114.149 15.24Z" fill="#5DB9E0"/>
<path d="M123.415 15H124.975V6.02H128.675V4.66H119.715V6.02H123.415V15Z" fill="#5DB9E0"/>
<path d="M130.915 15H135.395C137.755 15 139.295 13.7 139.295 11.64C139.295 9.46 137.455 8.54 135.215 8.54H132.455V4.66H130.915V15ZM132.455 13.64V9.86H135.195C136.775 9.86 137.735 10.48 137.735 11.68C137.735 12.98 136.795 13.64 135.255 13.64H132.455Z" fill="#5DB9E0"/>
<path d="M147.673 15H152.853C155.133 15 156.613 13.92 156.613 12.18C156.613 10.72 155.573 9.96 154.333 9.62C155.193 9.26 156.053 8.6 156.053 7.24C156.053 5.68 154.733 4.66 152.673 4.66H147.673V15ZM149.213 13.68V10.34H152.453C154.133 10.34 155.033 10.94 155.033 11.94C155.033 13.02 154.133 13.68 152.653 13.68H149.213ZM149.213 9.1V5.98H152.433C153.773 5.98 154.493 6.58 154.493 7.44C154.493 8.52 153.633 9.1 152.393 9.1H149.213Z" fill="#5DB9E0"/>
<path d="M170.048 15.24C171.988 15.24 173.228 14.4 174.268 13.24L173.248 12.3C172.428 13.18 171.448 13.86 170.128 13.86C167.968 13.86 166.328 12.08 166.328 9.84C166.328 7.58 167.928 5.8 170.028 5.8C171.428 5.8 172.388 6.46 173.208 7.32L174.188 6.28C173.228 5.26 172.008 4.44 170.048 4.44C167.028 4.44 164.748 6.92 164.748 9.84C164.748 12.78 167.028 15.24 170.048 15.24Z" fill="#5DB9E0"/>
<path d="M181.334 15.24C183.294 15.24 184.554 14.46 185.594 13.3L184.634 12.44C183.794 13.32 182.794 13.9 181.374 13.9C179.554 13.9 177.954 12.64 177.734 10.46H185.934C185.954 10.22 185.954 10.06 185.954 9.92C185.954 6.88 184.194 4.44 181.134 4.44C178.274 4.44 176.174 6.84 176.174 9.84C176.174 13.06 178.494 15.24 181.334 15.24ZM177.734 9.22C177.954 7.22 179.314 5.74 181.094 5.74C183.134 5.74 184.214 7.34 184.394 9.22H177.734Z" fill="#5DB9E0"/>
<path d="M191.15 15H192.71V6.02H196.41V4.66H187.45V6.02H191.15V15Z" fill="#5DB9E0"/>
<path d="M198.65 15H200.13L206.29 6.82V15H207.83V4.66H206.33L200.19 12.84V4.66H198.65V15Z" fill="#5DB9E0"/>
</svg>
