<svg width="156" height="12" viewBox="0 0 156 12" fill="none" xmlns="http://www.w3.org/2000/svg">
<path d="M3.93488 11.18C6.22988 11.18 7.90988 9.35 7.90988 7.19C7.90988 5.06 6.21488 3.33499 4.18988 3.33499C2.53988 3.33499 1.51988 4.09999 0.979883 5.01499C1.09988 3.52999 1.63988 2.65999 3.24488 2.255L7.44488 1.22L7.21988 0.244995L2.89988 1.26499C0.199883 1.91 0.00488281 4.31 0.00488281 6.815C0.00488281 9.515 1.57988 11.18 3.93488 11.18ZM3.96488 10.145C2.40488 10.145 1.18988 8.83999 1.18988 7.21999C1.18988 5.59999 2.32988 4.295 3.93488 4.295C5.49488 4.295 6.70988 5.59999 6.70988 7.21999C6.70988 8.83999 5.56988 10.145 3.96488 10.145Z" fill="#5DB9E0"/>
<path d="M13.3918 11.18C14.8618 11.18 15.8068 10.595 16.5868 9.725L15.8668 9.08C15.2368 9.74 14.4868 10.175 13.4218 10.175C12.0568 10.175 10.8568 9.22999 10.6918 7.59499H16.8418C16.8568 7.41499 16.8568 7.295 16.8568 7.19C16.8568 4.91 15.5368 3.08 13.2418 3.08C11.0968 3.08 9.5218 4.87999 9.5218 7.12999C9.5218 9.54499 11.2618 11.18 13.3918 11.18ZM10.6918 6.66499C10.8568 5.16499 11.8768 4.05499 13.2118 4.05499C14.7418 4.05499 15.5518 5.25499 15.6868 6.66499H10.6918Z" fill="#5DB9E0"/>
<path d="M21.3388 11.18C23.2588 11.18 24.4138 10.085 24.4138 8.84C24.4138 7.82 23.8288 7.23499 22.9738 6.93499C23.6338 6.665 24.2188 6.10999 24.2188 5.14999C24.2188 3.94999 23.1538 3.08 21.4138 3.08C20.2738 3.08 19.2238 3.42499 18.4138 4.05499L18.9838 4.865C19.6588 4.325 20.5738 4.085 21.3388 4.085C22.2988 4.085 23.0188 4.51999 23.0188 5.24C23.0188 6.04999 22.3138 6.57499 21.2938 6.57499H20.2438V7.52H21.2788C22.5388 7.52 23.2288 8.015 23.2288 8.795C23.2288 9.69499 22.3138 10.175 21.3088 10.175C20.3787 10.175 19.4938 9.83 18.7138 9.17L18.1288 10.025C19.0738 10.79 20.1088 11.18 21.3388 11.18Z" fill="#5DB9E0"/>
<path d="M30.0945 11.18C32.4345 11.18 34.1595 9.31999 34.1595 7.12999C34.1595 4.90999 32.4495 3.08 30.1245 3.08C27.7845 3.08 26.0745 4.93999 26.0745 7.12999C26.0745 9.34999 27.7695 11.18 30.0945 11.18ZM30.1245 10.145C28.4895 10.145 27.2595 8.79499 27.2595 7.12999C27.2595 5.46499 28.4145 4.09999 30.0945 4.09999C31.7295 4.09999 32.9745 5.46499 32.9745 7.12999C32.9745 8.79499 31.8045 10.145 30.1245 10.145Z" fill="#5DB9E0"/>
<path d="M36.2518 11H37.4068V4.26499H41.8168V11H42.9718V3.245H36.2518V11Z" fill="#5DB9E0"/>
<path d="M47.8636 11.165C49.2286 11.165 50.1136 10.535 50.6536 9.84499V11H51.7936V6.26C51.7936 5.27 51.5236 4.51999 50.9836 3.97999C50.4286 3.425 49.5736 3.12499 48.4786 3.12499C47.3386 3.12499 46.5136 3.395 45.6586 3.785L46.0036 4.72999C46.7236 4.39999 47.4436 4.175 48.3586 4.175C49.8136 4.175 50.6536 4.895 50.6536 6.27499V6.51499C49.9636 6.31999 49.2736 6.18499 48.2836 6.18499C46.3186 6.18499 44.9686 7.05499 44.9686 8.71999C44.9686 10.34 46.4086 11.165 47.8636 11.165ZM48.0886 10.235C47.0386 10.235 46.1386 9.665 46.1386 8.69C46.1386 7.73 46.9636 7.1 48.4036 7.1C49.3486 7.1 50.0986 7.265 50.6686 7.43V8.14999C50.6686 9.38 49.5136 10.235 48.0886 10.235Z" fill="#5DB9E0"/>
<path d="M57.7351 11.18C59.1901 11.18 60.1201 10.55 60.9001 9.68L60.1351 8.975C59.5201 9.635 58.7851 10.145 57.7951 10.145C56.1751 10.145 54.9451 8.80999 54.9451 7.12999C54.9451 5.43499 56.1451 4.09999 57.7201 4.09999C58.7701 4.09999 59.4901 4.59499 60.1051 5.24L60.8401 4.46C60.1201 3.695 59.2051 3.08 57.7351 3.08C55.4701 3.08 53.7601 4.93999 53.7601 7.12999C53.7601 9.33499 55.4701 11.18 57.7351 11.18Z" fill="#5DB9E0"/>
<path d="M62.8094 11H63.9644V7.61H68.4344V11H69.5894V3.245H68.4344V6.59H63.9644V3.245H62.8094V11Z" fill="#5DB9E0"/>
<path d="M75.7098 11.18C78.0498 11.18 79.7748 9.31999 79.7748 7.12999C79.7748 4.90999 78.0648 3.08 75.7398 3.08C73.3998 3.08 71.6898 4.93999 71.6898 7.12999C71.6898 9.34999 73.3848 11.18 75.7098 11.18ZM75.7398 10.145C74.1048 10.145 72.8748 8.79499 72.8748 7.12999C72.8748 5.46499 74.0298 4.09999 75.7098 4.09999C77.3448 4.09999 78.5898 5.46499 78.5898 7.12999C78.5898 8.79499 77.4198 10.145 75.7398 10.145Z" fill="#5DB9E0"/>
<path d="M85.362 11.18C86.817 11.18 87.747 10.55 88.527 9.68L87.762 8.975C87.147 9.635 86.412 10.145 85.422 10.145C83.802 10.145 82.572 8.80999 82.572 7.12999C82.572 5.43499 83.772 4.09999 85.347 4.09999C86.397 4.09999 87.117 4.59499 87.732 5.24L88.467 4.46C87.747 3.695 86.832 3.08 85.362 3.08C83.097 3.08 81.387 4.93999 81.387 7.12999C81.387 9.33499 83.097 11.18 85.362 11.18Z" fill="#5DB9E0"/>
<path d="M92.3114 11H93.4814V4.26499H96.2564V3.245H89.5364V4.26499H92.3114V11Z" fill="#5DB9E0"/>
<path d="M97.9364 11H101.296C103.066 11 104.221 10.025 104.221 8.47999C104.221 6.84499 102.841 6.155 101.161 6.155H99.0914V3.245H97.9364V11ZM99.0914 9.97999V7.145H101.146C102.331 7.145 103.051 7.61 103.051 8.51C103.051 9.485 102.346 9.97999 101.191 9.97999H99.0914Z" fill="#5DB9E0"/>
<path d="M110.505 11H114.39C116.1 11 117.21 10.19 117.21 8.885C117.21 7.79 116.43 7.22 115.5 6.965C116.145 6.695 116.79 6.2 116.79 5.18C116.79 4.01 115.8 3.245 114.255 3.245H110.505V11ZM111.66 10.01V7.50499H114.09C115.35 7.50499 116.025 7.955 116.025 8.705C116.025 9.515 115.35 10.01 114.24 10.01H111.66ZM111.66 6.57499V4.23499H114.075C115.08 4.23499 115.62 4.68499 115.62 5.33C115.62 6.14 114.975 6.57499 114.045 6.57499H111.66Z" fill="#5DB9E0"/>
<path d="M127.286 11.18C128.741 11.18 129.671 10.55 130.451 9.68L129.686 8.975C129.071 9.635 128.336 10.145 127.346 10.145C125.726 10.145 124.496 8.80999 124.496 7.12999C124.496 5.43499 125.696 4.09999 127.271 4.09999C128.321 4.09999 129.041 4.59499 129.656 5.24L130.391 4.46C129.671 3.695 128.756 3.08 127.286 3.08C125.021 3.08 123.311 4.93999 123.311 7.12999C123.311 9.33499 125.021 11.18 127.286 11.18Z" fill="#5DB9E0"/>
<path d="M135.75 11.18C137.22 11.18 138.165 10.595 138.945 9.725L138.225 9.08C137.595 9.74 136.845 10.175 135.78 10.175C134.415 10.175 133.215 9.22999 133.05 7.59499H139.2C139.215 7.41499 139.215 7.295 139.215 7.19C139.215 4.91 137.895 3.08 135.6 3.08C133.455 3.08 131.88 4.87999 131.88 7.12999C131.88 9.54499 133.62 11.18 135.75 11.18ZM133.05 6.66499C133.215 5.16499 134.235 4.05499 135.57 4.05499C137.1 4.05499 137.91 5.25499 138.045 6.66499H133.05Z" fill="#5DB9E0"/>
<path d="M143.112 11H144.282V4.26499H147.057V3.245H140.337V4.26499H143.112V11Z" fill="#5DB9E0"/>
<path d="M148.737 11H149.847L154.467 4.865V11H155.622V3.245H154.497L149.892 9.37999V3.245H148.737V11Z" fill="#5DB9E0"/>
</svg>
