<svg width="456" height="460" viewBox="0 0 456 460" fill="none" xmlns="http://www.w3.org/2000/svg">
<path d="M384.739 18.0986C419.471 39.7948 440.162 84.0182 449.307 126.764C458.452 169.51 456.05 210.779 454.572 255.464C453.094 300.149 452.633 348.158 430.833 383.334C409.033 418.509 365.988 440.944 321.003 452.115C275.925 463.287 229 463.287 189.188 447.591C149.376 431.896 116.769 400.414 83.3301 366.9C49.7991 333.386 15.3445 297.841 4.16747 255.649C-7.00952 213.457 5.09118 164.617 30.9553 127.965C56.8194 91.3118 96.4469 66.8458 135.705 47.1808C174.871 27.5157 213.667 12.7438 257.451 4.98854C301.235 -2.7667 350.007 -3.59762 384.739 18.0986Z" fill="#00AEEF"/>
</svg>
