<svg width="264" height="232" viewBox="0 0 264 232" fill="none" xmlns="http://www.w3.org/2000/svg">
<path d="M62.0592 201.855C32.8506 179.609 10.1381 149.051 2.68155 113.907C-4.70514 78.8162 3.1641 39.1406 26.3487 20.3143C49.4725 1.49695 87.9115 3.52904 122.18 2.15846C156.45 0.787766 186.548 -3.98571 213.239 7.45135C239.867 18.8974 263.148 46.545 263.977 74.2523C264.806 101.96 243.251 129.779 222.585 159.415C201.979 189.041 182.22 220.616 154.571 229.36C126.86 238.115 91.2066 224.11 62.0592 201.855Z" fill="#FFC20E"/>
<path d="M73.716 187.923C49.3755 169.416 30.4484 143.995 24.2346 114.759C18.0791 85.5669 24.6368 52.5609 43.9573 36.8994C63.227 21.2453 95.2596 22.9358 123.817 21.7956C152.375 20.6553 177.457 16.6843 199.699 26.1987C221.889 35.7207 241.29 58.7206 241.981 81.7702C242.671 104.82 224.709 127.963 207.487 152.617C190.316 177.263 173.85 203.529 150.809 210.804C127.716 218.087 98.0055 206.437 73.716 187.923Z" fill="white"/>
<path d="M108.973 162.468C108.853 162.468 108.757 162.408 108.685 162.288C108.613 162.168 108.577 161.994 108.577 161.766L108.559 159.102C108.547 158.874 108.541 158.496 108.541 157.968C108.517 156.852 108.505 155.592 108.505 154.188V153.27C108.397 153.846 108.211 154.656 107.947 155.7C107.683 156.78 107.497 157.668 107.389 158.364V158.472L107.335 158.814C107.311 159.078 107.251 159.348 107.155 159.624C107.035 159.912 106.849 160.056 106.597 160.056C106.165 160.056 105.949 159.492 105.949 158.364C105.949 157.74 105.883 157.074 105.751 156.366C105.631 155.646 105.433 154.764 105.157 153.72L104.617 151.704L104.581 153.864C104.581 154.512 104.611 155.748 104.671 157.572L104.707 158.796L104.743 161.262C104.743 161.514 104.653 161.742 104.473 161.946C104.173 161.946 103.963 161.856 103.843 161.676C103.735 161.484 103.681 161.208 103.681 160.848L103.717 159.372C103.753 158.724 103.771 158.238 103.771 157.914L103.735 154.44L103.699 150.948C103.699 150.432 103.711 149.658 103.735 148.626L104.221 148.338C104.317 148.35 104.413 148.422 104.509 148.554C104.605 148.674 104.713 148.872 104.833 149.148C105.133 149.892 105.523 151.38 106.003 153.612C106.075 153.924 106.123 154.182 106.147 154.386C106.291 155.082 106.393 155.61 106.453 155.97L106.723 157.356L106.849 156.762L107.191 155.286C107.383 154.422 107.539 153.666 107.659 153.018C107.791 152.37 107.917 151.668 108.037 150.912C108.169 150.012 108.253 149.262 108.289 148.662V148.554C108.313 148.398 108.385 148.278 108.505 148.194C108.625 148.098 108.769 148.05 108.937 148.05C109.045 148.05 109.141 148.098 109.225 148.194C109.309 148.29 109.351 148.392 109.351 148.5C109.351 149.94 109.405 152.094 109.513 154.962C109.573 156.366 109.615 157.74 109.639 159.084C109.663 159.696 109.675 160.47 109.675 161.406C109.675 161.682 109.603 161.928 109.459 162.144C109.315 162.36 109.153 162.468 108.973 162.468ZM114.069 162.342C113.757 162.342 113.469 162.24 113.205 162.036C112.941 161.844 112.725 161.58 112.557 161.244C112.209 160.512 111.993 159.714 111.909 158.85C111.801 158.034 111.747 157.248 111.747 156.492C111.747 156.348 111.753 156.228 111.765 156.132V155.808C111.765 155.748 111.759 155.718 111.747 155.718V155.394L111.765 154.134C111.777 153.75 111.825 153.138 111.909 152.298C111.969 151.722 112.107 151.164 112.323 150.624C112.407 150.384 112.515 150.204 112.647 150.084C112.779 149.952 112.929 149.886 113.097 149.886C113.577 149.886 114.009 149.976 114.393 150.156C114.777 150.324 115.101 150.564 115.365 150.876C115.605 151.176 115.809 151.548 115.977 151.992C116.145 152.424 116.265 152.886 116.337 153.378C116.409 153.882 116.445 154.416 116.445 154.98V155.124C116.445 155.496 116.451 155.832 116.463 156.132L116.481 157.158C116.481 160.614 115.677 162.342 114.069 162.342ZM113.997 161.586C114.213 161.586 114.411 161.502 114.591 161.334C114.771 161.154 114.909 160.914 115.005 160.614C115.233 160.002 115.371 159.342 115.419 158.634C115.479 158.022 115.509 157.494 115.509 157.05C115.509 156.51 115.467 155.802 115.383 154.926C115.311 154.002 115.275 153.312 115.275 152.856V152.532C115.251 152.076 115.095 151.68 114.807 151.344C114.531 151.008 114.189 150.84 113.781 150.84C113.373 150.84 113.103 151.074 112.971 151.542C112.851 151.914 112.791 152.394 112.791 152.982C112.791 153.21 112.797 153.402 112.809 153.558V154.044L112.773 154.872C112.749 155.124 112.737 155.4 112.737 155.7C112.737 156.348 112.755 156.99 112.791 157.626C112.839 158.526 112.959 159.402 113.151 160.254C113.343 161.142 113.625 161.586 113.997 161.586ZM117.603 162.396C117.507 162.396 117.423 162.366 117.351 162.306C117.279 162.246 117.225 162.168 117.189 162.072C117.177 162.048 117.171 162.012 117.171 161.964C117.171 161.808 117.255 161.682 117.423 161.586C117.759 161.442 118.011 161.226 118.179 160.938C118.359 160.638 118.485 160.29 118.557 159.894C118.773 158.718 118.881 157.44 118.881 156.06C118.881 155.544 118.875 155.154 118.863 154.89C118.779 152.862 118.707 151.434 118.647 150.606V150.534C118.647 150.426 118.671 150.342 118.719 150.282C118.767 150.222 118.851 150.18 118.971 150.156C119.739 150.012 120.351 149.94 120.807 149.94C121.047 149.94 121.227 149.946 121.347 149.958C121.623 149.97 121.833 150.054 121.977 150.21C122.121 150.366 122.193 150.582 122.193 150.858L122.211 151.812C122.235 152.652 122.247 153.282 122.247 153.702L122.229 154.566C122.229 155.838 122.277 157.446 122.373 159.39C122.421 160.266 122.463 160.944 122.499 161.424C122.511 161.64 122.475 161.796 122.391 161.892C122.319 161.988 122.193 162.048 122.013 162.072C121.617 162.096 121.407 161.91 121.383 161.514C121.419 161.166 121.437 160.818 121.437 160.47C121.437 160.122 121.431 159.834 121.419 159.606L121.401 157.554C121.401 156.558 121.383 155.538 121.347 154.494C121.323 153.63 121.287 152.814 121.239 152.046C121.191 151.278 121.143 150.81 121.095 150.642C121.023 150.654 120.873 150.684 120.645 150.732C120.417 150.78 120.105 150.822 119.709 150.858C119.673 151.41 119.655 151.806 119.655 152.046C119.655 152.322 119.673 152.562 119.709 152.766C119.733 153.09 119.757 153.564 119.781 154.188V154.584C119.781 156.528 119.763 157.842 119.727 158.526C119.703 158.718 119.691 158.868 119.691 158.976C119.643 159.48 119.595 159.864 119.547 160.128C119.427 160.764 119.061 161.412 118.449 162.072C118.281 162.264 118.011 162.372 117.639 162.396H117.603ZM126.884 162.342C126.572 162.342 126.284 162.24 126.02 162.036C125.756 161.844 125.54 161.58 125.372 161.244C125.024 160.512 124.808 159.714 124.724 158.85C124.616 158.034 124.562 157.248 124.562 156.492C124.562 156.348 124.568 156.228 124.58 156.132V155.808C124.58 155.748 124.574 155.718 124.562 155.718V155.394L124.58 154.134C124.592 153.75 124.64 153.138 124.724 152.298C124.784 151.722 124.922 151.164 125.138 150.624C125.222 150.384 125.33 150.204 125.462 150.084C125.594 149.952 125.744 149.886 125.912 149.886C126.392 149.886 126.824 149.976 127.208 150.156C127.592 150.324 127.916 150.564 128.18 150.876C128.42 151.176 128.624 151.548 128.792 151.992C128.96 152.424 129.08 152.886 129.152 153.378C129.224 153.882 129.26 154.416 129.26 154.98V155.124C129.26 155.496 129.266 155.832 129.278 156.132L129.296 157.158C129.296 160.614 128.492 162.342 126.884 162.342ZM126.812 161.586C127.028 161.586 127.226 161.502 127.406 161.334C127.586 161.154 127.724 160.914 127.82 160.614C128.048 160.002 128.186 159.342 128.234 158.634C128.294 158.022 128.324 157.494 128.324 157.05C128.324 156.51 128.282 155.802 128.198 154.926C128.126 154.002 128.09 153.312 128.09 152.856V152.532C128.066 152.076 127.91 151.68 127.622 151.344C127.346 151.008 127.004 150.84 126.596 150.84C126.188 150.84 125.918 151.074 125.786 151.542C125.666 151.914 125.606 152.394 125.606 152.982C125.606 153.21 125.612 153.402 125.624 153.558V154.044L125.588 154.872C125.564 155.124 125.552 155.4 125.552 155.7C125.552 156.348 125.57 156.99 125.606 157.626C125.654 158.526 125.774 159.402 125.966 160.254C126.158 161.142 126.44 161.586 126.812 161.586ZM137.541 164.214C137.445 164.238 137.373 164.25 137.325 164.25C137.181 164.25 137.079 164.16 137.019 163.98C136.971 163.836 136.947 163.656 136.947 163.44L136.965 162.198C136.965 162.126 136.959 162.06 136.947 162C136.935 161.94 136.923 161.88 136.911 161.82H134.841C134.961 161.82 134.673 161.88 133.977 162C133.293 162.108 132.759 162.18 132.375 162.216L131.565 162.288L130.665 162.378C130.665 162.486 130.665 162.618 130.665 162.774C130.677 162.93 130.677 163.116 130.665 163.332V163.422C130.665 163.614 130.617 163.758 130.521 163.854C130.425 163.95 130.335 163.998 130.251 163.998C130.203 163.998 130.131 163.974 130.035 163.926C129.819 163.77 129.699 163.554 129.675 163.278L129.621 161.964C129.597 161.496 129.789 161.262 130.197 161.262C130.425 161.25 130.605 161.19 130.737 161.082C130.869 160.974 131.025 160.806 131.205 160.578C131.385 160.338 131.523 160.074 131.619 159.786C131.727 159.486 131.829 159.126 131.925 158.706C132.033 158.25 132.111 157.806 132.159 157.374C132.207 156.942 132.267 156.324 132.339 155.52C132.447 154.26 132.501 152.994 132.501 151.722L132.483 150.714C132.483 150.486 132.549 150.3 132.681 150.156C132.813 150 132.993 149.922 133.221 149.922C133.293 149.922 133.347 149.928 133.383 149.94C133.935 150.036 134.385 150.096 134.733 150.12H134.823C134.979 150.12 135.069 150.09 135.093 150.03C135.201 149.886 135.333 149.814 135.489 149.814C135.597 149.814 135.693 149.838 135.777 149.886C135.969 149.958 136.095 150.138 136.155 150.426L136.065 153.504C136.065 155.172 136.071 156.42 136.083 157.248C136.083 157.68 136.095 158.34 136.119 159.228L136.137 160.218C136.137 160.314 136.143 160.404 136.155 160.488C136.167 160.572 136.179 160.656 136.191 160.74C136.431 160.764 136.611 160.776 136.731 160.776C136.827 160.776 136.899 160.77 136.947 160.758C137.211 160.722 137.445 160.788 137.649 160.956C137.865 161.112 137.973 161.316 137.973 161.568C137.973 161.892 137.949 162.378 137.901 163.026C137.901 163.194 137.889 163.434 137.865 163.746C137.841 163.998 137.733 164.154 137.541 164.214ZM132.357 161.352C133.029 161.292 133.557 161.238 133.941 161.19C134.337 161.13 134.727 161.04 135.111 160.92C135.231 159.468 135.291 157.914 135.291 156.258C135.291 154.722 135.231 153.036 135.111 151.2C134.799 151.188 134.217 151.158 133.365 151.11L133.347 151.956C133.251 153.804 133.185 155.184 133.149 156.096C133.101 157.464 132.867 158.808 132.447 160.128C132.423 160.2 132.369 160.38 132.285 160.668C132.213 160.944 132.099 161.184 131.943 161.388L132.357 161.352ZM139.897 162.234C139.741 162.234 139.597 162.18 139.465 162.072C139.345 161.964 139.279 161.832 139.267 161.676V161.208V160.848C139.255 160.74 139.249 160.614 139.249 160.47C139.249 160.218 139.231 159.834 139.195 159.318L139.159 158.166C139.159 157.578 139.177 156.702 139.213 155.538C139.261 154.494 139.285 153.618 139.285 152.91C139.285 152.742 139.267 152.49 139.231 152.154C139.195 151.806 139.177 151.554 139.177 151.398C139.177 150.546 139.429 150.12 139.933 150.12C140.329 150.12 140.785 150.198 141.301 150.354C141.829 150.51 142.093 150.696 142.093 150.912C142.093 151.032 142.039 151.146 141.931 151.254C141.835 151.35 141.715 151.428 141.571 151.488C141.067 151.308 140.611 151.188 140.203 151.128C140.215 151.308 140.221 151.566 140.221 151.902C140.221 152.382 140.215 152.814 140.203 153.198C140.167 153.774 140.149 154.206 140.149 154.494L140.203 154.782L140.491 154.764C140.587 154.752 140.707 154.746 140.851 154.746C141.427 154.746 141.715 154.914 141.715 155.25C141.715 155.382 141.661 155.496 141.553 155.592C141.445 155.676 141.307 155.718 141.139 155.718C140.923 155.718 140.755 155.706 140.635 155.682H140.185C140.209 155.994 140.221 156.45 140.221 157.05C140.221 157.65 140.215 158.19 140.203 158.67C140.167 159.402 140.149 159.948 140.149 160.308C140.149 160.98 140.161 161.316 140.185 161.316L140.779 161.298C140.983 161.286 141.229 161.28 141.517 161.28C141.973 161.28 142.201 161.424 142.201 161.712C142.201 161.88 142.123 162.006 141.967 162.09C141.823 162.186 141.643 162.234 141.427 162.234H139.897ZM144.598 162.27C144.106 162.27 143.782 162.03 143.626 161.55C143.566 161.394 143.536 161.208 143.536 160.992C143.536 160.824 143.554 160.632 143.59 160.416C143.626 160.2 143.65 160.056 143.662 159.984C143.674 159.888 143.716 159.81 143.788 159.75C143.872 159.69 143.968 159.654 144.076 159.642C144.184 159.642 144.286 159.678 144.382 159.75C144.478 159.822 144.544 159.906 144.58 160.002C144.604 160.122 144.616 160.434 144.616 160.938C144.676 160.974 144.736 160.986 144.796 160.974C144.832 160.878 144.874 160.764 144.922 160.632C144.982 160.488 145.024 160.368 145.048 160.272C145.288 159.168 145.456 158.334 145.552 157.77C145.624 157.398 145.732 157.074 145.876 156.798C146.032 156.522 146.26 156.276 146.56 156.06C146.356 155.796 146.2 155.436 146.092 154.98C145.984 154.512 145.93 154.05 145.93 153.594V152.676C145.93 152.256 145.924 151.944 145.912 151.74C145.912 151.596 145.864 151.41 145.768 151.182C145.684 150.954 145.6 150.84 145.516 150.84C145.408 150.864 145.306 150.93 145.21 151.038C145.15 151.182 145.114 151.362 145.102 151.578C145.09 151.782 145.084 151.908 145.084 151.956C145.048 152.292 144.868 152.442 144.544 152.406C144.424 152.394 144.316 152.334 144.22 152.226C144.124 152.106 144.076 151.974 144.076 151.83C144.076 151.578 144.154 151.314 144.31 151.038C144.466 150.762 144.652 150.534 144.868 150.354C145.096 150.174 145.312 150.084 145.516 150.084C145.672 150.084 145.834 150.138 146.002 150.246C146.182 150.342 146.332 150.468 146.452 150.624C146.68 150.948 146.794 151.464 146.794 152.172C146.794 152.376 146.782 152.682 146.758 153.09L146.74 153.45C146.74 153.882 146.77 154.326 146.83 154.782C146.902 155.226 147.016 155.568 147.172 155.808C147.184 155.82 147.214 155.826 147.262 155.826C147.322 155.826 147.37 155.832 147.406 155.844V155.754C147.406 154.818 147.394 153.63 147.37 152.19C147.37 152.046 147.382 151.83 147.406 151.542L147.424 150.93C147.424 150.75 147.418 150.612 147.406 150.516C147.394 150.48 147.388 150.432 147.388 150.372C147.388 150.096 147.538 149.928 147.838 149.868C147.934 149.844 148.048 149.886 148.18 149.994C148.324 150.09 148.42 150.21 148.468 150.354C148.504 150.462 148.522 150.582 148.522 150.714C148.522 150.798 148.516 150.858 148.504 150.894C148.336 151.71 148.252 152.478 148.252 153.198V155.934C148.42 155.994 148.564 156.036 148.684 156.06C148.948 156.096 149.104 155.928 149.152 155.556C149.188 155.4 149.23 155.1 149.278 154.656C149.29 154.584 149.296 154.518 149.296 154.458C149.296 154.398 149.302 154.338 149.314 154.278L149.404 153.522C149.44 153.102 149.494 152.688 149.566 152.28C149.71 151.548 150.004 150.948 150.448 150.48C150.628 150.3 150.844 150.21 151.096 150.21C151.288 150.21 151.468 150.264 151.636 150.372C151.816 150.468 151.948 150.606 152.032 150.786C152.14 151.026 152.212 151.272 152.248 151.524C152.296 151.764 152.332 152.076 152.356 152.46C152.368 152.604 152.332 152.706 152.248 152.766C152.164 152.814 152.026 152.874 151.834 152.946C151.666 152.898 151.534 152.808 151.438 152.676C151.354 152.544 151.324 152.376 151.348 152.172C151.384 151.836 151.282 151.518 151.042 151.218C150.85 151.386 150.706 151.572 150.61 151.776C150.514 151.968 150.442 152.226 150.394 152.55C150.346 152.874 150.304 153.096 150.268 153.216C150.172 153.672 150.124 154.02 150.124 154.26C150.124 154.5 150.088 154.8 150.016 155.16C149.944 155.52 149.86 155.814 149.764 156.042C149.728 156.114 149.71 156.18 149.71 156.24C149.71 156.348 149.758 156.45 149.854 156.546C150.022 156.726 150.148 157.02 150.232 157.428C150.268 157.62 150.286 157.86 150.286 158.148L150.268 158.85C150.244 159.21 150.232 159.48 150.232 159.66C150.232 159.876 150.274 160.08 150.358 160.272C150.454 160.452 150.592 160.674 150.772 160.938C150.82 161.01 150.892 161.046 150.988 161.046C151.12 161.046 151.234 160.98 151.33 160.848C151.462 160.548 151.546 160.296 151.582 160.092C151.618 159.888 151.642 159.756 151.654 159.696C151.69 159.396 151.834 159.246 152.086 159.246C152.17 159.246 152.236 159.252 152.284 159.264L152.518 159.354C152.566 159.534 152.59 159.732 152.59 159.948C152.59 160.488 152.392 161.046 151.996 161.622C151.9 161.766 151.762 161.88 151.582 161.964C151.414 162.048 151.222 162.09 151.006 162.09C150.778 162.09 150.58 162.042 150.412 161.946C150.244 161.838 150.112 161.7 150.016 161.532C149.86 161.22 149.74 160.932 149.656 160.668C149.572 160.404 149.53 160.128 149.53 159.84C149.53 159.48 149.518 159.084 149.494 158.652C149.47 158.22 149.452 157.92 149.44 157.752L149.404 157.266C149.404 157.074 149.332 156.942 149.188 156.87C149.056 156.786 148.894 156.726 148.702 156.69C148.51 156.642 148.36 156.606 148.252 156.582C148.228 156.99 148.216 157.29 148.216 157.482C148.216 157.71 148.204 158.04 148.18 158.472C148.156 159.12 148.15 159.6 148.162 159.912C148.174 160.068 148.198 160.242 148.234 160.434C148.27 160.626 148.294 160.758 148.306 160.83C148.354 160.998 148.384 161.124 148.396 161.208C148.42 161.304 148.432 161.382 148.432 161.442C148.432 161.61 148.384 161.748 148.288 161.856C148.192 161.952 148.048 162.006 147.856 162.018C147.7 162.03 147.598 162 147.55 161.928C147.502 161.844 147.472 161.712 147.46 161.532L147.478 160.686C147.478 160.326 147.466 159.774 147.442 159.03C147.418 158.55 147.406 158.184 147.406 157.932V156.474C147.274 156.462 147.166 156.492 147.082 156.564C147.01 156.636 146.938 156.732 146.866 156.852C146.686 157.128 146.554 157.422 146.47 157.734C146.386 158.046 146.302 158.448 146.218 158.94L146.146 159.354C146.002 160.218 145.798 160.962 145.534 161.586C145.45 161.802 145.324 161.97 145.156 162.09C144.988 162.21 144.802 162.27 144.598 162.27ZM154.511 161.928C154.271 161.916 154.133 161.79 154.097 161.55L154.151 157.05V155.664V153C154.151 151.824 154.157 150.942 154.169 150.354C154.169 150.282 154.205 150.216 154.277 150.156C154.361 150.096 154.463 150.066 154.583 150.066C154.679 150.066 154.775 150.096 154.871 150.156C154.967 150.216 155.039 150.294 155.087 150.39C155.195 150.582 155.249 150.864 155.249 151.236C155.249 151.5 155.207 151.914 155.123 152.478C155.087 152.73 155.063 153.006 155.051 153.306C155.039 153.606 155.033 153.804 155.033 153.9C155.009 154.068 154.979 154.338 154.943 154.71C154.919 155.082 154.919 155.262 154.943 155.25C155.123 155.226 155.345 155.268 155.609 155.376C155.813 155.448 155.933 155.484 155.969 155.484C156.497 155.58 156.899 155.898 157.175 156.438C157.463 156.966 157.631 157.512 157.679 158.076C157.691 158.208 157.697 158.4 157.697 158.652C157.697 159.252 157.643 159.768 157.535 160.2C157.415 161.04 156.911 161.616 156.023 161.928C155.879 161.976 155.693 162 155.465 162C155.297 162 155.111 161.994 154.907 161.982C154.715 161.958 154.583 161.94 154.511 161.928ZM155.105 161.208C155.237 161.244 155.357 161.262 155.465 161.262C155.705 161.262 155.909 161.196 156.077 161.064C156.245 160.92 156.353 160.734 156.401 160.506C156.461 160.23 156.527 159.816 156.599 159.264C156.623 159 156.647 158.79 156.671 158.634C156.683 158.562 156.689 158.454 156.689 158.31C156.689 157.806 156.593 157.344 156.401 156.924C156.209 156.492 155.933 156.252 155.573 156.204C155.321 156.156 155.135 156.126 155.015 156.114L155.105 161.208ZM94.5663 191.342C94.2543 191.342 93.9663 191.24 93.7023 191.036C93.4383 190.844 93.2223 190.58 93.0543 190.244C92.7063 189.512 92.4903 188.714 92.4063 187.85C92.2983 187.034 92.2443 186.248 92.2443 185.492C92.2443 185.348 92.2503 185.228 92.2623 185.132V184.808C92.2623 184.748 92.2563 184.718 92.2443 184.718V184.394L92.2623 183.134C92.2743 182.75 92.3223 182.138 92.4063 181.298C92.4663 180.722 92.6043 180.164 92.8203 179.624C92.9043 179.384 93.0123 179.204 93.1443 179.084C93.2763 178.952 93.4263 178.886 93.5943 178.886C94.0743 178.886 94.5063 178.976 94.8903 179.156C95.2743 179.324 95.5983 179.564 95.8623 179.876C96.1023 180.176 96.3063 180.548 96.4743 180.992C96.6423 181.424 96.7623 181.886 96.8343 182.378C96.9063 182.882 96.9423 183.416 96.9423 183.98V184.124C96.9423 184.496 96.9483 184.832 96.9603 185.132L96.9783 186.158C96.9783 189.614 96.1743 191.342 94.5663 191.342ZM94.4943 190.586C94.7103 190.586 94.9083 190.502 95.0883 190.334C95.2683 190.154 95.4063 189.914 95.5023 189.614C95.7303 189.002 95.8683 188.342 95.9163 187.634C95.9763 187.022 96.0063 186.494 96.0063 186.05C96.0063 185.51 95.9643 184.802 95.8803 183.926C95.8083 183.002 95.7723 182.312 95.7723 181.856V181.532C95.7483 181.076 95.5923 180.68 95.3043 180.344C95.0283 180.008 94.6863 179.84 94.2783 179.84C93.8703 179.84 93.6003 180.074 93.4683 180.542C93.3483 180.914 93.2883 181.394 93.2883 181.982C93.2883 182.21 93.2943 182.402 93.3063 182.558V183.044L93.2703 183.872C93.2463 184.124 93.2343 184.4 93.2343 184.7C93.2343 185.348 93.2523 185.99 93.2883 186.626C93.3363 187.526 93.4563 188.402 93.6483 189.254C93.8403 190.142 94.1223 190.586 94.4943 190.586ZM99.9546 190.712L99.9366 190.01C99.9246 189.806 99.9186 189.578 99.9186 189.326L99.9366 188.714C99.9006 188.582 99.8106 187.268 99.6666 184.772C99.5226 182.276 99.4386 180.674 99.4146 179.966C98.7186 179.942 98.2746 179.87 98.0826 179.75C97.9506 179.654 97.8846 179.546 97.8846 179.426C97.8846 179.33 97.9446 179.246 98.0646 179.174C98.1966 179.09 98.3286 179.048 98.4606 179.048C98.7966 179.048 99.2046 179.072 99.6846 179.12C100.141 179.18 100.549 179.21 100.909 179.21H101.053H101.197C101.569 179.21 101.755 179.354 101.755 179.642C101.755 179.786 101.695 179.906 101.575 180.002C101.455 180.086 101.317 180.128 101.161 180.128C101.053 180.128 100.897 180.11 100.693 180.074L100.333 180.002L100.315 180.092L100.297 180.182C100.297 181.25 100.399 182.954 100.603 185.294C100.795 187.49 100.891 189.194 100.891 190.406C100.891 190.55 100.825 190.676 100.693 190.784C100.573 190.892 100.435 190.946 100.279 190.946L99.9546 190.712ZM107.631 191.072C107.427 191.072 107.283 191.042 107.199 190.982C107.115 190.922 107.073 190.79 107.073 190.586C107.073 190.454 107.103 190.364 107.163 190.316C107.223 190.268 107.349 190.244 107.541 190.244C107.805 190.244 107.937 190.142 107.937 189.938C107.937 188.75 107.847 186.998 107.667 184.682C107.487 182.354 107.397 180.626 107.397 179.498C107.397 179.39 107.403 179.288 107.415 179.192V178.85C107.415 178.286 107.211 178.004 106.803 178.004H106.605L106.389 178.022C106.041 178.022 105.867 177.89 105.867 177.626C105.867 177.314 106.353 177.158 107.325 177.158C107.841 177.158 108.147 177.26 108.243 177.464C108.171 177.788 108.135 178.04 108.135 178.22C108.135 178.544 108.183 179.09 108.279 179.858C108.363 180.542 108.405 181.094 108.405 181.514C108.405 182.366 108.471 183.782 108.603 185.762C108.735 187.514 108.801 188.942 108.801 190.046V190.154C108.849 190.154 108.915 190.148 108.999 190.136C109.083 190.124 109.167 190.118 109.251 190.118C109.299 190.106 109.371 190.1 109.467 190.1C109.971 190.1 110.223 190.25 110.223 190.55C110.223 190.898 109.539 191.072 108.171 191.072H107.883H107.631ZM113.455 191.72C113.191 191.72 112.957 191.636 112.753 191.468C112.561 191.3 112.411 191.078 112.303 190.802C112.123 190.322 112.033 189.806 112.033 189.254C112.033 188.534 112.171 187.526 112.447 186.23C112.723 184.958 112.861 184.022 112.861 183.422C112.861 183.098 112.801 182.72 112.681 182.288C112.561 181.856 112.417 181.436 112.249 181.028C112.081 180.608 111.937 180.176 111.817 179.732C111.697 179.276 111.637 178.868 111.637 178.508C111.637 178.04 111.745 177.65 111.961 177.338C112.177 177.026 112.483 176.87 112.879 176.87H113.257C113.641 177.122 113.899 177.35 114.031 177.554C114.127 177.698 114.199 177.824 114.247 177.932C114.295 178.028 114.325 178.166 114.337 178.346C114.361 178.586 114.373 178.958 114.373 179.462C114.373 179.846 114.361 180.146 114.337 180.362L114.283 180.776C114.271 180.944 114.223 181.238 114.139 181.658C114.091 181.874 114.067 182 114.067 182.036C114.055 182.096 114.019 182.264 113.959 182.54L113.851 183.008L113.743 183.422C114.163 184.382 114.505 185.468 114.769 186.68C115.033 187.892 115.165 188.984 115.165 189.956C115.165 190.004 115.171 190.046 115.183 190.082V190.208L115.165 190.388L115.147 190.46V190.478C114.787 191.306 114.223 191.72 113.455 191.72ZM113.185 182.144C113.449 181.244 113.581 180.35 113.581 179.462C113.581 179.15 113.533 178.778 113.437 178.346C113.353 177.902 113.251 177.68 113.131 177.68H112.753C112.585 177.872 112.501 178.172 112.501 178.58C112.501 178.952 112.573 179.522 112.717 180.29C112.873 181.046 113.029 181.664 113.185 182.144ZM113.473 190.946C113.773 190.946 113.989 190.844 114.121 190.64C114.265 190.424 114.337 190.136 114.337 189.776C114.337 188.996 114.259 188.204 114.103 187.4C113.947 186.584 113.701 185.588 113.365 184.412C113.197 184.964 113.071 185.696 112.987 186.608C112.903 187.508 112.861 188.414 112.861 189.326V189.344C112.861 189.656 112.939 189.968 113.095 190.28V190.37C113.107 190.514 113.149 190.646 113.221 190.766C113.293 190.886 113.377 190.946 113.473 190.946ZM127.442 193.214C127.346 193.238 127.274 193.25 127.226 193.25C127.082 193.25 126.98 193.16 126.92 192.98C126.872 192.836 126.848 192.656 126.848 192.44L126.866 191.198C126.866 191.126 126.86 191.06 126.848 191C126.836 190.94 126.824 190.88 126.812 190.82H124.742C124.862 190.82 124.574 190.88 123.878 191C123.194 191.108 122.66 191.18 122.276 191.216L121.466 191.288L120.566 191.378C120.566 191.486 120.566 191.618 120.566 191.774C120.578 191.93 120.578 192.116 120.566 192.332V192.422C120.566 192.614 120.518 192.758 120.422 192.854C120.326 192.95 120.236 192.998 120.152 192.998C120.104 192.998 120.032 192.974 119.936 192.926C119.72 192.77 119.6 192.554 119.576 192.278L119.522 190.964C119.498 190.496 119.69 190.262 120.098 190.262C120.326 190.25 120.506 190.19 120.638 190.082C120.77 189.974 120.926 189.806 121.106 189.578C121.286 189.338 121.424 189.074 121.52 188.786C121.628 188.486 121.73 188.126 121.826 187.706C121.934 187.25 122.012 186.806 122.06 186.374C122.108 185.942 122.168 185.324 122.24 184.52C122.348 183.26 122.402 181.994 122.402 180.722L122.384 179.714C122.384 179.486 122.45 179.3 122.582 179.156C122.714 179 122.894 178.922 123.122 178.922C123.194 178.922 123.248 178.928 123.284 178.94C123.836 179.036 124.286 179.096 124.634 179.12H124.724C124.88 179.12 124.97 179.09 124.994 179.03C125.102 178.886 125.234 178.814 125.39 178.814C125.498 178.814 125.594 178.838 125.678 178.886C125.87 178.958 125.996 179.138 126.056 179.426L125.966 182.504C125.966 184.172 125.972 185.42 125.984 186.248C125.984 186.68 125.996 187.34 126.02 188.228L126.038 189.218C126.038 189.314 126.044 189.404 126.056 189.488C126.068 189.572 126.08 189.656 126.092 189.74C126.332 189.764 126.512 189.776 126.632 189.776C126.728 189.776 126.8 189.77 126.848 189.758C127.112 189.722 127.346 189.788 127.55 189.956C127.766 190.112 127.874 190.316 127.874 190.568C127.874 190.892 127.85 191.378 127.802 192.026C127.802 192.194 127.79 192.434 127.766 192.746C127.742 192.998 127.634 193.154 127.442 193.214ZM122.258 190.352C122.93 190.292 123.458 190.238 123.842 190.19C124.238 190.13 124.628 190.04 125.012 189.92C125.132 188.468 125.192 186.914 125.192 185.258C125.192 183.722 125.132 182.036 125.012 180.2C124.7 180.188 124.118 180.158 123.266 180.11L123.248 180.956C123.152 182.804 123.086 184.184 123.05 185.096C123.002 186.464 122.768 187.808 122.348 189.128C122.324 189.2 122.27 189.38 122.186 189.668C122.114 189.944 122 190.184 121.844 190.388L122.258 190.352ZM130.9 191.342C130.588 191.342 130.3 191.24 130.036 191.036C129.772 190.844 129.556 190.58 129.388 190.244C129.04 189.512 128.824 188.714 128.74 187.85C128.632 187.034 128.578 186.248 128.578 185.492C128.578 185.348 128.584 185.228 128.596 185.132V184.808C128.596 184.748 128.59 184.718 128.578 184.718V184.394L128.596 183.134C128.608 182.75 128.656 182.138 128.74 181.298C128.8 180.722 128.938 180.164 129.154 179.624C129.238 179.384 129.346 179.204 129.478 179.084C129.61 178.952 129.76 178.886 129.928 178.886C130.408 178.886 130.84 178.976 131.224 179.156C131.608 179.324 131.932 179.564 132.196 179.876C132.436 180.176 132.64 180.548 132.808 180.992C132.976 181.424 133.096 181.886 133.168 182.378C133.24 182.882 133.276 183.416 133.276 183.98V184.124C133.276 184.496 133.282 184.832 133.294 185.132L133.312 186.158C133.312 189.614 132.508 191.342 130.9 191.342ZM130.828 190.586C131.044 190.586 131.242 190.502 131.422 190.334C131.602 190.154 131.74 189.914 131.836 189.614C132.064 189.002 132.202 188.342 132.25 187.634C132.31 187.022 132.34 186.494 132.34 186.05C132.34 185.51 132.298 184.802 132.214 183.926C132.142 183.002 132.106 182.312 132.106 181.856V181.532C132.082 181.076 131.926 180.68 131.638 180.344C131.362 180.008 131.02 179.84 130.612 179.84C130.204 179.84 129.934 180.074 129.802 180.542C129.682 180.914 129.622 181.394 129.622 181.982C129.622 182.21 129.628 182.402 129.64 182.558V183.044L129.604 183.872C129.58 184.124 129.568 184.4 129.568 184.7C129.568 185.348 129.586 185.99 129.622 186.626C129.67 187.526 129.79 188.402 129.982 189.254C130.174 190.142 130.456 190.586 130.828 190.586ZM139 191.126C138.82 191.126 138.664 191.078 138.532 190.982C138.412 190.874 138.352 190.742 138.352 190.586V190.514C138.592 190.226 138.832 189.746 139.072 189.074C139.18 188.75 139.27 188.516 139.342 188.372C140.05 186.8 140.566 185.384 140.89 184.124C141.214 182.864 141.376 181.532 141.376 180.128C141.376 178.628 141.088 177.86 140.512 177.824C140.32 177.92 140.188 178.202 140.116 178.67C140.092 178.862 140.032 179.024 139.936 179.156C139.84 179.276 139.72 179.336 139.576 179.336C139.288 179.336 139.144 179.15 139.144 178.778C139.144 178.214 139.312 177.74 139.648 177.356C139.828 177.164 140.044 177.068 140.296 177.068V177.05C140.704 177.05 141.046 177.14 141.322 177.32C141.526 177.44 141.718 177.668 141.898 178.004C141.994 178.196 142.084 178.514 142.168 178.958C142.192 179.174 142.204 179.378 142.204 179.57C142.216 179.75 142.228 179.882 142.24 179.966V180.452C142.24 181.268 142.138 182.156 141.934 183.116C141.742 184.064 141.508 184.91 141.232 185.654C140.92 186.506 140.608 187.316 140.296 188.084C139.924 189.02 139.654 189.74 139.486 190.244C140.17 190.124 140.878 190.064 141.61 190.064C141.862 190.244 141.988 190.412 141.988 190.568C141.988 190.712 141.91 190.844 141.754 190.964C141.526 190.964 141.202 190.982 140.782 191.018L140.386 191.036C139.882 191.096 139.42 191.126 139 191.126ZM146.772 191.324C146.124 191.324 145.8 191.156 145.8 190.82C145.8 190.688 145.854 190.586 145.962 190.514C146.07 190.442 146.196 190.406 146.34 190.406C146.532 190.406 146.688 190.46 146.808 190.568C147.072 190.472 147.294 190.16 147.474 189.632C147.654 189.092 147.744 188.588 147.744 188.12C147.744 187.52 147.738 187.01 147.726 186.59C147.69 186.05 147.63 185.564 147.546 185.132C147.498 184.88 147.444 184.67 147.384 184.502C147.324 184.334 147.234 184.148 147.114 183.944C146.946 183.644 146.67 183.416 146.286 183.26C146.082 183.2 145.884 183.17 145.692 183.17C145.416 183.17 145.23 183.056 145.134 182.828C145.074 182.648 145.044 182.42 145.044 182.144C145.044 182.048 145.062 181.892 145.098 181.676L145.134 181.226C145.134 180.674 145.104 180.164 145.044 179.696L144.81 178.202L144.702 177.464L145.008 177.14H146.466C146.97 177.14 147.222 177.296 147.222 177.608V177.698L146.88 177.968H146.43V177.914H145.674C145.686 178.514 145.8 179.942 146.016 182.198L146.376 182.234C146.64 182.258 146.892 182.3 147.132 182.36C147.264 182.396 147.378 182.45 147.474 182.522C147.726 182.702 147.948 183.104 148.14 183.728C148.332 184.34 148.458 184.976 148.518 185.636C148.578 186.272 148.608 186.788 148.608 187.184C148.608 187.736 148.596 188.192 148.572 188.552C148.56 188.804 148.536 189.008 148.5 189.164C148.464 189.308 148.404 189.506 148.32 189.758C148.248 189.962 148.158 190.142 148.05 190.298C147.954 190.454 147.822 190.622 147.654 190.802C147.486 190.97 147.294 191.144 147.078 191.324H146.952H146.772ZM153.84 191.396C153.744 191.396 153.66 191.366 153.588 191.306C153.516 191.246 153.462 191.168 153.426 191.072C153.414 191.048 153.408 191.012 153.408 190.964C153.408 190.808 153.492 190.682 153.66 190.586C153.996 190.442 154.248 190.226 154.416 189.938C154.596 189.638 154.722 189.29 154.794 188.894C155.01 187.718 155.118 186.44 155.118 185.06C155.118 184.544 155.112 184.154 155.1 183.89C155.016 181.862 154.944 180.434 154.884 179.606V179.534C154.884 179.426 154.908 179.342 154.956 179.282C155.004 179.222 155.088 179.18 155.208 179.156C155.976 179.012 156.588 178.94 157.044 178.94C157.284 178.94 157.464 178.946 157.584 178.958C157.86 178.97 158.07 179.054 158.214 179.21C158.358 179.366 158.43 179.582 158.43 179.858L158.448 180.812C158.472 181.652 158.484 182.282 158.484 182.702L158.466 183.566C158.466 184.838 158.514 186.446 158.61 188.39C158.658 189.266 158.7 189.944 158.736 190.424C158.748 190.64 158.712 190.796 158.628 190.892C158.556 190.988 158.43 191.048 158.25 191.072C157.854 191.096 157.644 190.91 157.62 190.514C157.656 190.166 157.674 189.818 157.674 189.47C157.674 189.122 157.668 188.834 157.656 188.606L157.638 186.554C157.638 185.558 157.62 184.538 157.584 183.494C157.56 182.63 157.524 181.814 157.476 181.046C157.428 180.278 157.38 179.81 157.332 179.642C157.26 179.654 157.11 179.684 156.882 179.732C156.654 179.78 156.342 179.822 155.946 179.858C155.91 180.41 155.892 180.806 155.892 181.046C155.892 181.322 155.91 181.562 155.946 181.766C155.97 182.09 155.994 182.564 156.018 183.188V183.584C156.018 185.528 156 186.842 155.964 187.526C155.94 187.718 155.928 187.868 155.928 187.976C155.88 188.48 155.832 188.864 155.784 189.128C155.664 189.764 155.298 190.412 154.686 191.072C154.518 191.264 154.248 191.372 153.876 191.396H153.84ZM161.843 191.234C161.687 191.234 161.543 191.18 161.411 191.072C161.291 190.964 161.225 190.832 161.213 190.676V190.208V189.848C161.201 189.74 161.195 189.614 161.195 189.47C161.195 189.218 161.177 188.834 161.141 188.318L161.105 187.166C161.105 186.578 161.123 185.702 161.159 184.538C161.207 183.494 161.231 182.618 161.231 181.91C161.231 181.742 161.213 181.49 161.177 181.154C161.141 180.806 161.123 180.554 161.123 180.398C161.123 179.546 161.375 179.12 161.879 179.12C162.275 179.12 162.731 179.198 163.247 179.354C163.775 179.51 164.039 179.696 164.039 179.912C164.039 180.032 163.985 180.146 163.877 180.254C163.781 180.35 163.661 180.428 163.517 180.488C163.013 180.308 162.557 180.188 162.149 180.128C162.161 180.308 162.167 180.566 162.167 180.902C162.167 181.382 162.161 181.814 162.149 182.198C162.113 182.774 162.095 183.206 162.095 183.494L162.149 183.782L162.437 183.764C162.533 183.752 162.653 183.746 162.797 183.746C163.373 183.746 163.661 183.914 163.661 184.25C163.661 184.382 163.607 184.496 163.499 184.592C163.391 184.676 163.253 184.718 163.085 184.718C162.869 184.718 162.701 184.706 162.581 184.682H162.131C162.155 184.994 162.167 185.45 162.167 186.05C162.167 186.65 162.161 187.19 162.149 187.67C162.113 188.402 162.095 188.948 162.095 189.308C162.095 189.98 162.107 190.316 162.131 190.316L162.725 190.298C162.929 190.286 163.175 190.28 163.463 190.28C163.919 190.28 164.147 190.424 164.147 190.712C164.147 190.88 164.069 191.006 163.913 191.09C163.769 191.186 163.589 191.234 163.373 191.234H161.843ZM167.138 190.712L167.12 190.01C167.108 189.806 167.102 189.578 167.102 189.326L167.12 188.714C167.084 188.582 166.994 187.268 166.85 184.772C166.706 182.276 166.622 180.674 166.598 179.966C165.902 179.942 165.458 179.87 165.266 179.75C165.134 179.654 165.068 179.546 165.068 179.426C165.068 179.33 165.128 179.246 165.248 179.174C165.38 179.09 165.512 179.048 165.644 179.048C165.98 179.048 166.388 179.072 166.868 179.12C167.324 179.18 167.732 179.21 168.092 179.21H168.236H168.38C168.752 179.21 168.938 179.354 168.938 179.642C168.938 179.786 168.878 179.906 168.758 180.002C168.638 180.086 168.5 180.128 168.344 180.128C168.236 180.128 168.08 180.11 167.876 180.074L167.516 180.002L167.498 180.092L167.48 180.182C167.48 181.25 167.582 182.954 167.786 185.294C167.978 187.49 168.074 189.194 168.074 190.406C168.074 190.55 168.008 190.676 167.876 190.784C167.756 190.892 167.618 190.946 167.462 190.946L167.138 190.712Z" fill="black"/>
</svg>
