<svg width="264" height="232" viewBox="0 0 264 232" fill="none" xmlns="http://www.w3.org/2000/svg">
<path d="M217.93 40.8576C243.517 66.7674 261.495 99.8438 263.766 135.186C265.975 170.468 252.476 208.016 226.889 223.023C201.364 238.029 163.75 230.495 129.757 226.882C95.7645 223.268 65.3918 223.574 40.7254 208.567C16.1204 193.56 -2.83955 163.24 0.351128 136.105C3.5418 108.97 28.8217 84.9594 53.4881 59.0496C78.0931 33.1398 102.146 5.20864 130.678 0.675948C159.271 -3.85674 192.405 14.9478 217.93 40.8576Z" fill="#29D3B8"/>
<path d="M203.609 52.9893C224.931 74.5436 239.913 102.06 241.805 131.461C243.646 160.812 232.396 192.048 211.074 204.532C189.803 217.016 158.459 210.748 130.131 207.742C101.804 204.736 76.4931 204.99 55.9378 192.506C35.4337 180.022 19.6337 154.799 22.2926 132.226C24.9515 109.652 46.0181 89.6775 66.5734 68.1232C87.0776 46.5689 107.122 23.333 130.898 19.5623C154.726 15.7916 182.338 31.435 203.609 52.9893Z" fill="white"/>
<path d="M132.478 167.31C132.232 168.133 132.213 169 132.426 169.831C132.612 170.473 133.617 170.636 134.148 170.663C136.372 170.765 138.285 170.477 140.5 170.274C143.37 170.008 146.527 169.637 148.546 167.708C149.187 167.098 149.675 166.107 149.12 165.426C148.727 165.046 148.19 164.822 147.623 164.802C145.602 164.532 143.544 164.634 141.567 165.103C138.654 165.793 135.922 167.27 132.918 167.341L132.478 167.31Z" fill="#269D9A"/>
<path d="M143.963 164.579C142.949 164.579 140.04 164.776 139.979 164.435C138.458 156.052 137.416 147.492 135.985 139.09C135.958 138.763 135.849 138.449 135.668 138.178C135.442 137.933 135.148 137.766 134.825 137.698C134.043 137.482 133.22 137.466 132.43 137.649C131.641 137.832 130.907 138.21 130.296 138.749L129.263 140.862C129.292 147.617 131.504 163.84 131.869 167.748C131.94 168.487 132.816 168.679 133.233 168.674C137.212 168.617 141.026 168.093 144.602 166.226C144.953 166.043 145.341 165.746 145.341 165.366C145.318 164.776 144.546 164.589 143.963 164.579Z" fill="#FBCFAF"/>
<path d="M101.127 115.291C100.503 114.914 100.53 113.84 99.8921 113.497C99.4328 113.245 98.8542 113.56 98.4133 113.874C94.6153 116.601 91.4143 120.518 90.2937 125.214C90.0298 126.088 90.0028 127.023 90.2156 127.912C90.3311 128.353 90.5774 128.743 90.9187 129.026C91.26 129.309 91.6783 129.469 92.1123 129.484C92.6856 129.394 93.2176 129.117 93.6324 128.691C94.3152 128.068 94.9466 127.385 95.52 126.65C98.0474 123.485 99.9085 119.791 100.981 115.813" fill="#269D9A"/>
<path d="M118.129 135.237C117.511 131.866 114.356 129.772 111.775 127.654C108.503 124.958 105.697 121.703 103.478 118.03C103.294 117.727 103.101 117.414 102.898 117.105C102.318 116.019 101.69 114.953 101.011 113.92C100.95 113.797 100.866 113.688 100.763 113.599C100.66 113.511 100.54 113.445 100.412 113.407C100.232 113.397 100.053 113.443 99.8978 113.539C96.5252 115.207 94.9072 117.942 93.0912 121.323C92.6884 122.058 92.3627 122.835 92.1195 123.642C92.0627 123.904 92.0724 124.177 92.1476 124.435C92.2228 124.692 92.361 124.924 92.5487 125.11C92.7995 125.307 93.1024 125.419 93.4167 125.433C94.7799 125.545 95.9544 124.503 96.9214 123.476C97.0912 123.299 97.2516 123.118 97.3931 122.942L105.884 136.079C106.855 137.581 107.851 139.112 109.238 140.208C110.624 141.304 112.497 141.906 114.143 141.304C115.249 140.809 116.214 140.027 116.945 139.034C117.39 138.555 117.745 137.994 117.992 137.38C118.225 136.692 118.272 135.951 118.129 135.237Z" fill="#FBCFAF"/>
<path d="M115.17 42.0063C113.983 38.3257 111.815 34.9071 108.727 32.6502C105.638 30.3933 101.582 29.3887 97.9097 30.3838C93.5735 31.5551 90.3681 35.1452 87.0319 38.2115C83.6957 41.2778 79.3689 44.0489 75 43.0443C78.8782 51.1386 88.686 55.7857 97.2695 53.5621C102.545 52.1956 106.979 48.6674 111.755 45.9773C113.362 45.0631 115.264 43.8442 115.194 41.9682" fill="#BD7013"/>
<path d="M108.161 48.3685C108.311 48.9632 108.725 49.2905 108.947 48.9632C110.888 46.3033 113.419 43.6941 115.623 41.26C116.359 40.4395 116.477 39.3884 115.468 38.6462C114.732 38.1069 114.105 37.3785 112.955 39.2178C111.174 42.1129 108.161 48.3685 108.161 48.3685Z" fill="#F17288"/>
<path d="M157.982 33.7246L158.406 34.1093C154.644 43.112 148.391 51.9364 143.107 60.1369C138.362 67.5023 136.712 78.1798 128.862 82.2378C122.662 85.4467 112.375 80.6709 108.575 73.7934C107.579 71.8995 106.904 69.8586 106.576 67.7509C105.079 59.3065 107.621 50.346 113.057 43.6608C118.494 36.9757 126.697 32.6268 135.31 31.4305C137.997 31.0824 140.708 30.9475 143.417 31.027C148.573 31.1209 153.485 31.454 158.058 33.7949" fill="#BD7013"/>
<path d="M178.254 54.1835C176.97 53.1939 173.839 54.1835 173.839 54.1835C173.798 53.081 173.606 51.9891 173.269 50.9374C171.973 46.8342 169.837 43.0393 166.997 39.7889C164.299 36.6575 157.597 33.0146 157.597 33.0146C157.597 33.0146 155.455 37.6662 151.758 40.9171C147.521 44.6132 142.124 46.7445 136.482 46.9503C136.47 48.844 136.293 50.7332 135.951 52.5963C135.466 55.0352 134.561 57.3734 133.278 59.5092C133.278 59.5092 132.564 58.2232 129.63 56.9276C126.696 55.632 121.47 55.6177 121.229 61.8995C120.988 68.1813 130.822 67.0244 130.822 67.0244C130.822 67.0244 131.536 74.7165 125.625 83.2501C128.52 85.2293 133.099 87.6244 133.099 87.6244L132.245 96.3778L140.766 99.3371C140.766 99.3371 141.789 88.3415 143.782 88.1933C150.529 87.7985 157.093 85.8612 162.958 82.533C159.416 80.3052 156.28 77.3794 155.04 73.4497C154.35 71.2745 153.047 67.0627 154.996 60.647C156.698 63.7297 159.001 66.4471 161.77 68.6415C164.54 70.8359 167.722 72.4637 171.132 73.4305C173.095 69.2617 174.397 64.8175 174.992 60.255C174.992 60.255 177.699 59.9729 178.852 58.4192C179.106 58.1072 179.293 57.7468 179.401 57.3605C179.509 56.9741 179.535 56.5699 179.479 56.1729C179.423 55.7759 179.286 55.3945 179.075 55.0523C178.864 54.7101 178.585 54.4144 178.254 54.1835Z" fill="#FBCFAF"/>
<path d="M145.821 96.8297C154.707 95.0879 163.454 92.6764 171.987 89.6152C173.761 88.977 175.781 88.022 176.144 86.1451C176.311 84.9959 176.224 83.8233 175.888 82.7128C175.39 81.1143 174.768 79.5586 174.026 78.0607C174.49 77.9481 174.976 77.969 175.429 78.121C175.882 78.273 176.285 78.55 176.591 78.9211C177.462 79.8667 178.742 82.3204 179.203 82.7364C179.455 80.2579 179.501 77.7624 179.343 75.2761C180.33 74.9451 181.108 76.1412 181.452 77.1388C181.987 78.6989 182.318 80.8973 182.704 82.5047C184.567 81.4363 184.171 77.5974 185.088 76.5336C185.143 76.4459 185.215 76.3708 185.3 76.313C185.385 76.2552 185.481 76.216 185.582 76.198C185.744 76.2078 185.898 76.2766 186.015 76.3918C186.904 77.1246 187.239 79.479 185.936 82.6891C185.493 83.7765 184.827 85.2846 184.422 86.3862C185.548 86.3871 186.673 86.3097 187.789 86.1545C188.464 86.1025 189.185 85.9985 189.469 86.6273C189.753 87.2561 189.297 87.918 188.799 88.3529C186.694 90.1967 184.339 89.9415 181.652 90.6601C180.228 91.0383 179.11 91.7758 177.574 92.4708C167.33 97.0729 156.572 100.391 145.537 102.352L145.342 98.0117" fill="#FBCFAF"/>
<path d="M127.254 88.1758C123.107 81.064 118.945 73.9282 115.807 66.3219C114.405 62.9124 113.202 59.1189 114.352 55.6134C114.895 53.9375 115.472 53.3372 115.763 51.5989C115.852 51.2479 115.813 50.877 115.652 50.5521C115.492 50.3456 115.268 50.1983 115.013 50.1339C114.759 50.0694 114.49 50.0915 114.25 50.1967C113.774 50.424 113.369 50.774 113.076 51.21C112.192 52.3296 111.547 53.6153 111.18 54.9891C109.434 53.402 107.422 52.1295 105.233 51.2292C104.452 50.9026 103.293 50.3696 102.721 50.9939C102.148 51.6181 103.046 52.5065 103.555 52.9627C104.903 54.1632 106.606 55.2773 108.144 56.3913C106.248 55.6024 104.274 55.0102 102.255 54.6242C101.338 54.4561 99.7863 54.2688 99.4662 54.701C98.7872 55.5798 100.242 56.5786 101.261 56.9772L105.849 58.7635C104.015 58.5598 102.17 58.4716 100.325 58.4994C98.3167 58.5282 99.2868 59.7095 99.8785 60.0312C101.077 60.6843 103.87 61.3134 105.262 61.4094C105.929 61.4131 106.588 61.5469 107.203 61.8032C107.781 62.1279 108.279 62.5776 108.658 63.1189C110.705 65.6928 111.975 68.7805 113.217 71.8154L119.382 86.8313C120.022 88.4015 121.322 91.7341 122.937 92.2383C124.552 92.7425 125.847 90.1686 127.05 88.9441" fill="#FBCFAF"/>
<path d="M162.805 49.2169C163.764 49.3557 164.639 49.8256 165.271 50.5409C165.902 51.2561 166.249 52.1689 166.246 53.1124C166.311 52.9271 166.364 52.7383 166.406 52.5469C166.479 52.0375 166.448 51.5191 166.316 51.0213C166.183 50.5234 165.951 50.0559 165.633 49.6453C165.315 49.2348 164.917 48.8893 164.461 48.6285C164.006 48.3678 163.503 48.1969 162.98 48.1257C162.457 48.0545 161.924 48.0843 161.413 48.2134C160.902 48.3425 160.422 48.5684 160 48.8782C159.579 49.188 159.224 49.5756 158.956 50.019C158.688 50.4623 158.513 50.9526 158.44 51.462C158.416 51.6524 158.404 51.844 158.405 52.0359C158.671 51.131 159.261 50.349 160.069 49.8318C160.876 49.3145 161.847 49.0964 162.805 49.2169Z" fill="#7E4C02"/>
<path d="M132.987 93.3294C133.458 94.1957 134.028 95.0062 134.685 95.7452C136.576 97.5629 137.872 97.7451 139.778 97.5161C141.522 97.3059 141.196 96.4414 142.359 95.6471C144.979 93.8527 149.689 94.82 151.505 95.334C151.363 97.2031 151.538 98.5441 152.323 101.273C152.418 101.595 152.375 101.6 152.271 101.923C152.134 102.338 149.06 103.441 146.166 104.679C146.024 110.442 145.538 116.192 144.71 121.898C140.394 122.756 135.935 122.611 131.685 121.476C127.435 120.341 123.51 118.246 120.219 115.357C124.347 107.623 124.144 98.2498 120.588 89.8389C122.879 89.2572 124.942 88.0163 126.518 86.2736C126.518 86.2736 131.507 90.7313 132.987 93.3294Z" fill="#7DC4C2"/>
<path d="M120.718 112.401C115.653 114.251 111.094 116.429 106.03 118.279C105.882 118.299 105.74 118.352 105.615 118.433C105.49 118.515 105.384 118.623 105.304 118.75C105.224 118.877 105.173 119.02 105.154 119.169C105.135 119.319 105.149 119.47 105.194 119.614C105.858 126.542 106.97 133.905 111.586 139.099C116.837 145.054 125.429 146.707 133.372 146.558C136.399 146.555 139.414 146.181 142.351 145.445C145.931 144.403 149.318 142.775 152.376 140.626C148.352 134.521 146.246 128.099 144.313 121.025C127.74 118.009 120.718 112.401 120.718 112.401Z" fill="#F17288"/>
<path d="M137.147 167.872C137.039 167.872 136.931 167.812 136.823 167.692C136.727 167.584 136.679 167.458 136.679 167.314C136.679 167.11 136.715 166.54 136.787 165.604C136.523 165.532 136.259 165.496 135.995 165.496C135.743 165.496 135.389 165.526 134.933 165.586L134.501 165.64C133.625 165.736 132.935 165.802 132.431 165.838C132.383 165.838 132.065 165.856 131.477 165.892C131.477 166.012 131.477 166.186 131.477 166.414C131.489 166.642 131.489 166.828 131.477 166.972C131.465 167.128 131.417 167.254 131.333 167.35C131.261 167.446 131.171 167.494 131.063 167.494C131.003 167.494 130.925 167.47 130.829 167.422C130.733 167.338 130.631 167.176 130.523 166.936C130.499 166.864 130.487 166.606 130.487 166.162L130.469 165.676C130.457 165.58 130.505 165.478 130.613 165.37C130.721 165.25 130.871 165.184 131.063 165.172C131.603 165.136 131.951 164.83 132.107 164.254C132.191 163.978 132.269 163.648 132.341 163.264C132.413 162.868 132.461 162.52 132.485 162.22C132.653 160.636 132.737 159.424 132.737 158.584C132.737 158.296 132.725 157.876 132.701 157.324C132.677 156.94 132.665 156.658 132.665 156.478C132.665 155.974 132.659 155.596 132.647 155.344C132.647 154.324 132.635 153.676 132.611 153.4C132.587 153.16 132.629 152.962 132.737 152.806C132.845 152.638 133.013 152.542 133.241 152.518C133.817 152.458 134.165 152.428 134.285 152.428C134.537 152.428 134.759 152.458 134.951 152.518C135.035 152.542 135.107 152.554 135.167 152.554C135.239 152.554 135.293 152.56 135.329 152.572C135.557 152.596 135.713 152.644 135.797 152.716C135.893 152.788 135.941 152.962 135.941 153.238L135.923 154.48C135.923 154.756 135.929 154.96 135.941 155.092C135.977 156.4 136.043 158.416 136.139 161.14L136.157 161.626C136.181 162.238 136.211 162.862 136.247 163.498C136.283 164.122 136.331 164.56 136.391 164.812C136.835 164.812 137.171 164.842 137.399 164.902C137.639 164.962 137.759 165.112 137.759 165.352C137.759 165.412 137.753 165.46 137.741 165.496C137.705 165.736 137.669 166 137.633 166.288C137.597 166.576 137.573 166.822 137.561 167.026C137.549 167.086 137.543 167.2 137.543 167.368C137.543 167.536 137.513 167.662 137.453 167.746C137.405 167.83 137.303 167.872 137.147 167.872ZM132.827 165.028C133.355 164.98 133.787 164.95 134.123 164.938L135.401 164.848C135.425 164.584 135.437 164.392 135.437 164.272C135.437 164.104 135.425 163.816 135.401 163.408C135.401 163.324 135.389 163.186 135.365 162.994C135.353 162.802 135.347 162.628 135.347 162.472L135.221 159.61V157.828L135.005 153.688C135.005 153.496 134.987 153.346 134.951 153.238C134.819 153.178 134.603 153.148 134.303 153.148C134.039 153.148 133.787 153.166 133.547 153.202V156.028V157.396C133.511 159.028 133.451 160.474 133.367 161.734C133.331 162.322 133.253 162.934 133.133 163.57C133.025 164.206 132.923 164.692 132.827 165.028ZM139.556 166.234C139.4 166.234 139.256 166.18 139.124 166.072C139.004 165.964 138.938 165.832 138.926 165.676V165.208V164.848C138.914 164.74 138.908 164.614 138.908 164.47C138.908 164.218 138.89 163.834 138.854 163.318L138.818 162.166C138.818 161.578 138.836 160.702 138.872 159.538C138.92 158.494 138.944 157.618 138.944 156.91C138.944 156.742 138.926 156.49 138.89 156.154C138.854 155.806 138.836 155.554 138.836 155.398C138.836 154.546 139.088 154.12 139.592 154.12C139.988 154.12 140.444 154.198 140.96 154.354C141.488 154.51 141.752 154.696 141.752 154.912C141.752 155.032 141.698 155.146 141.59 155.254C141.494 155.35 141.374 155.428 141.23 155.488C140.726 155.308 140.27 155.188 139.862 155.128C139.874 155.308 139.88 155.566 139.88 155.902C139.88 156.382 139.874 156.814 139.862 157.198C139.826 157.774 139.808 158.206 139.808 158.494L139.862 158.782L140.15 158.764C140.246 158.752 140.366 158.746 140.51 158.746C141.086 158.746 141.374 158.914 141.374 159.25C141.374 159.382 141.32 159.496 141.212 159.592C141.104 159.676 140.966 159.718 140.798 159.718C140.582 159.718 140.414 159.706 140.294 159.682H139.844C139.868 159.994 139.88 160.45 139.88 161.05C139.88 161.65 139.874 162.19 139.862 162.67C139.826 163.402 139.808 163.948 139.808 164.308C139.808 164.98 139.82 165.316 139.844 165.316L140.438 165.298C140.642 165.286 140.888 165.28 141.176 165.28C141.632 165.28 141.86 165.424 141.86 165.712C141.86 165.88 141.782 166.006 141.626 166.09C141.482 166.186 141.302 166.234 141.086 166.234H139.556ZM144.851 165.712L144.833 165.01C144.821 164.806 144.815 164.578 144.815 164.326L144.833 163.714C144.797 163.582 144.707 162.268 144.563 159.772C144.419 157.276 144.335 155.674 144.311 154.966C143.615 154.942 143.171 154.87 142.979 154.75C142.847 154.654 142.781 154.546 142.781 154.426C142.781 154.33 142.841 154.246 142.961 154.174C143.093 154.09 143.225 154.048 143.357 154.048C143.693 154.048 144.101 154.072 144.581 154.12C145.037 154.18 145.445 154.21 145.805 154.21H145.949H146.093C146.465 154.21 146.651 154.354 146.651 154.642C146.651 154.786 146.591 154.906 146.471 155.002C146.351 155.086 146.213 155.128 146.057 155.128C145.949 155.128 145.793 155.11 145.589 155.074L145.229 155.002L145.211 155.092L145.193 155.182C145.193 156.25 145.295 157.954 145.499 160.294C145.691 162.49 145.787 164.194 145.787 165.406C145.787 165.55 145.721 165.676 145.589 165.784C145.469 165.892 145.331 165.946 145.175 165.946L144.851 165.712ZM149.025 165.964C148.869 165.916 148.785 165.814 148.773 165.658V165.388C148.749 164.884 148.725 164.128 148.701 163.12C148.653 162.244 148.623 161.572 148.611 161.104C148.575 160.372 148.533 159.274 148.485 157.81C148.473 157.558 148.461 157.21 148.449 156.766C148.437 156.322 148.431 155.986 148.431 155.758C148.419 155.626 148.413 155.44 148.413 155.2C148.413 154.924 148.425 154.72 148.449 154.588C148.497 154.216 148.701 154.042 149.061 154.066C149.397 154.066 149.577 154.258 149.601 154.642V154.858L149.583 159.394V161.536V162.616C149.583 162.784 149.595 162.982 149.619 163.21C149.643 163.426 149.661 163.582 149.673 163.678C149.733 163.33 149.829 162.976 149.961 162.616C150.105 162.244 150.195 162.016 150.231 161.932C150.411 161.5 150.543 161.146 150.627 160.87C150.915 159.946 151.287 158.812 151.743 157.468C151.839 157.192 151.947 156.856 152.067 156.46C152.391 155.44 152.613 154.78 152.733 154.48C152.841 154.192 153.003 154.012 153.219 153.94C153.327 153.904 153.435 153.886 153.543 153.886C153.711 153.886 153.885 153.94 154.065 154.048V154.912C154.065 155.812 154.083 156.742 154.119 157.702C154.131 157.906 154.137 158.212 154.137 158.62V159.142C154.137 159.25 154.131 159.394 154.119 159.574C154.119 159.754 154.125 159.964 154.137 160.204L154.191 165.064C154.191 165.244 154.149 165.442 154.065 165.658C154.029 165.754 153.969 165.832 153.885 165.892C153.801 165.94 153.711 165.964 153.615 165.964C153.279 165.964 153.111 165.808 153.111 165.496C153.111 165.136 153.129 164.788 153.165 164.452C153.189 163.996 153.201 163.648 153.201 163.408C153.177 161.032 153.147 159.256 153.111 158.08C153.111 157.9 153.087 157.606 153.039 157.198L152.985 156.55C152.877 156.67 152.817 156.748 152.805 156.784L152.517 157.666C152.325 158.29 152.175 158.752 152.067 159.052L150.501 163.408L149.691 165.622C149.595 165.874 149.451 166 149.259 166C149.223 166 149.145 165.988 149.025 165.964ZM109.896 195.342C109.584 195.342 109.296 195.24 109.032 195.036C108.768 194.844 108.552 194.58 108.384 194.244C108.036 193.512 107.82 192.714 107.736 191.85C107.628 191.034 107.574 190.248 107.574 189.492C107.574 189.348 107.58 189.228 107.592 189.132V188.808C107.592 188.748 107.586 188.718 107.574 188.718V188.394L107.592 187.134C107.604 186.75 107.652 186.138 107.736 185.298C107.796 184.722 107.934 184.164 108.15 183.624C108.234 183.384 108.342 183.204 108.474 183.084C108.606 182.952 108.756 182.886 108.924 182.886C109.404 182.886 109.836 182.976 110.22 183.156C110.604 183.324 110.928 183.564 111.192 183.876C111.432 184.176 111.636 184.548 111.804 184.992C111.972 185.424 112.092 185.886 112.164 186.378C112.236 186.882 112.272 187.416 112.272 187.98V188.124C112.272 188.496 112.278 188.832 112.29 189.132L112.308 190.158C112.308 193.614 111.504 195.342 109.896 195.342ZM109.824 194.586C110.04 194.586 110.238 194.502 110.418 194.334C110.598 194.154 110.736 193.914 110.832 193.614C111.06 193.002 111.198 192.342 111.246 191.634C111.306 191.022 111.336 190.494 111.336 190.05C111.336 189.51 111.294 188.802 111.21 187.926C111.138 187.002 111.102 186.312 111.102 185.856V185.532C111.078 185.076 110.922 184.68 110.634 184.344C110.358 184.008 110.016 183.84 109.608 183.84C109.2 183.84 108.93 184.074 108.798 184.542C108.678 184.914 108.618 185.394 108.618 185.982C108.618 186.21 108.624 186.402 108.636 186.558V187.044L108.6 187.872C108.576 188.124 108.564 188.4 108.564 188.7C108.564 189.348 108.582 189.99 108.618 190.626C108.666 191.526 108.786 192.402 108.978 193.254C109.17 194.142 109.452 194.586 109.824 194.586ZM115.285 194.712L115.267 194.01C115.255 193.806 115.249 193.578 115.249 193.326L115.267 192.714C115.231 192.582 115.141 191.268 114.997 188.772C114.853 186.276 114.769 184.674 114.745 183.966C114.049 183.942 113.605 183.87 113.413 183.75C113.281 183.654 113.215 183.546 113.215 183.426C113.215 183.33 113.275 183.246 113.395 183.174C113.527 183.09 113.659 183.048 113.791 183.048C114.127 183.048 114.535 183.072 115.015 183.12C115.471 183.18 115.879 183.21 116.239 183.21H116.383H116.527C116.899 183.21 117.085 183.354 117.085 183.642C117.085 183.786 117.025 183.906 116.905 184.002C116.785 184.086 116.647 184.128 116.491 184.128C116.383 184.128 116.227 184.11 116.023 184.074L115.663 184.002L115.645 184.092L115.627 184.182C115.627 185.25 115.729 186.954 115.933 189.294C116.125 191.49 116.221 193.194 116.221 194.406C116.221 194.55 116.155 194.676 116.023 194.784C115.903 194.892 115.765 194.946 115.609 194.946L115.285 194.712ZM124.203 195.324C123.555 195.324 123.231 195.156 123.231 194.82C123.231 194.688 123.285 194.586 123.393 194.514C123.501 194.442 123.627 194.406 123.771 194.406C123.963 194.406 124.119 194.46 124.239 194.568C124.503 194.472 124.725 194.16 124.905 193.632C125.085 193.092 125.175 192.588 125.175 192.12C125.175 191.52 125.169 191.01 125.157 190.59C125.121 190.05 125.061 189.564 124.977 189.132C124.929 188.88 124.875 188.67 124.815 188.502C124.755 188.334 124.665 188.148 124.545 187.944C124.377 187.644 124.101 187.416 123.717 187.26C123.513 187.2 123.315 187.17 123.123 187.17C122.847 187.17 122.661 187.056 122.565 186.828C122.505 186.648 122.475 186.42 122.475 186.144C122.475 186.048 122.493 185.892 122.529 185.676L122.565 185.226C122.565 184.674 122.535 184.164 122.475 183.696L122.241 182.202L122.133 181.464L122.439 181.14H123.897C124.401 181.14 124.653 181.296 124.653 181.608V181.698L124.311 181.968H123.861V181.914H123.105C123.117 182.514 123.231 183.942 123.447 186.198L123.807 186.234C124.071 186.258 124.323 186.3 124.563 186.36C124.695 186.396 124.809 186.45 124.905 186.522C125.157 186.702 125.379 187.104 125.571 187.728C125.763 188.34 125.889 188.976 125.949 189.636C126.009 190.272 126.039 190.788 126.039 191.184C126.039 191.736 126.027 192.192 126.003 192.552C125.991 192.804 125.967 193.008 125.931 193.164C125.895 193.308 125.835 193.506 125.751 193.758C125.679 193.962 125.589 194.142 125.481 194.298C125.385 194.454 125.253 194.622 125.085 194.802C124.917 194.97 124.725 195.144 124.509 195.324H124.383H124.203ZM138.22 197.214C138.124 197.238 138.052 197.25 138.004 197.25C137.86 197.25 137.758 197.16 137.698 196.98C137.65 196.836 137.626 196.656 137.626 196.44L137.644 195.198C137.644 195.126 137.638 195.06 137.626 195C137.614 194.94 137.602 194.88 137.59 194.82H135.52C135.64 194.82 135.352 194.88 134.656 195C133.972 195.108 133.438 195.18 133.054 195.216L132.244 195.288L131.344 195.378C131.344 195.486 131.344 195.618 131.344 195.774C131.356 195.93 131.356 196.116 131.344 196.332V196.422C131.344 196.614 131.296 196.758 131.2 196.854C131.104 196.95 131.014 196.998 130.93 196.998C130.882 196.998 130.81 196.974 130.714 196.926C130.498 196.77 130.378 196.554 130.354 196.278L130.3 194.964C130.276 194.496 130.468 194.262 130.876 194.262C131.104 194.25 131.284 194.19 131.416 194.082C131.548 193.974 131.704 193.806 131.884 193.578C132.064 193.338 132.202 193.074 132.298 192.786C132.406 192.486 132.508 192.126 132.604 191.706C132.712 191.25 132.79 190.806 132.838 190.374C132.886 189.942 132.946 189.324 133.018 188.52C133.126 187.26 133.18 185.994 133.18 184.722L133.162 183.714C133.162 183.486 133.228 183.3 133.36 183.156C133.492 183 133.672 182.922 133.9 182.922C133.972 182.922 134.026 182.928 134.062 182.94C134.614 183.036 135.064 183.096 135.412 183.12H135.502C135.658 183.12 135.748 183.09 135.772 183.03C135.88 182.886 136.012 182.814 136.168 182.814C136.276 182.814 136.372 182.838 136.456 182.886C136.648 182.958 136.774 183.138 136.834 183.426L136.744 186.504C136.744 188.172 136.75 189.42 136.762 190.248C136.762 190.68 136.774 191.34 136.798 192.228L136.816 193.218C136.816 193.314 136.822 193.404 136.834 193.488C136.846 193.572 136.858 193.656 136.87 193.74C137.11 193.764 137.29 193.776 137.41 193.776C137.506 193.776 137.578 193.77 137.626 193.758C137.89 193.722 138.124 193.788 138.328 193.956C138.544 194.112 138.652 194.316 138.652 194.568C138.652 194.892 138.628 195.378 138.58 196.026C138.58 196.194 138.568 196.434 138.544 196.746C138.52 196.998 138.412 197.154 138.22 197.214ZM133.036 194.352C133.708 194.292 134.236 194.238 134.62 194.19C135.016 194.13 135.406 194.04 135.79 193.92C135.91 192.468 135.97 190.914 135.97 189.258C135.97 187.722 135.91 186.036 135.79 184.2C135.478 184.188 134.896 184.158 134.044 184.11L134.026 184.956C133.93 186.804 133.864 188.184 133.828 189.096C133.78 190.464 133.546 191.808 133.126 193.128C133.102 193.2 133.048 193.38 132.964 193.668C132.892 193.944 132.778 194.184 132.622 194.388L133.036 194.352ZM141.678 195.342C141.366 195.342 141.078 195.24 140.814 195.036C140.55 194.844 140.334 194.58 140.166 194.244C139.818 193.512 139.602 192.714 139.518 191.85C139.41 191.034 139.356 190.248 139.356 189.492C139.356 189.348 139.362 189.228 139.374 189.132V188.808C139.374 188.748 139.368 188.718 139.356 188.718V188.394L139.374 187.134C139.386 186.75 139.434 186.138 139.518 185.298C139.578 184.722 139.716 184.164 139.932 183.624C140.016 183.384 140.124 183.204 140.256 183.084C140.388 182.952 140.538 182.886 140.706 182.886C141.186 182.886 141.618 182.976 142.002 183.156C142.386 183.324 142.71 183.564 142.974 183.876C143.214 184.176 143.418 184.548 143.586 184.992C143.754 185.424 143.874 185.886 143.946 186.378C144.018 186.882 144.054 187.416 144.054 187.98V188.124C144.054 188.496 144.06 188.832 144.072 189.132L144.09 190.158C144.09 193.614 143.286 195.342 141.678 195.342ZM141.606 194.586C141.822 194.586 142.02 194.502 142.2 194.334C142.38 194.154 142.518 193.914 142.614 193.614C142.842 193.002 142.98 192.342 143.028 191.634C143.088 191.022 143.118 190.494 143.118 190.05C143.118 189.51 143.076 188.802 142.992 187.926C142.92 187.002 142.884 186.312 142.884 185.856V185.532C142.86 185.076 142.704 184.68 142.416 184.344C142.14 184.008 141.798 183.84 141.39 183.84C140.982 183.84 140.712 184.074 140.58 184.542C140.46 184.914 140.4 185.394 140.4 185.982C140.4 186.21 140.406 186.402 140.418 186.558V187.044L140.382 187.872C140.358 188.124 140.346 188.4 140.346 188.7C140.346 189.348 140.364 189.99 140.4 190.626C140.448 191.526 140.568 192.402 140.76 193.254C140.952 194.142 141.234 194.586 141.606 194.586ZM150.137 195.072C149.933 195.072 149.789 195.042 149.705 194.982C149.621 194.922 149.579 194.79 149.579 194.586C149.579 194.454 149.609 194.364 149.669 194.316C149.729 194.268 149.855 194.244 150.047 194.244C150.311 194.244 150.443 194.142 150.443 193.938C150.443 192.75 150.353 190.998 150.173 188.682C149.993 186.354 149.903 184.626 149.903 183.498C149.903 183.39 149.909 183.288 149.921 183.192V182.85C149.921 182.286 149.717 182.004 149.309 182.004H149.111L148.895 182.022C148.547 182.022 148.373 181.89 148.373 181.626C148.373 181.314 148.859 181.158 149.831 181.158C150.347 181.158 150.653 181.26 150.749 181.464C150.677 181.788 150.641 182.04 150.641 182.22C150.641 182.544 150.689 183.09 150.785 183.858C150.869 184.542 150.911 185.094 150.911 185.514C150.911 186.366 150.977 187.782 151.109 189.762C151.241 191.514 151.307 192.942 151.307 194.046V194.154C151.355 194.154 151.421 194.148 151.505 194.136C151.589 194.124 151.673 194.118 151.757 194.118C151.805 194.106 151.877 194.1 151.973 194.1C152.477 194.1 152.729 194.25 152.729 194.55C152.729 194.898 152.045 195.072 150.677 195.072H150.389H150.137ZM154.611 195.126C154.431 195.126 154.275 195.078 154.143 194.982C154.023 194.874 153.963 194.742 153.963 194.586V194.514C154.203 194.226 154.443 193.746 154.683 193.074C154.791 192.75 154.881 192.516 154.953 192.372C155.661 190.8 156.177 189.384 156.501 188.124C156.825 186.864 156.987 185.532 156.987 184.128C156.987 182.628 156.699 181.86 156.123 181.824C155.931 181.92 155.799 182.202 155.727 182.67C155.703 182.862 155.643 183.024 155.547 183.156C155.451 183.276 155.331 183.336 155.187 183.336C154.899 183.336 154.755 183.15 154.755 182.778C154.755 182.214 154.923 181.74 155.259 181.356C155.439 181.164 155.655 181.068 155.907 181.068V181.05C156.315 181.05 156.657 181.14 156.933 181.32C157.137 181.44 157.329 181.668 157.509 182.004C157.605 182.196 157.695 182.514 157.779 182.958C157.803 183.174 157.815 183.378 157.815 183.57C157.827 183.75 157.839 183.882 157.851 183.966V184.452C157.851 185.268 157.749 186.156 157.545 187.116C157.353 188.064 157.119 188.91 156.843 189.654C156.531 190.506 156.219 191.316 155.907 192.084C155.535 193.02 155.265 193.74 155.097 194.244C155.781 194.124 156.489 194.064 157.221 194.064C157.473 194.244 157.599 194.412 157.599 194.568C157.599 194.712 157.521 194.844 157.365 194.964C157.137 194.964 156.813 194.982 156.393 195.018L155.997 195.036C155.493 195.096 155.031 195.126 154.611 195.126ZM163.51 195.396C163.414 195.396 163.33 195.366 163.258 195.306C163.186 195.246 163.132 195.168 163.096 195.072C163.084 195.048 163.078 195.012 163.078 194.964C163.078 194.808 163.162 194.682 163.33 194.586C163.666 194.442 163.918 194.226 164.086 193.938C164.266 193.638 164.392 193.29 164.464 192.894C164.68 191.718 164.788 190.44 164.788 189.06C164.788 188.544 164.782 188.154 164.77 187.89C164.686 185.862 164.614 184.434 164.554 183.606V183.534C164.554 183.426 164.578 183.342 164.626 183.282C164.674 183.222 164.758 183.18 164.878 183.156C165.646 183.012 166.258 182.94 166.714 182.94C166.954 182.94 167.134 182.946 167.254 182.958C167.53 182.97 167.74 183.054 167.884 183.21C168.028 183.366 168.1 183.582 168.1 183.858L168.118 184.812C168.142 185.652 168.154 186.282 168.154 186.702L168.136 187.566C168.136 188.838 168.184 190.446 168.28 192.39C168.328 193.266 168.37 193.944 168.406 194.424C168.418 194.64 168.382 194.796 168.298 194.892C168.226 194.988 168.1 195.048 167.92 195.072C167.524 195.096 167.314 194.91 167.29 194.514C167.326 194.166 167.344 193.818 167.344 193.47C167.344 193.122 167.338 192.834 167.326 192.606L167.308 190.554C167.308 189.558 167.29 188.538 167.254 187.494C167.23 186.63 167.194 185.814 167.146 185.046C167.098 184.278 167.05 183.81 167.002 183.642C166.93 183.654 166.78 183.684 166.552 183.732C166.324 183.78 166.012 183.822 165.616 183.858C165.58 184.41 165.562 184.806 165.562 185.046C165.562 185.322 165.58 185.562 165.616 185.766C165.64 186.09 165.664 186.564 165.688 187.188V187.584C165.688 189.528 165.67 190.842 165.634 191.526C165.61 191.718 165.598 191.868 165.598 191.976C165.55 192.48 165.502 192.864 165.454 193.128C165.334 193.764 164.968 194.412 164.356 195.072C164.188 195.264 163.918 195.372 163.546 195.396H163.51ZM171.513 195.234C171.357 195.234 171.213 195.18 171.081 195.072C170.961 194.964 170.895 194.832 170.883 194.676V194.208V193.848C170.871 193.74 170.865 193.614 170.865 193.47C170.865 193.218 170.847 192.834 170.811 192.318L170.775 191.166C170.775 190.578 170.793 189.702 170.829 188.538C170.877 187.494 170.901 186.618 170.901 185.91C170.901 185.742 170.883 185.49 170.847 185.154C170.811 184.806 170.793 184.554 170.793 184.398C170.793 183.546 171.045 183.12 171.549 183.12C171.945 183.12 172.401 183.198 172.917 183.354C173.445 183.51 173.709 183.696 173.709 183.912C173.709 184.032 173.655 184.146 173.547 184.254C173.451 184.35 173.331 184.428 173.187 184.488C172.683 184.308 172.227 184.188 171.819 184.128C171.831 184.308 171.837 184.566 171.837 184.902C171.837 185.382 171.831 185.814 171.819 186.198C171.783 186.774 171.765 187.206 171.765 187.494L171.819 187.782L172.107 187.764C172.203 187.752 172.323 187.746 172.467 187.746C173.043 187.746 173.331 187.914 173.331 188.25C173.331 188.382 173.277 188.496 173.169 188.592C173.061 188.676 172.923 188.718 172.755 188.718C172.539 188.718 172.371 188.706 172.251 188.682H171.801C171.825 188.994 171.837 189.45 171.837 190.05C171.837 190.65 171.831 191.19 171.819 191.67C171.783 192.402 171.765 192.948 171.765 193.308C171.765 193.98 171.777 194.316 171.801 194.316L172.395 194.298C172.599 194.286 172.845 194.28 173.133 194.28C173.589 194.28 173.817 194.424 173.817 194.712C173.817 194.88 173.739 195.006 173.583 195.09C173.439 195.186 173.259 195.234 173.043 195.234H171.513ZM176.808 194.712L176.79 194.01C176.778 193.806 176.772 193.578 176.772 193.326L176.79 192.714C176.754 192.582 176.664 191.268 176.52 188.772C176.376 186.276 176.292 184.674 176.268 183.966C175.572 183.942 175.128 183.87 174.936 183.75C174.804 183.654 174.738 183.546 174.738 183.426C174.738 183.33 174.798 183.246 174.918 183.174C175.05 183.09 175.182 183.048 175.314 183.048C175.65 183.048 176.058 183.072 176.538 183.12C176.994 183.18 177.402 183.21 177.762 183.21H177.906H178.05C178.422 183.21 178.608 183.354 178.608 183.642C178.608 183.786 178.548 183.906 178.428 184.002C178.308 184.086 178.17 184.128 178.014 184.128C177.906 184.128 177.75 184.11 177.546 184.074L177.186 184.002L177.168 184.092L177.15 184.182C177.15 185.25 177.252 186.954 177.456 189.294C177.648 191.49 177.744 193.194 177.744 194.406C177.744 194.55 177.678 194.676 177.546 194.784C177.426 194.892 177.288 194.946 177.132 194.946L176.808 194.712Z" fill="black"/>
</svg>
