<svg width="264" height="260" viewBox="0 0 264 260" fill="none" xmlns="http://www.w3.org/2000/svg">
<path d="M252.847 23.1665C271.363 46.543 263.112 91.9284 254.601 128.849C246.09 165.769 237.384 194.16 218.868 217.601C200.351 241.043 172.025 259.536 143.243 259.991C114.462 260.447 85.2257 242.866 58.4583 219.424C31.6909 195.983 7.45736 166.681 1.48018 131.388C-4.497 96.0958 7.84717 54.8126 34.5496 31.5013C61.3169 8.12484 102.508 2.78538 145.777 0.701687C189.047 -1.38201 234.33 -0.144812 252.847 23.1665Z" fill="#EB3450"/>
<path d="M232.723 41.246C248.155 60.6665 241.278 98.3713 234.185 129.044C227.092 159.716 219.837 183.302 204.405 202.776C188.974 222.251 165.366 237.614 141.379 237.993C117.393 238.371 93.0274 223.766 70.7194 204.291C48.4113 184.817 28.215 160.473 23.2336 131.153C18.2522 101.833 28.5399 67.5366 50.7937 48.1703C73.1018 28.7499 107.43 24.314 143.491 22.5829C179.552 20.8519 217.292 21.8797 232.723 41.246Z" fill="white"/>
<path d="M115.159 216.09C115.027 216.09 114.919 216.036 114.835 215.928C114.763 215.808 114.727 215.664 114.727 215.496L114.763 212.472C114.799 211.008 114.817 209.874 114.817 209.07C114.817 206.274 114.661 204.132 114.349 202.644C114.529 202.368 114.757 202.23 115.033 202.23C115.477 202.23 115.879 202.332 116.239 202.536C116.611 202.728 116.917 202.992 117.157 203.328C117.625 204.024 117.859 204.804 117.859 205.668C117.859 206.568 117.667 207.372 117.283 208.08C116.899 208.788 116.341 209.34 115.609 209.736L115.645 211.554L115.681 212.508C115.693 212.712 115.699 213.006 115.699 213.39C115.735 214.194 115.753 214.848 115.753 215.352C115.753 215.58 115.705 215.76 115.609 215.892C115.513 216.024 115.363 216.09 115.159 216.09ZM115.573 208.872C116.041 208.428 116.383 207.966 116.599 207.486C116.827 206.994 116.941 206.442 116.941 205.83V205.812C116.941 205.536 116.911 205.188 116.851 204.768C116.815 204.624 116.749 204.48 116.653 204.336C116.557 204.192 116.503 204.108 116.491 204.084C116.407 203.964 116.185 203.778 115.825 203.526L115.357 203.184C115.357 203.796 115.393 204.744 115.465 206.028L115.573 208.872ZM121.856 216.342C121.544 216.342 121.256 216.24 120.992 216.036C120.728 215.844 120.512 215.58 120.344 215.244C119.996 214.512 119.78 213.714 119.696 212.85C119.588 212.034 119.534 211.248 119.534 210.492C119.534 210.348 119.54 210.228 119.552 210.132V209.808C119.552 209.748 119.546 209.718 119.534 209.718V209.394L119.552 208.134C119.564 207.75 119.612 207.138 119.696 206.298C119.756 205.722 119.894 205.164 120.11 204.624C120.194 204.384 120.302 204.204 120.434 204.084C120.566 203.952 120.716 203.886 120.884 203.886C121.364 203.886 121.796 203.976 122.18 204.156C122.564 204.324 122.888 204.564 123.152 204.876C123.392 205.176 123.596 205.548 123.764 205.992C123.932 206.424 124.052 206.886 124.124 207.378C124.196 207.882 124.232 208.416 124.232 208.98V209.124C124.232 209.496 124.238 209.832 124.25 210.132L124.268 211.158C124.268 214.614 123.464 216.342 121.856 216.342ZM121.784 215.586C122 215.586 122.198 215.502 122.378 215.334C122.558 215.154 122.696 214.914 122.792 214.614C123.02 214.002 123.158 213.342 123.206 212.634C123.266 212.022 123.296 211.494 123.296 211.05C123.296 210.51 123.254 209.802 123.17 208.926C123.098 208.002 123.062 207.312 123.062 206.856V206.532C123.038 206.076 122.882 205.68 122.594 205.344C122.318 205.008 121.976 204.84 121.568 204.84C121.16 204.84 120.89 205.074 120.758 205.542C120.638 205.914 120.578 206.394 120.578 206.982C120.578 207.21 120.584 207.402 120.596 207.558V208.044L120.56 208.872C120.536 209.124 120.524 209.4 120.524 209.7C120.524 210.348 120.542 210.99 120.578 211.626C120.626 212.526 120.746 213.402 120.938 214.254C121.13 215.142 121.412 215.586 121.784 215.586ZM132.514 218.214C132.418 218.238 132.346 218.25 132.298 218.25C132.154 218.25 132.052 218.16 131.992 217.98C131.944 217.836 131.92 217.656 131.92 217.44L131.938 216.198C131.938 216.126 131.932 216.06 131.92 216C131.908 215.94 131.896 215.88 131.884 215.82H129.814C129.934 215.82 129.646 215.88 128.95 216C128.266 216.108 127.732 216.18 127.348 216.216L126.538 216.288L125.638 216.378C125.638 216.486 125.638 216.618 125.638 216.774C125.65 216.93 125.65 217.116 125.638 217.332V217.422C125.638 217.614 125.59 217.758 125.494 217.854C125.398 217.95 125.308 217.998 125.224 217.998C125.176 217.998 125.104 217.974 125.008 217.926C124.792 217.77 124.672 217.554 124.648 217.278L124.594 215.964C124.57 215.496 124.762 215.262 125.17 215.262C125.398 215.25 125.578 215.19 125.71 215.082C125.842 214.974 125.998 214.806 126.178 214.578C126.358 214.338 126.496 214.074 126.592 213.786C126.7 213.486 126.802 213.126 126.898 212.706C127.006 212.25 127.084 211.806 127.132 211.374C127.18 210.942 127.24 210.324 127.312 209.52C127.42 208.26 127.474 206.994 127.474 205.722L127.456 204.714C127.456 204.486 127.522 204.3 127.654 204.156C127.786 204 127.966 203.922 128.194 203.922C128.266 203.922 128.32 203.928 128.356 203.94C128.908 204.036 129.358 204.096 129.706 204.12H129.796C129.952 204.12 130.042 204.09 130.066 204.03C130.174 203.886 130.306 203.814 130.462 203.814C130.57 203.814 130.666 203.838 130.75 203.886C130.942 203.958 131.068 204.138 131.128 204.426L131.038 207.504C131.038 209.172 131.044 210.42 131.056 211.248C131.056 211.68 131.068 212.34 131.092 213.228L131.11 214.218C131.11 214.314 131.116 214.404 131.128 214.488C131.14 214.572 131.152 214.656 131.164 214.74C131.404 214.764 131.584 214.776 131.704 214.776C131.8 214.776 131.872 214.77 131.92 214.758C132.184 214.722 132.418 214.788 132.622 214.956C132.838 215.112 132.946 215.316 132.946 215.568C132.946 215.892 132.922 216.378 132.874 217.026C132.874 217.194 132.862 217.434 132.838 217.746C132.814 217.998 132.706 218.154 132.514 218.214ZM127.33 215.352C128.002 215.292 128.53 215.238 128.914 215.19C129.31 215.13 129.7 215.04 130.084 214.92C130.204 213.468 130.264 211.914 130.264 210.258C130.264 208.722 130.204 207.036 130.084 205.2C129.772 205.188 129.19 205.158 128.338 205.11L128.32 205.956C128.224 207.804 128.158 209.184 128.122 210.096C128.074 211.464 127.84 212.808 127.42 214.128C127.396 214.2 127.342 214.38 127.258 214.668C127.186 214.944 127.072 215.184 126.916 215.388L127.33 215.352ZM134.617 215.964C134.461 215.916 134.377 215.814 134.365 215.658V215.388C134.341 214.884 134.317 214.128 134.293 213.12C134.245 212.244 134.215 211.572 134.203 211.104C134.167 210.372 134.125 209.274 134.077 207.81C134.065 207.558 134.053 207.21 134.041 206.766C134.029 206.322 134.023 205.986 134.023 205.758C134.011 205.626 134.005 205.44 134.005 205.2C134.005 204.924 134.017 204.72 134.041 204.588C134.089 204.216 134.293 204.042 134.653 204.066C134.989 204.066 135.169 204.258 135.193 204.642V204.858L135.175 209.394V211.536V212.616C135.175 212.784 135.187 212.982 135.211 213.21C135.235 213.426 135.253 213.582 135.265 213.678C135.325 213.33 135.421 212.976 135.553 212.616C135.697 212.244 135.787 212.016 135.823 211.932C136.003 211.5 136.135 211.146 136.219 210.87C136.507 209.946 136.879 208.812 137.335 207.468C137.431 207.192 137.539 206.856 137.659 206.46C137.983 205.44 138.205 204.78 138.325 204.48C138.433 204.192 138.595 204.012 138.811 203.94C138.919 203.904 139.027 203.886 139.135 203.886C139.303 203.886 139.477 203.94 139.657 204.048V204.912C139.657 205.812 139.675 206.742 139.711 207.702C139.723 207.906 139.729 208.212 139.729 208.62V209.142C139.729 209.25 139.723 209.394 139.711 209.574C139.711 209.754 139.717 209.964 139.729 210.204L139.783 215.064C139.783 215.244 139.741 215.442 139.657 215.658C139.621 215.754 139.561 215.832 139.477 215.892C139.393 215.94 139.303 215.964 139.207 215.964C138.871 215.964 138.703 215.808 138.703 215.496C138.703 215.136 138.721 214.788 138.757 214.452C138.781 213.996 138.793 213.648 138.793 213.408C138.769 211.032 138.739 209.256 138.703 208.08C138.703 207.9 138.679 207.606 138.631 207.198L138.577 206.55C138.469 206.67 138.409 206.748 138.397 206.784L138.109 207.666C137.917 208.29 137.767 208.752 137.659 209.052L136.093 213.408L135.283 215.622C135.187 215.874 135.043 216 134.851 216C134.815 216 134.737 215.988 134.617 215.964ZM142.96 215.712L142.942 215.01C142.93 214.806 142.924 214.578 142.924 214.326L142.942 213.714C142.906 213.582 142.816 212.268 142.672 209.772C142.528 207.276 142.444 205.674 142.42 204.966C141.724 204.942 141.28 204.87 141.088 204.75C140.956 204.654 140.89 204.546 140.89 204.426C140.89 204.33 140.95 204.246 141.07 204.174C141.202 204.09 141.334 204.048 141.466 204.048C141.802 204.048 142.21 204.072 142.69 204.12C143.146 204.18 143.554 204.21 143.914 204.21H144.058H144.202C144.574 204.21 144.76 204.354 144.76 204.642C144.76 204.786 144.7 204.906 144.58 205.002C144.46 205.086 144.322 205.128 144.166 205.128C144.058 205.128 143.902 205.11 143.698 205.074L143.338 205.002L143.32 205.092L143.302 205.182C143.302 206.25 143.404 207.954 143.608 210.294C143.8 212.49 143.896 214.194 143.896 215.406C143.896 215.55 143.83 215.676 143.698 215.784C143.578 215.892 143.44 215.946 143.284 215.946L142.96 215.712ZM147.385 216.234C147.229 216.234 147.085 216.18 146.953 216.072C146.833 215.964 146.767 215.832 146.755 215.676V215.208V214.848C146.743 214.74 146.737 214.614 146.737 214.47C146.737 214.218 146.719 213.834 146.683 213.318L146.647 212.166C146.647 211.578 146.665 210.702 146.701 209.538C146.749 208.494 146.773 207.618 146.773 206.91C146.773 206.742 146.755 206.49 146.719 206.154C146.683 205.806 146.665 205.554 146.665 205.398C146.665 204.546 146.917 204.12 147.421 204.12C147.817 204.12 148.273 204.198 148.789 204.354C149.317 204.51 149.581 204.696 149.581 204.912C149.581 205.032 149.527 205.146 149.419 205.254C149.323 205.35 149.203 205.428 149.059 205.488C148.555 205.308 148.099 205.188 147.691 205.128C147.703 205.308 147.709 205.566 147.709 205.902C147.709 206.382 147.703 206.814 147.691 207.198C147.655 207.774 147.637 208.206 147.637 208.494L147.691 208.782L147.979 208.764C148.075 208.752 148.195 208.746 148.339 208.746C148.915 208.746 149.203 208.914 149.203 209.25C149.203 209.382 149.149 209.496 149.041 209.592C148.933 209.676 148.795 209.718 148.627 209.718C148.411 209.718 148.243 209.706 148.123 209.682H147.673C147.697 209.994 147.709 210.45 147.709 211.05C147.709 211.65 147.703 212.19 147.691 212.67C147.655 213.402 147.637 213.948 147.637 214.308C147.637 214.98 147.649 215.316 147.673 215.316L148.267 215.298C148.471 215.286 148.717 215.28 149.005 215.28C149.461 215.28 149.689 215.424 149.689 215.712C149.689 215.88 149.611 216.006 149.455 216.09C149.311 216.186 149.131 216.234 148.915 216.234H147.385ZM151.546 216.396C151.45 216.396 151.366 216.366 151.294 216.306C151.222 216.246 151.168 216.168 151.132 216.072C151.12 216.048 151.114 216.012 151.114 215.964C151.114 215.808 151.198 215.682 151.366 215.586C151.702 215.442 151.954 215.226 152.122 214.938C152.302 214.638 152.428 214.29 152.5 213.894C152.716 212.718 152.824 211.44 152.824 210.06C152.824 209.544 152.818 209.154 152.806 208.89C152.722 206.862 152.65 205.434 152.59 204.606V204.534C152.59 204.426 152.614 204.342 152.662 204.282C152.71 204.222 152.794 204.18 152.914 204.156C153.682 204.012 154.294 203.94 154.75 203.94C154.99 203.94 155.17 203.946 155.29 203.958C155.566 203.97 155.776 204.054 155.92 204.21C156.064 204.366 156.136 204.582 156.136 204.858L156.154 205.812C156.178 206.652 156.19 207.282 156.19 207.702L156.172 208.566C156.172 209.838 156.22 211.446 156.316 213.39C156.364 214.266 156.406 214.944 156.442 215.424C156.454 215.64 156.418 215.796 156.334 215.892C156.262 215.988 156.136 216.048 155.956 216.072C155.56 216.096 155.35 215.91 155.326 215.514C155.362 215.166 155.38 214.818 155.38 214.47C155.38 214.122 155.374 213.834 155.362 213.606L155.344 211.554C155.344 210.558 155.326 209.538 155.29 208.494C155.266 207.63 155.23 206.814 155.182 206.046C155.134 205.278 155.086 204.81 155.038 204.642C154.966 204.654 154.816 204.684 154.588 204.732C154.36 204.78 154.048 204.822 153.652 204.858C153.616 205.41 153.598 205.806 153.598 206.046C153.598 206.322 153.616 206.562 153.652 206.766C153.676 207.09 153.7 207.564 153.724 208.188V208.584C153.724 210.528 153.706 211.842 153.67 212.526C153.646 212.718 153.634 212.868 153.634 212.976C153.586 213.48 153.538 213.864 153.49 214.128C153.37 214.764 153.004 215.412 152.392 216.072C152.224 216.264 151.954 216.372 151.582 216.396H151.546ZM159.297 215.964C159.141 215.916 159.057 215.814 159.045 215.658V215.388C159.021 214.884 158.997 214.128 158.973 213.12C158.925 212.244 158.895 211.572 158.883 211.104C158.847 210.372 158.805 209.274 158.757 207.81C158.745 207.558 158.733 207.21 158.721 206.766C158.709 206.322 158.703 205.986 158.703 205.758C158.691 205.626 158.685 205.44 158.685 205.2C158.685 204.924 158.697 204.72 158.721 204.588C158.769 204.216 158.973 204.042 159.333 204.066C159.669 204.066 159.849 204.258 159.873 204.642V204.858L159.855 209.394V211.536V212.616C159.855 212.784 159.867 212.982 159.891 213.21C159.915 213.426 159.933 213.582 159.945 213.678C160.005 213.33 160.101 212.976 160.233 212.616C160.377 212.244 160.467 212.016 160.503 211.932C160.683 211.5 160.815 211.146 160.899 210.87C161.187 209.946 161.559 208.812 162.015 207.468C162.111 207.192 162.219 206.856 162.339 206.46C162.663 205.44 162.885 204.78 163.005 204.48C163.113 204.192 163.275 204.012 163.491 203.94C163.599 203.904 163.707 203.886 163.815 203.886C163.983 203.886 164.157 203.94 164.337 204.048V204.912C164.337 205.812 164.355 206.742 164.391 207.702C164.403 207.906 164.409 208.212 164.409 208.62V209.142C164.409 209.25 164.403 209.394 164.391 209.574C164.391 209.754 164.397 209.964 164.409 210.204L164.463 215.064C164.463 215.244 164.421 215.442 164.337 215.658C164.301 215.754 164.241 215.832 164.157 215.892C164.073 215.94 163.983 215.964 163.887 215.964C163.551 215.964 163.383 215.808 163.383 215.496C163.383 215.136 163.401 214.788 163.437 214.452C163.461 213.996 163.473 213.648 163.473 213.408C163.449 211.032 163.419 209.256 163.383 208.08C163.383 207.9 163.359 207.606 163.311 207.198L163.257 206.55C163.149 206.67 163.089 206.748 163.077 206.784L162.789 207.666C162.597 208.29 162.447 208.752 162.339 209.052L160.773 213.408L159.963 215.622C159.867 215.874 159.723 216 159.531 216C159.495 216 159.417 215.988 159.297 215.964Z" fill="black"/>
</svg>
