<svg width="264" height="274" viewBox="0 0 264 274" fill="none" xmlns="http://www.w3.org/2000/svg">
<path d="M180.888 264.409C143.632 276.611 103.049 278.101 67.7302 263.448C32.4111 248.795 2.53833 217.913 0.157356 186.215C-2.22359 154.517 22.9066 122.069 42.5712 91.1681C62.2357 60.2673 76.3094 30.9808 102.606 14.4639C128.902 -2.05308 167.191 -5.71391 191.983 10.2553C216.776 26.2246 228.006 61.9392 241.386 97.9613C254.765 133.983 270.42 170.294 261.262 199.83C252.105 229.367 218.106 252.263 180.888 264.409Z" fill="#00AEEF"/>
<path d="M172.74 243.019C141.693 253.173 107.874 254.412 78.4418 242.219C49.0092 230.026 24.1152 204.329 22.1311 177.953C20.147 151.576 41.0888 124.576 57.4759 98.8625C73.8631 73.1494 85.5911 48.7796 107.505 35.0356C129.419 21.2916 161.325 18.2453 181.986 31.5336C202.647 44.8219 212.005 74.5406 223.155 104.515C234.304 134.49 247.35 164.704 239.719 189.282C232.087 213.86 203.755 232.913 172.74 243.019Z" fill="white"/>
<path d="M112.909 230.946C112.645 230.922 112.435 230.826 112.279 230.658C112.123 230.478 112.045 230.25 112.045 229.974V229.578C112.045 229.482 112.045 229.368 112.045 229.236C112.057 229.092 112.057 228.93 112.045 228.75L111.865 225.456L111.829 224.61C111.805 223.842 111.781 223.278 111.757 222.918L111.685 221.964C111.613 221.148 111.565 220.536 111.541 220.128C111.517 219.804 111.505 219.048 111.505 217.86L111.487 217.698C111.487 217.566 111.529 217.476 111.613 217.428C111.697 217.368 111.841 217.344 112.045 217.356C112.129 217.368 112.219 217.41 112.315 217.482C112.423 217.542 112.501 217.584 112.549 217.608C112.609 217.656 112.639 217.716 112.639 217.788C112.639 217.848 112.633 217.902 112.621 217.95C112.609 217.998 112.603 218.046 112.603 218.094C112.615 218.922 112.627 220.122 112.639 221.694C112.663 223.254 112.669 223.788 112.657 223.296C112.669 223.476 112.675 223.752 112.675 224.124C112.687 224.4 112.699 224.748 112.711 225.168C112.723 225.576 112.747 226.05 112.783 226.59C112.819 227.202 112.897 228.192 113.017 229.56L113.071 230.118H114.601V226.968C114.601 225.78 114.595 224.7 114.583 223.728C114.571 222.744 114.547 221.748 114.511 220.74C114.463 219.54 114.439 218.766 114.439 218.418C114.403 218.166 114.385 218.034 114.385 218.022C114.385 217.938 114.397 217.878 114.421 217.842C114.505 217.65 114.643 217.554 114.835 217.554C114.931 217.554 115.033 217.59 115.141 217.662C115.321 217.782 115.411 218.004 115.411 218.328C115.399 218.52 115.387 218.904 115.375 219.48C115.375 220.056 115.375 220.632 115.375 221.208V224.412V226.086C115.375 226.734 115.387 227.46 115.411 228.264C115.435 229.068 115.453 229.68 115.465 230.1C115.465 230.124 115.561 230.148 115.753 230.172C115.945 230.184 116.149 230.19 116.365 230.19C116.629 230.19 116.857 230.178 117.049 230.154C117.049 230.058 117.055 229.962 117.067 229.866C117.079 229.758 117.085 229.656 117.085 229.56V225.672C117.085 224.58 117.073 223.758 117.049 223.206L116.977 221.406C116.941 220.926 116.905 219.834 116.869 218.13L116.851 217.824C116.851 217.656 116.893 217.518 116.977 217.41C117.121 217.266 117.247 217.194 117.355 217.194C117.451 217.194 117.547 217.236 117.643 217.32C117.787 217.428 117.847 217.638 117.823 217.95C117.775 218.286 117.751 218.532 117.751 218.688L117.805 220.11C117.829 220.734 117.841 221.208 117.841 221.532L117.967 227.328V228.48C117.967 229.236 117.991 229.806 118.039 230.19C118.063 230.382 118.003 230.562 117.859 230.73C117.727 230.898 117.559 230.982 117.355 230.982L112.909 230.946ZM121.056 231.036C121.008 231.024 120.93 231.012 120.822 231C120.714 230.988 120.624 230.958 120.552 230.91C120.372 230.79 120.3 230.586 120.336 230.298L120.354 229.902C120.402 229.254 120.426 228.768 120.426 228.444C120.426 226.56 120.408 224.664 120.372 222.756C120.372 221.772 120.342 220.728 120.282 219.624C120.27 219.432 120.312 219.27 120.408 219.138C120.516 219.006 120.648 218.94 120.804 218.94C120.948 218.94 121.092 219.006 121.236 219.138C121.392 219.27 121.464 219.426 121.452 219.606C121.368 219.966 121.326 220.686 121.326 221.766V223.206C121.326 223.47 121.338 223.89 121.362 224.466C121.398 224.418 121.512 224.196 121.704 223.8C121.728 223.752 121.77 223.68 121.83 223.584C121.89 223.476 121.932 223.368 121.956 223.26C122.352 222.06 122.676 221.136 122.928 220.488C123.036 220.14 123.18 219.846 123.36 219.606C123.54 219.354 123.786 219.18 124.098 219.084C124.206 219.048 124.35 219.06 124.53 219.12C124.722 219.18 124.848 219.252 124.908 219.336C124.98 219.42 125.016 219.522 125.016 219.642C125.016 219.762 124.974 219.87 124.89 219.966C124.818 220.062 124.722 220.122 124.602 220.146C124.302 220.194 124.068 220.302 123.9 220.47C123.732 220.638 123.606 220.818 123.522 221.01C123.45 221.19 123.36 221.466 123.252 221.838L122.532 223.602C122.496 223.686 122.442 223.83 122.37 224.034C122.31 224.238 122.25 224.394 122.19 224.502C122.166 224.538 122.13 224.574 122.082 224.61C122.034 224.646 121.992 224.682 121.956 224.718C122.04 224.658 122.148 224.676 122.28 224.772C122.424 224.868 122.568 225 122.712 225.168C122.808 225.36 122.874 225.57 122.91 225.798C122.958 226.026 122.988 226.158 123 226.194C123.024 226.386 123.048 226.53 123.072 226.626C123.216 227.01 123.318 227.364 123.378 227.688C123.438 228 123.48 228.372 123.504 228.804C123.54 229.236 123.66 229.614 123.864 229.938C123.924 229.95 123.99 229.962 124.062 229.974C124.146 229.986 124.236 229.998 124.332 230.01C124.524 230.022 124.65 230.142 124.71 230.37C124.722 230.394 124.728 230.436 124.728 230.496C124.728 230.628 124.668 230.754 124.548 230.874C124.368 231.054 124.14 231.144 123.864 231.144C123.66 231.144 123.462 231.09 123.27 230.982C123.09 230.874 122.958 230.73 122.874 230.55C122.802 230.43 122.742 230.268 122.694 230.064C122.61 229.548 122.538 229.026 122.478 228.498C122.43 227.766 122.376 227.214 122.316 226.842C122.268 226.458 122.154 226.092 121.974 225.744C121.926 225.66 121.878 225.6 121.83 225.564C121.782 225.516 121.716 225.492 121.632 225.492C121.56 225.492 121.47 225.51 121.362 225.546C121.338 226.41 121.326 227.25 121.326 228.066C121.326 228.582 121.35 229.368 121.398 230.424C121.41 230.556 121.386 230.664 121.326 230.748C121.278 230.82 121.188 230.916 121.056 231.036ZM128.312 231.342C128 231.342 127.712 231.24 127.448 231.036C127.184 230.844 126.968 230.58 126.8 230.244C126.452 229.512 126.236 228.714 126.152 227.85C126.044 227.034 125.99 226.248 125.99 225.492C125.99 225.348 125.996 225.228 126.008 225.132V224.808C126.008 224.748 126.002 224.718 125.99 224.718V224.394L126.008 223.134C126.02 222.75 126.068 222.138 126.152 221.298C126.212 220.722 126.35 220.164 126.566 219.624C126.65 219.384 126.758 219.204 126.89 219.084C127.022 218.952 127.172 218.886 127.34 218.886C127.82 218.886 128.252 218.976 128.636 219.156C129.02 219.324 129.344 219.564 129.608 219.876C129.848 220.176 130.052 220.548 130.22 220.992C130.388 221.424 130.508 221.886 130.58 222.378C130.652 222.882 130.688 223.416 130.688 223.98V224.124C130.688 224.496 130.694 224.832 130.706 225.132L130.724 226.158C130.724 229.614 129.92 231.342 128.312 231.342ZM128.24 230.586C128.456 230.586 128.654 230.502 128.834 230.334C129.014 230.154 129.152 229.914 129.248 229.614C129.476 229.002 129.614 228.342 129.662 227.634C129.722 227.022 129.752 226.494 129.752 226.05C129.752 225.51 129.71 224.802 129.626 223.926C129.554 223.002 129.518 222.312 129.518 221.856V221.532C129.494 221.076 129.338 220.68 129.05 220.344C128.774 220.008 128.432 219.84 128.024 219.84C127.616 219.84 127.346 220.074 127.214 220.542C127.094 220.914 127.034 221.394 127.034 221.982C127.034 222.21 127.04 222.402 127.052 222.558V223.044L127.016 223.872C126.992 224.124 126.98 224.4 126.98 224.7C126.98 225.348 126.998 225.99 127.034 226.626C127.082 227.526 127.202 228.402 127.394 229.254C127.586 230.142 127.868 230.586 128.24 230.586ZM131.846 231.396C131.75 231.396 131.666 231.366 131.594 231.306C131.522 231.246 131.468 231.168 131.432 231.072C131.42 231.048 131.414 231.012 131.414 230.964C131.414 230.808 131.498 230.682 131.666 230.586C132.002 230.442 132.254 230.226 132.422 229.938C132.602 229.638 132.728 229.29 132.8 228.894C133.016 227.718 133.124 226.44 133.124 225.06C133.124 224.544 133.118 224.154 133.106 223.89C133.022 221.862 132.95 220.434 132.89 219.606V219.534C132.89 219.426 132.914 219.342 132.962 219.282C133.01 219.222 133.094 219.18 133.214 219.156C133.982 219.012 134.594 218.94 135.05 218.94C135.29 218.94 135.47 218.946 135.59 218.958C135.866 218.97 136.076 219.054 136.22 219.21C136.364 219.366 136.436 219.582 136.436 219.858L136.454 220.812C136.478 221.652 136.49 222.282 136.49 222.702L136.472 223.566C136.472 224.838 136.52 226.446 136.616 228.39C136.664 229.266 136.706 229.944 136.742 230.424C136.754 230.64 136.718 230.796 136.634 230.892C136.562 230.988 136.436 231.048 136.256 231.072C135.86 231.096 135.65 230.91 135.626 230.514C135.662 230.166 135.68 229.818 135.68 229.47C135.68 229.122 135.674 228.834 135.662 228.606L135.644 226.554C135.644 225.558 135.626 224.538 135.59 223.494C135.566 222.63 135.53 221.814 135.482 221.046C135.434 220.278 135.386 219.81 135.338 219.642C135.266 219.654 135.116 219.684 134.888 219.732C134.66 219.78 134.348 219.822 133.952 219.858C133.916 220.41 133.898 220.806 133.898 221.046C133.898 221.322 133.916 221.562 133.952 221.766C133.976 222.09 134 222.564 134.024 223.188V223.584C134.024 225.528 134.006 226.842 133.97 227.526C133.946 227.718 133.934 227.868 133.934 227.976C133.886 228.48 133.838 228.864 133.79 229.128C133.67 229.764 133.304 230.412 132.692 231.072C132.524 231.264 132.254 231.372 131.882 231.396H131.846ZM143.845 231.18C143.497 231.18 143.323 231.048 143.323 230.784C143.323 230.724 143.323 230.598 143.323 230.406C143.323 230.214 143.335 230.034 143.359 229.866C143.407 229.434 143.431 228.924 143.431 228.336C143.431 227.772 143.407 227.01 143.359 226.05C143.335 225.51 143.311 224.676 143.287 223.548L143.233 221.352L143.215 220.596L143.197 219.246C143.197 219.054 143.305 218.946 143.521 218.922C143.737 218.91 143.917 218.97 144.061 219.102C144.205 219.234 144.277 219.402 144.277 219.606C144.277 219.906 144.265 220.38 144.241 221.028L144.187 225.654C144.175 225.81 144.169 226.02 144.169 226.284C144.181 226.548 144.187 226.806 144.187 227.058V228.138V228.786C144.163 229.542 144.193 230.172 144.277 230.676C144.301 230.844 144.271 230.97 144.187 231.054C144.115 231.138 144.001 231.18 143.845 231.18ZM139.615 231.18C139.447 231.18 139.297 231.156 139.165 231.108C139.033 231.06 138.973 230.94 138.985 230.748C139.009 230.472 139.027 230.13 139.039 229.722C139.051 229.314 139.057 229.032 139.057 228.876C139.057 228.192 139.075 227.472 139.111 226.716C139.135 226.428 139.147 225.972 139.147 225.348C139.147 225 139.141 224.586 139.129 224.106C139.117 223.626 139.105 223.266 139.093 223.026C139.081 222.822 139.069 222.582 139.057 222.306C139.045 222.03 139.039 221.724 139.039 221.388C139.015 220.98 139.003 220.662 139.003 220.434L138.985 219.966C138.985 219.906 138.985 219.786 138.985 219.606C138.985 219.414 139.015 219.264 139.075 219.156C139.147 219.048 139.267 218.994 139.435 218.994C139.591 218.994 139.723 219.06 139.831 219.192C139.939 219.312 139.993 219.456 139.993 219.624C139.993 219.756 140.005 219.978 140.029 220.29C140.053 220.842 140.065 221.28 140.065 221.604C140.065 222 140.035 222.39 139.975 222.774C139.951 222.846 139.939 222.966 139.939 223.134C139.939 223.278 139.951 223.482 139.975 223.746C140.071 223.782 140.275 223.86 140.587 223.98C140.899 224.088 141.169 224.22 141.397 224.376C141.625 224.52 141.805 224.688 141.937 224.88C142.345 225.54 142.549 226.11 142.549 226.59C142.549 227.334 142.495 228.162 142.387 229.074C142.327 229.614 142.153 230.016 141.865 230.28C141.577 230.544 141.157 230.772 140.605 230.964C140.461 231.012 140.287 231.054 140.083 231.09C139.879 231.126 139.723 231.156 139.615 231.18ZM139.975 230.208C140.119 230.232 140.227 230.244 140.299 230.244C140.539 230.244 140.737 230.16 140.893 229.992C141.313 229.584 141.523 229.098 141.523 228.534C141.547 227.982 141.559 227.484 141.559 227.04C141.559 226.248 141.499 225.738 141.379 225.51C141.295 225.246 141.127 225.024 140.875 224.844C140.623 224.664 140.335 224.538 140.011 224.466C139.927 225.318 139.885 226.272 139.885 227.328C139.885 228.228 139.915 229.188 139.975 230.208Z" fill="black"/>
</svg>
