<svg width="264" height="274" viewBox="0 0 264 274" fill="none" xmlns="http://www.w3.org/2000/svg">
<path d="M83.1118 9.59141C120.368 -2.61133 160.951 -4.10064 196.27 10.5523C231.589 25.2052 261.462 56.0867 263.843 87.785C266.224 119.483 241.093 151.931 221.429 182.832C201.764 213.733 187.691 243.019 161.394 259.536C135.098 276.053 96.8095 279.714 72.0167 263.745C47.2239 247.775 35.9939 212.061 22.6143 176.039C9.23466 140.017 -6.41988 103.706 2.73764 74.1698C11.8952 44.6335 45.8937 21.7365 83.1118 9.59141Z" fill="#F842A0"/>
<path d="M91.2598 30.9812C122.307 20.8271 156.126 19.5878 185.558 31.7807C214.991 43.9736 239.885 69.6707 241.869 96.0474C243.853 122.424 222.911 149.424 206.524 175.137C190.137 200.851 178.409 225.22 156.495 238.964C134.581 252.708 102.675 255.755 82.0139 242.466C61.3533 229.178 51.9949 199.459 40.8452 169.485C29.6956 139.51 16.6501 109.296 24.2814 84.718C31.9126 60.1402 60.2447 41.0873 91.2598 30.9812Z" fill="white"/>
<path d="M94.2036 200.18C94.0116 200.18 93.8796 200.144 93.8076 200.072C93.7476 200 93.7056 199.862 93.6816 199.658L93.5196 196.256L93.5376 195.752L93.5556 194.078C93.5556 192.338 93.5496 191.03 93.5376 190.154C93.5256 189.866 93.5196 189.212 93.5196 188.192L93.5376 187.472C93.5376 187.34 93.5136 187.262 93.4656 187.238C93.4176 187.202 93.2856 187.172 93.0696 187.148C92.8296 187.124 92.6556 187.112 92.5476 187.112C92.2116 187.112 91.8936 187.178 91.5936 187.31C91.5216 187.478 91.4796 187.826 91.4676 188.354C91.4556 188.882 91.4496 189.53 91.4496 190.298C91.4376 190.478 91.4436 191.264 91.4676 192.656V194.114C91.4676 194.342 91.4916 194.672 91.5396 195.104C91.5876 195.608 91.6116 195.992 91.6116 196.256C91.6116 196.424 91.5996 196.64 91.5756 196.904L91.5576 197.462L91.6476 199.514C91.6476 199.682 91.5996 199.808 91.5036 199.892C91.4076 199.976 91.2756 200.012 91.1076 200C90.7716 200 90.6036 199.838 90.6036 199.514C90.6396 198.254 90.6576 196.988 90.6576 195.716V194.87C90.6336 193.934 90.6096 193.238 90.5856 192.782C90.5616 192.422 90.5376 191.906 90.5136 191.234C90.4776 190.286 90.4356 188.894 90.3876 187.058C90.3876 186.854 90.4296 186.704 90.5136 186.608C90.6096 186.5 90.7536 186.44 90.9456 186.428C92.1936 186.404 93.1356 186.392 93.7716 186.392C93.9996 186.392 94.1856 186.464 94.3296 186.608C94.4856 186.752 94.5396 186.926 94.4916 187.13C94.4436 187.418 94.4196 187.748 94.4196 188.12C94.4196 188.396 94.4256 188.606 94.4376 188.75C94.4376 188.858 94.4376 188.99 94.4376 189.146C94.4496 189.302 94.4496 189.482 94.4376 189.686C94.4256 189.95 94.4196 190.28 94.4196 190.676C94.3956 191.54 94.3656 192.152 94.3296 192.512C94.3416 192.788 94.3536 193.232 94.3656 193.844C94.3896 194.444 94.4136 194.87 94.4376 195.122C94.4016 195.35 94.3836 195.584 94.3836 195.824C94.3836 196.1 94.4196 196.526 94.4916 197.102C94.5396 197.522 94.5696 197.852 94.5816 198.092L94.5996 198.524C94.6236 198.908 94.6356 199.19 94.6356 199.37L94.6176 199.766C94.6296 200.042 94.4916 200.18 94.2036 200.18ZM99.0214 200.342C98.7094 200.342 98.4214 200.24 98.1574 200.036C97.8934 199.844 97.6774 199.58 97.5094 199.244C97.1614 198.512 96.9454 197.714 96.8614 196.85C96.7534 196.034 96.6994 195.248 96.6994 194.492C96.6994 194.348 96.7054 194.228 96.7174 194.132V193.808C96.7174 193.748 96.7114 193.718 96.6994 193.718V193.394L96.7174 192.134C96.7294 191.75 96.7774 191.138 96.8614 190.298C96.9214 189.722 97.0594 189.164 97.2754 188.624C97.3594 188.384 97.4674 188.204 97.5994 188.084C97.7314 187.952 97.8814 187.886 98.0494 187.886C98.5294 187.886 98.9614 187.976 99.3454 188.156C99.7294 188.324 100.053 188.564 100.317 188.876C100.557 189.176 100.761 189.548 100.929 189.992C101.097 190.424 101.217 190.886 101.289 191.378C101.361 191.882 101.397 192.416 101.397 192.98V193.124C101.397 193.496 101.403 193.832 101.415 194.132L101.433 195.158C101.433 198.614 100.629 200.342 99.0214 200.342ZM98.9494 199.586C99.1654 199.586 99.3634 199.502 99.5434 199.334C99.7234 199.154 99.8614 198.914 99.9574 198.614C100.185 198.002 100.323 197.342 100.371 196.634C100.431 196.022 100.461 195.494 100.461 195.05C100.461 194.51 100.419 193.802 100.335 192.926C100.263 192.002 100.227 191.312 100.227 190.856V190.532C100.203 190.076 100.047 189.68 99.7594 189.344C99.4834 189.008 99.1414 188.84 98.7334 188.84C98.3254 188.84 98.0554 189.074 97.9234 189.542C97.8034 189.914 97.7434 190.394 97.7434 190.982C97.7434 191.21 97.7494 191.402 97.7614 191.558V192.044L97.7254 192.872C97.7014 193.124 97.6894 193.4 97.6894 193.7C97.6894 194.348 97.7074 194.99 97.7434 195.626C97.7914 196.526 97.9114 197.402 98.1034 198.254C98.2954 199.142 98.5774 199.586 98.9494 199.586ZM109.679 202.214C109.583 202.238 109.511 202.25 109.463 202.25C109.319 202.25 109.217 202.16 109.157 201.98C109.109 201.836 109.085 201.656 109.085 201.44L109.103 200.198C109.103 200.126 109.097 200.06 109.085 200C109.073 199.94 109.061 199.88 109.049 199.82H106.979C107.099 199.82 106.811 199.88 106.115 200C105.431 200.108 104.897 200.18 104.513 200.216L103.703 200.288L102.803 200.378C102.803 200.486 102.803 200.618 102.803 200.774C102.815 200.93 102.815 201.116 102.803 201.332V201.422C102.803 201.614 102.755 201.758 102.659 201.854C102.563 201.95 102.473 201.998 102.389 201.998C102.341 201.998 102.269 201.974 102.173 201.926C101.957 201.77 101.837 201.554 101.813 201.278L101.759 199.964C101.735 199.496 101.927 199.262 102.335 199.262C102.563 199.25 102.743 199.19 102.875 199.082C103.007 198.974 103.163 198.806 103.343 198.578C103.523 198.338 103.661 198.074 103.757 197.786C103.865 197.486 103.967 197.126 104.063 196.706C104.171 196.25 104.249 195.806 104.297 195.374C104.345 194.942 104.405 194.324 104.477 193.52C104.585 192.26 104.639 190.994 104.639 189.722L104.621 188.714C104.621 188.486 104.687 188.3 104.819 188.156C104.951 188 105.131 187.922 105.359 187.922C105.431 187.922 105.485 187.928 105.521 187.94C106.073 188.036 106.523 188.096 106.871 188.12H106.961C107.117 188.12 107.207 188.09 107.231 188.03C107.339 187.886 107.471 187.814 107.627 187.814C107.735 187.814 107.831 187.838 107.915 187.886C108.107 187.958 108.233 188.138 108.293 188.426L108.203 191.504C108.203 193.172 108.209 194.42 108.221 195.248C108.221 195.68 108.233 196.34 108.257 197.228L108.275 198.218C108.275 198.314 108.281 198.404 108.293 198.488C108.305 198.572 108.317 198.656 108.329 198.74C108.569 198.764 108.749 198.776 108.869 198.776C108.965 198.776 109.037 198.77 109.085 198.758C109.349 198.722 109.583 198.788 109.787 198.956C110.003 199.112 110.111 199.316 110.111 199.568C110.111 199.892 110.087 200.378 110.039 201.026C110.039 201.194 110.027 201.434 110.003 201.746C109.979 201.998 109.871 202.154 109.679 202.214ZM104.495 199.352C105.167 199.292 105.695 199.238 106.079 199.19C106.475 199.13 106.865 199.04 107.249 198.92C107.369 197.468 107.429 195.914 107.429 194.258C107.429 192.722 107.369 191.036 107.249 189.2C106.937 189.188 106.355 189.158 105.503 189.11L105.485 189.956C105.389 191.804 105.323 193.184 105.287 194.096C105.239 195.464 105.005 196.808 104.585 198.128C104.561 198.2 104.507 198.38 104.423 198.668C104.351 198.944 104.237 199.184 104.081 199.388L104.495 199.352ZM111.602 200.126C111.446 199.49 111.368 198.608 111.368 197.48L111.404 195.878C111.428 195.398 111.44 194.864 111.44 194.276C111.368 194.108 111.332 193.958 111.332 193.826V193.772C111.452 193.544 111.512 193.028 111.512 192.224L111.53 191.396C111.542 191.132 111.548 190.838 111.548 190.514C111.548 189.806 111.5 189.248 111.404 188.84C111.44 188.672 111.5 188.528 111.584 188.408C111.668 188.276 111.77 188.21 111.89 188.21H112.682C113.018 188.21 113.312 188.288 113.564 188.444C113.816 188.588 114.008 188.798 114.14 189.074C114.38 189.566 114.5 190.148 114.5 190.82C114.5 191.3 114.494 191.678 114.482 191.954C114.458 192.302 114.398 192.62 114.302 192.908C114.266 193.064 114.212 193.196 114.14 193.304C114.08 193.4 113.99 193.52 113.87 193.664C113.702 193.868 113.426 194.06 113.042 194.24C112.886 194.324 112.682 194.402 112.43 194.474V196.4L112.466 197.552L112.502 198.11C112.55 198.782 112.574 199.352 112.574 199.82C112.574 199.964 112.514 200.084 112.394 200.18C112.274 200.288 112.136 200.342 111.98 200.342L111.602 200.126ZM112.448 193.736C113.156 193.628 113.51 192.614 113.51 190.694C113.51 190.346 113.492 190.076 113.456 189.884C113.42 189.74 113.372 189.626 113.312 189.542C113.252 189.446 113.162 189.368 113.042 189.308C112.91 189.236 112.766 189.2 112.61 189.2C112.61 189.188 112.544 189.182 112.412 189.182V190.208C112.412 190.916 112.418 191.546 112.43 192.098C112.43 192.722 112.436 193.13 112.448 193.322V193.7V193.736ZM118.375 200.342C118.063 200.342 117.775 200.24 117.511 200.036C117.247 199.844 117.031 199.58 116.863 199.244C116.515 198.512 116.299 197.714 116.215 196.85C116.107 196.034 116.053 195.248 116.053 194.492C116.053 194.348 116.059 194.228 116.071 194.132V193.808C116.071 193.748 116.065 193.718 116.053 193.718V193.394L116.071 192.134C116.083 191.75 116.131 191.138 116.215 190.298C116.275 189.722 116.413 189.164 116.629 188.624C116.713 188.384 116.821 188.204 116.953 188.084C117.085 187.952 117.235 187.886 117.403 187.886C117.883 187.886 118.315 187.976 118.699 188.156C119.083 188.324 119.407 188.564 119.671 188.876C119.911 189.176 120.115 189.548 120.283 189.992C120.451 190.424 120.571 190.886 120.643 191.378C120.715 191.882 120.751 192.416 120.751 192.98V193.124C120.751 193.496 120.757 193.832 120.769 194.132L120.787 195.158C120.787 198.614 119.983 200.342 118.375 200.342ZM118.303 199.586C118.519 199.586 118.717 199.502 118.897 199.334C119.077 199.154 119.215 198.914 119.311 198.614C119.539 198.002 119.677 197.342 119.725 196.634C119.785 196.022 119.815 195.494 119.815 195.05C119.815 194.51 119.773 193.802 119.689 192.926C119.617 192.002 119.581 191.312 119.581 190.856V190.532C119.557 190.076 119.401 189.68 119.113 189.344C118.837 189.008 118.495 188.84 118.087 188.84C117.679 188.84 117.409 189.074 117.277 189.542C117.157 189.914 117.097 190.394 117.097 190.982C117.097 191.21 117.103 191.402 117.115 191.558V192.044L117.079 192.872C117.055 193.124 117.043 193.4 117.043 193.7C117.043 194.348 117.061 194.99 117.097 195.626C117.145 196.526 117.265 197.402 117.457 198.254C117.649 199.142 117.931 199.586 118.303 199.586ZM125.167 200.252C124.903 200.252 124.621 200.21 124.321 200.126C124.033 200.054 123.811 199.97 123.655 199.874C122.851 199.358 122.449 197.948 122.449 195.644V195.158V194.6V194.168C122.449 193.688 122.455 193.262 122.467 192.89C122.479 192.506 122.503 192.092 122.539 191.648C122.575 191.18 122.629 190.802 122.701 190.514C122.773 190.214 122.893 189.878 123.061 189.506C123.205 189.158 123.379 188.888 123.583 188.696C123.799 188.504 124.075 188.342 124.411 188.21C124.711 188.078 125.083 188.012 125.527 188.012C125.707 188.012 125.845 188.054 125.941 188.138C126.037 188.222 126.085 188.33 126.085 188.462C126.085 188.582 126.043 188.69 125.959 188.786C125.887 188.882 125.797 188.936 125.689 188.948H124.843C124.603 188.948 124.393 189.098 124.213 189.398C124.033 189.698 123.907 190.088 123.835 190.568C123.679 191.456 123.601 192.176 123.601 192.728V192.818L123.565 194.546C123.541 195.062 123.529 195.644 123.529 196.292C123.529 196.748 123.547 197.12 123.583 197.408C123.643 197.84 123.745 198.2 123.889 198.488C124.033 198.812 124.279 199.046 124.627 199.19C124.807 199.262 125.005 199.298 125.221 199.298C125.353 199.298 125.485 199.25 125.617 199.154C125.773 199.154 125.899 199.19 125.995 199.262C126.103 199.322 126.157 199.418 126.157 199.55C126.157 200.018 125.827 200.252 125.167 200.252ZM128.791 199.712L128.773 199.01C128.761 198.806 128.755 198.578 128.755 198.326L128.773 197.714C128.737 197.582 128.647 196.268 128.503 193.772C128.359 191.276 128.275 189.674 128.251 188.966C127.555 188.942 127.111 188.87 126.919 188.75C126.787 188.654 126.721 188.546 126.721 188.426C126.721 188.33 126.781 188.246 126.901 188.174C127.033 188.09 127.165 188.048 127.297 188.048C127.633 188.048 128.041 188.072 128.521 188.12C128.977 188.18 129.385 188.21 129.745 188.21H129.889H130.033C130.405 188.21 130.591 188.354 130.591 188.642C130.591 188.786 130.531 188.906 130.411 189.002C130.291 189.086 130.153 189.128 129.997 189.128C129.889 189.128 129.733 189.11 129.529 189.074L129.169 189.002L129.151 189.092L129.133 189.182C129.133 190.25 129.235 191.954 129.439 194.294C129.631 196.49 129.727 198.194 129.727 199.406C129.727 199.55 129.661 199.676 129.529 199.784C129.409 199.892 129.271 199.946 129.115 199.946L128.791 199.712ZM133.126 200.036C133.078 200.024 133 200.012 132.892 200C132.784 199.988 132.694 199.958 132.622 199.91C132.442 199.79 132.37 199.586 132.406 199.298L132.424 198.902C132.472 198.254 132.496 197.768 132.496 197.444C132.496 195.56 132.478 193.664 132.442 191.756C132.442 190.772 132.412 189.728 132.352 188.624C132.34 188.432 132.382 188.27 132.478 188.138C132.586 188.006 132.718 187.94 132.874 187.94C133.018 187.94 133.162 188.006 133.306 188.138C133.462 188.27 133.534 188.426 133.522 188.606C133.438 188.966 133.396 189.686 133.396 190.766V192.206C133.396 192.47 133.408 192.89 133.432 193.466C133.468 193.418 133.582 193.196 133.774 192.8C133.798 192.752 133.84 192.68 133.9 192.584C133.96 192.476 134.002 192.368 134.026 192.26C134.422 191.06 134.746 190.136 134.998 189.488C135.106 189.14 135.25 188.846 135.43 188.606C135.61 188.354 135.856 188.18 136.168 188.084C136.276 188.048 136.42 188.06 136.6 188.12C136.792 188.18 136.918 188.252 136.978 188.336C137.05 188.42 137.086 188.522 137.086 188.642C137.086 188.762 137.044 188.87 136.96 188.966C136.888 189.062 136.792 189.122 136.672 189.146C136.372 189.194 136.138 189.302 135.97 189.47C135.802 189.638 135.676 189.818 135.592 190.01C135.52 190.19 135.43 190.466 135.322 190.838L134.602 192.602C134.566 192.686 134.512 192.83 134.44 193.034C134.38 193.238 134.32 193.394 134.26 193.502C134.236 193.538 134.2 193.574 134.152 193.61C134.104 193.646 134.062 193.682 134.026 193.718C134.11 193.658 134.218 193.676 134.35 193.772C134.494 193.868 134.638 194 134.782 194.168C134.878 194.36 134.944 194.57 134.98 194.798C135.028 195.026 135.058 195.158 135.07 195.194C135.094 195.386 135.118 195.53 135.142 195.626C135.286 196.01 135.388 196.364 135.448 196.688C135.508 197 135.55 197.372 135.574 197.804C135.61 198.236 135.73 198.614 135.934 198.938C135.994 198.95 136.06 198.962 136.132 198.974C136.216 198.986 136.306 198.998 136.402 199.01C136.594 199.022 136.72 199.142 136.78 199.37C136.792 199.394 136.798 199.436 136.798 199.496C136.798 199.628 136.738 199.754 136.618 199.874C136.438 200.054 136.21 200.144 135.934 200.144C135.73 200.144 135.532 200.09 135.34 199.982C135.16 199.874 135.028 199.73 134.944 199.55C134.872 199.43 134.812 199.268 134.764 199.064C134.68 198.548 134.608 198.026 134.548 197.498C134.5 196.766 134.446 196.214 134.386 195.842C134.338 195.458 134.224 195.092 134.044 194.744C133.996 194.66 133.948 194.6 133.9 194.564C133.852 194.516 133.786 194.492 133.702 194.492C133.63 194.492 133.54 194.51 133.432 194.546C133.408 195.41 133.396 196.25 133.396 197.066C133.396 197.582 133.42 198.368 133.468 199.424C133.48 199.556 133.456 199.664 133.396 199.748C133.348 199.82 133.258 199.916 133.126 200.036ZM139.204 199.964C139.048 199.916 138.964 199.814 138.952 199.658V199.388C138.928 198.884 138.904 198.128 138.88 197.12C138.832 196.244 138.802 195.572 138.79 195.104C138.754 194.372 138.712 193.274 138.664 191.81C138.652 191.558 138.64 191.21 138.628 190.766C138.616 190.322 138.61 189.986 138.61 189.758C138.598 189.626 138.592 189.44 138.592 189.2C138.592 188.924 138.604 188.72 138.628 188.588C138.676 188.216 138.88 188.042 139.24 188.066C139.576 188.066 139.756 188.258 139.78 188.642V188.858L139.762 193.394V195.536V196.616C139.762 196.784 139.774 196.982 139.798 197.21C139.822 197.426 139.84 197.582 139.852 197.678C139.912 197.33 140.008 196.976 140.14 196.616C140.284 196.244 140.374 196.016 140.41 195.932C140.59 195.5 140.722 195.146 140.806 194.87C141.094 193.946 141.466 192.812 141.922 191.468C142.018 191.192 142.126 190.856 142.246 190.46C142.57 189.44 142.792 188.78 142.912 188.48C143.02 188.192 143.182 188.012 143.398 187.94C143.506 187.904 143.614 187.886 143.722 187.886C143.89 187.886 144.064 187.94 144.244 188.048V188.912C144.244 189.812 144.262 190.742 144.298 191.702C144.31 191.906 144.316 192.212 144.316 192.62V193.142C144.316 193.25 144.31 193.394 144.298 193.574C144.298 193.754 144.304 193.964 144.316 194.204L144.37 199.064C144.37 199.244 144.328 199.442 144.244 199.658C144.208 199.754 144.148 199.832 144.064 199.892C143.98 199.94 143.89 199.964 143.794 199.964C143.458 199.964 143.29 199.808 143.29 199.496C143.29 199.136 143.308 198.788 143.344 198.452C143.368 197.996 143.38 197.648 143.38 197.408C143.356 195.032 143.326 193.256 143.29 192.08C143.29 191.9 143.266 191.606 143.218 191.198L143.164 190.55C143.056 190.67 142.996 190.748 142.984 190.784L142.696 191.666C142.504 192.29 142.354 192.752 142.246 193.052L140.68 197.408L139.87 199.622C139.774 199.874 139.63 200 139.438 200C139.402 200 139.324 199.988 139.204 199.964ZM82.331 229.342C82.019 229.342 81.731 229.24 81.467 229.036C81.203 228.844 80.987 228.58 80.819 228.244C80.471 227.512 80.255 226.714 80.171 225.85C80.063 225.034 80.009 224.248 80.009 223.492C80.009 223.348 80.015 223.228 80.027 223.132V222.808C80.027 222.748 80.021 222.718 80.009 222.718V222.394L80.027 221.134C80.039 220.75 80.087 220.138 80.171 219.298C80.231 218.722 80.369 218.164 80.585 217.624C80.669 217.384 80.777 217.204 80.909 217.084C81.041 216.952 81.191 216.886 81.359 216.886C81.839 216.886 82.271 216.976 82.655 217.156C83.039 217.324 83.363 217.564 83.627 217.876C83.867 218.176 84.071 218.548 84.239 218.992C84.407 219.424 84.527 219.886 84.599 220.378C84.671 220.882 84.707 221.416 84.707 221.98V222.124C84.707 222.496 84.713 222.832 84.725 223.132L84.743 224.158C84.743 227.614 83.939 229.342 82.331 229.342ZM82.259 228.586C82.475 228.586 82.673 228.502 82.853 228.334C83.033 228.154 83.171 227.914 83.267 227.614C83.495 227.002 83.633 226.342 83.681 225.634C83.741 225.022 83.771 224.494 83.771 224.05C83.771 223.51 83.729 222.802 83.645 221.926C83.573 221.002 83.537 220.312 83.537 219.856V219.532C83.513 219.076 83.357 218.68 83.069 218.344C82.793 218.008 82.451 217.84 82.043 217.84C81.635 217.84 81.365 218.074 81.233 218.542C81.113 218.914 81.053 219.394 81.053 219.982C81.053 220.21 81.059 220.402 81.071 220.558V221.044L81.035 221.872C81.011 222.124 80.999 222.4 80.999 222.7C80.999 223.348 81.017 223.99 81.053 224.626C81.101 225.526 81.221 226.402 81.413 227.254C81.605 228.142 81.887 228.586 82.259 228.586ZM87.7193 228.712L87.7013 228.01C87.6893 227.806 87.6833 227.578 87.6833 227.326L87.7013 226.714C87.6653 226.582 87.5753 225.268 87.4313 222.772C87.2873 220.276 87.2033 218.674 87.1793 217.966C86.4833 217.942 86.0393 217.87 85.8473 217.75C85.7153 217.654 85.6493 217.546 85.6493 217.426C85.6493 217.33 85.7093 217.246 85.8293 217.174C85.9613 217.09 86.0933 217.048 86.2253 217.048C86.5613 217.048 86.9693 217.072 87.4493 217.12C87.9053 217.18 88.3133 217.21 88.6733 217.21H88.8173H88.9613C89.3333 217.21 89.5193 217.354 89.5193 217.642C89.5193 217.786 89.4593 217.906 89.3393 218.002C89.2193 218.086 89.0813 218.128 88.9253 218.128C88.8173 218.128 88.6613 218.11 88.4573 218.074L88.0973 218.002L88.0793 218.092L88.0613 218.182C88.0613 219.25 88.1633 220.954 88.3673 223.294C88.5593 225.49 88.6553 227.194 88.6553 228.406C88.6553 228.55 88.5893 228.676 88.4573 228.784C88.3373 228.892 88.1993 228.946 88.0433 228.946L87.7193 228.712ZM95.3959 229.072C95.1919 229.072 95.0479 229.042 94.9639 228.982C94.8799 228.922 94.8379 228.79 94.8379 228.586C94.8379 228.454 94.8679 228.364 94.9279 228.316C94.9879 228.268 95.1139 228.244 95.3059 228.244C95.5699 228.244 95.7019 228.142 95.7019 227.938C95.7019 226.75 95.6119 224.998 95.4319 222.682C95.2519 220.354 95.1619 218.626 95.1619 217.498C95.1619 217.39 95.1679 217.288 95.1799 217.192V216.85C95.1799 216.286 94.9759 216.004 94.5679 216.004H94.3699L94.1539 216.022C93.8059 216.022 93.6319 215.89 93.6319 215.626C93.6319 215.314 94.1179 215.158 95.0899 215.158C95.6059 215.158 95.9119 215.26 96.0079 215.464C95.9359 215.788 95.8999 216.04 95.8999 216.22C95.8999 216.544 95.9479 217.09 96.0439 217.858C96.1279 218.542 96.1699 219.094 96.1699 219.514C96.1699 220.366 96.2359 221.782 96.3679 223.762C96.4999 225.514 96.5659 226.942 96.5659 228.046V228.154C96.6139 228.154 96.6799 228.148 96.7639 228.136C96.8479 228.124 96.9319 228.118 97.0159 228.118C97.0639 228.106 97.1359 228.1 97.2319 228.1C97.7359 228.1 97.9879 228.25 97.9879 228.55C97.9879 228.898 97.3039 229.072 95.9359 229.072H95.6479H95.3959ZM101.256 229.18C100.812 229.18 100.452 229.06 100.176 228.82C100.008 228.688 99.9238 228.526 99.9238 228.334C99.9238 228.214 99.9418 228.136 99.9778 228.1C100.014 228.052 100.098 228.028 100.23 228.028C100.326 228.028 100.41 228.064 100.482 228.136C100.578 228.232 100.668 228.31 100.752 228.37C100.848 228.418 100.968 228.442 101.112 228.442C101.844 228.442 102.21 227.764 102.21 226.408C102.21 225.784 102.204 225.322 102.192 225.022C102.18 224.722 102.144 224.35 102.084 223.906C101.94 222.946 101.616 222.154 101.112 221.53C101.088 221.542 101.028 221.548 100.932 221.548C100.776 221.548 100.644 221.518 100.536 221.458C100.428 221.398 100.374 221.308 100.374 221.188C100.374 220.984 100.572 220.684 100.968 220.288C101.124 220.12 101.256 219.91 101.364 219.658C101.472 219.394 101.526 219.136 101.526 218.884C101.526 218.392 101.472 217.846 101.364 217.246C101.304 216.886 101.202 216.592 101.058 216.364C100.926 216.136 100.77 216.022 100.59 216.022C100.458 216.022 100.338 216.07 100.23 216.166C100.134 216.262 100.062 216.382 100.014 216.526C99.9778 216.67 99.9058 216.796 99.7978 216.904C99.6898 217 99.5578 217.048 99.4018 217.048C99.2698 217.048 99.1498 217.006 99.0418 216.922C98.9458 216.826 98.8858 216.706 98.8618 216.562C99.0298 216.142 99.2638 215.806 99.5638 215.554C99.8758 215.302 100.23 215.176 100.626 215.176C100.902 215.176 101.154 215.266 101.382 215.446C101.61 215.614 101.79 215.842 101.922 216.13C102.042 216.406 102.144 216.73 102.228 217.102C102.312 217.462 102.366 217.804 102.39 218.128C102.414 218.356 102.426 218.686 102.426 219.118C102.426 219.286 102.396 219.454 102.336 219.622C102.288 219.79 102.234 219.922 102.174 220.018C102.114 220.15 102.018 220.294 101.886 220.45L101.616 220.846C101.892 221.014 102.138 221.302 102.354 221.71C102.57 222.118 102.732 222.592 102.84 223.132C103.032 224.14 103.128 225.04 103.128 225.832C103.128 226.324 103.098 226.804 103.038 227.272C102.954 227.776 102.78 228.214 102.516 228.586C102.264 228.982 101.844 229.18 101.256 229.18ZM115.559 231.214C115.463 231.238 115.391 231.25 115.343 231.25C115.199 231.25 115.097 231.16 115.037 230.98C114.989 230.836 114.965 230.656 114.965 230.44L114.983 229.198C114.983 229.126 114.977 229.06 114.965 229C114.953 228.94 114.941 228.88 114.929 228.82H112.859C112.979 228.82 112.691 228.88 111.995 229C111.311 229.108 110.777 229.18 110.393 229.216L109.583 229.288L108.683 229.378C108.683 229.486 108.683 229.618 108.683 229.774C108.695 229.93 108.695 230.116 108.683 230.332V230.422C108.683 230.614 108.635 230.758 108.539 230.854C108.443 230.95 108.353 230.998 108.269 230.998C108.221 230.998 108.149 230.974 108.053 230.926C107.837 230.77 107.717 230.554 107.693 230.278L107.639 228.964C107.615 228.496 107.807 228.262 108.215 228.262C108.443 228.25 108.623 228.19 108.755 228.082C108.887 227.974 109.043 227.806 109.223 227.578C109.403 227.338 109.541 227.074 109.637 226.786C109.745 226.486 109.847 226.126 109.943 225.706C110.051 225.25 110.129 224.806 110.177 224.374C110.225 223.942 110.285 223.324 110.357 222.52C110.465 221.26 110.519 219.994 110.519 218.722L110.501 217.714C110.501 217.486 110.567 217.3 110.699 217.156C110.831 217 111.011 216.922 111.239 216.922C111.311 216.922 111.365 216.928 111.401 216.94C111.953 217.036 112.403 217.096 112.751 217.12H112.841C112.997 217.12 113.087 217.09 113.111 217.03C113.219 216.886 113.351 216.814 113.507 216.814C113.615 216.814 113.711 216.838 113.795 216.886C113.987 216.958 114.113 217.138 114.173 217.426L114.083 220.504C114.083 222.172 114.089 223.42 114.101 224.248C114.101 224.68 114.113 225.34 114.137 226.228L114.155 227.218C114.155 227.314 114.161 227.404 114.173 227.488C114.185 227.572 114.197 227.656 114.209 227.74C114.449 227.764 114.629 227.776 114.749 227.776C114.845 227.776 114.917 227.77 114.965 227.758C115.229 227.722 115.463 227.788 115.667 227.956C115.883 228.112 115.991 228.316 115.991 228.568C115.991 228.892 115.967 229.378 115.919 230.026C115.919 230.194 115.907 230.434 115.883 230.746C115.859 230.998 115.751 231.154 115.559 231.214ZM110.375 228.352C111.047 228.292 111.575 228.238 111.959 228.19C112.355 228.13 112.745 228.04 113.129 227.92C113.249 226.468 113.309 224.914 113.309 223.258C113.309 221.722 113.249 220.036 113.129 218.2C112.817 218.188 112.235 218.158 111.383 218.11L111.365 218.956C111.269 220.804 111.203 222.184 111.167 223.096C111.119 224.464 110.885 225.808 110.465 227.128C110.441 227.2 110.387 227.38 110.303 227.668C110.231 227.944 110.117 228.184 109.961 228.388L110.375 228.352ZM119.017 229.342C118.705 229.342 118.417 229.24 118.153 229.036C117.889 228.844 117.673 228.58 117.505 228.244C117.157 227.512 116.941 226.714 116.857 225.85C116.749 225.034 116.695 224.248 116.695 223.492C116.695 223.348 116.701 223.228 116.713 223.132V222.808C116.713 222.748 116.707 222.718 116.695 222.718V222.394L116.713 221.134C116.725 220.75 116.773 220.138 116.857 219.298C116.917 218.722 117.055 218.164 117.271 217.624C117.355 217.384 117.463 217.204 117.595 217.084C117.727 216.952 117.877 216.886 118.045 216.886C118.525 216.886 118.957 216.976 119.341 217.156C119.725 217.324 120.049 217.564 120.312 217.876C120.553 218.176 120.757 218.548 120.925 218.992C121.093 219.424 121.213 219.886 121.285 220.378C121.357 220.882 121.393 221.416 121.393 221.98V222.124C121.393 222.496 121.399 222.832 121.411 223.132L121.429 224.158C121.429 227.614 120.625 229.342 119.017 229.342ZM118.945 228.586C119.161 228.586 119.359 228.502 119.539 228.334C119.719 228.154 119.857 227.914 119.953 227.614C120.181 227.002 120.319 226.342 120.367 225.634C120.427 225.022 120.457 224.494 120.457 224.05C120.457 223.51 120.415 222.802 120.331 221.926C120.259 221.002 120.223 220.312 120.223 219.856V219.532C120.199 219.076 120.043 218.68 119.755 218.344C119.479 218.008 119.137 217.84 118.729 217.84C118.321 217.84 118.051 218.074 117.919 218.542C117.799 218.914 117.739 219.394 117.739 219.982C117.739 220.21 117.745 220.402 117.757 220.558V221.044L117.721 221.872C117.697 222.124 117.685 222.4 117.685 222.7C117.685 223.348 117.703 223.99 117.739 224.626C117.787 225.526 117.907 226.402 118.099 227.254C118.291 228.142 118.573 228.586 118.945 228.586ZM127.476 229.072C127.272 229.072 127.128 229.042 127.044 228.982C126.96 228.922 126.918 228.79 126.918 228.586C126.918 228.454 126.948 228.364 127.008 228.316C127.068 228.268 127.194 228.244 127.386 228.244C127.65 228.244 127.782 228.142 127.782 227.938C127.782 226.75 127.692 224.998 127.512 222.682C127.332 220.354 127.242 218.626 127.242 217.498C127.242 217.39 127.248 217.288 127.26 217.192V216.85C127.26 216.286 127.056 216.004 126.648 216.004H126.45L126.234 216.022C125.886 216.022 125.712 215.89 125.712 215.626C125.712 215.314 126.198 215.158 127.17 215.158C127.686 215.158 127.992 215.26 128.088 215.464C128.016 215.788 127.98 216.04 127.98 216.22C127.98 216.544 128.028 217.09 128.124 217.858C128.208 218.542 128.25 219.094 128.25 219.514C128.25 220.366 128.316 221.782 128.448 223.762C128.58 225.514 128.646 226.942 128.646 228.046V228.154C128.694 228.154 128.76 228.148 128.844 228.136C128.928 228.124 129.012 228.118 129.096 228.118C129.144 228.106 129.216 228.1 129.312 228.1C129.816 228.1 130.068 228.25 130.068 228.55C130.068 228.898 129.384 229.072 128.016 229.072H127.728H127.476ZM131.734 228.784C131.734 228.568 131.8 228.25 131.932 227.83L132.058 227.398C132.538 225.622 132.916 223.726 133.192 221.71C133.48 219.682 133.642 217.738 133.678 215.878C133.558 215.854 133.42 215.842 133.264 215.842C133.144 215.842 132.76 215.878 132.112 215.95L131.5 216.004C131.38 215.944 131.278 215.872 131.194 215.788C131.122 215.692 131.086 215.59 131.086 215.482C131.086 215.23 131.842 215.104 133.354 215.104H133.678C133.87 215.104 134.008 215.116 134.092 215.14C134.188 215.152 134.284 215.194 134.38 215.266C134.452 215.314 134.524 215.428 134.596 215.608C134.404 216.544 134.146 218.632 133.822 221.872C133.714 223.036 133.564 224.188 133.372 225.328C133.192 226.456 132.994 227.332 132.778 227.956V228.118C132.778 228.358 132.706 228.58 132.562 228.784C132.43 228.988 132.268 229.09 132.076 229.09L131.734 228.784ZM140.076 229.396C139.98 229.396 139.896 229.366 139.824 229.306C139.752 229.246 139.698 229.168 139.662 229.072C139.65 229.048 139.644 229.012 139.644 228.964C139.644 228.808 139.728 228.682 139.896 228.586C140.232 228.442 140.484 228.226 140.652 227.938C140.832 227.638 140.958 227.29 141.03 226.894C141.246 225.718 141.354 224.44 141.354 223.06C141.354 222.544 141.348 222.154 141.336 221.89C141.252 219.862 141.18 218.434 141.12 217.606V217.534C141.12 217.426 141.144 217.342 141.192 217.282C141.24 217.222 141.324 217.18 141.444 217.156C142.212 217.012 142.824 216.94 143.28 216.94C143.52 216.94 143.7 216.946 143.82 216.958C144.096 216.97 144.306 217.054 144.45 217.21C144.594 217.366 144.666 217.582 144.666 217.858L144.684 218.812C144.708 219.652 144.72 220.282 144.72 220.702L144.702 221.566C144.702 222.838 144.75 224.446 144.846 226.39C144.894 227.266 144.936 227.944 144.972 228.424C144.984 228.64 144.948 228.796 144.864 228.892C144.792 228.988 144.666 229.048 144.486 229.072C144.09 229.096 143.88 228.91 143.856 228.514C143.892 228.166 143.91 227.818 143.91 227.47C143.91 227.122 143.904 226.834 143.892 226.606L143.874 224.554C143.874 223.558 143.856 222.538 143.82 221.494C143.796 220.63 143.76 219.814 143.712 219.046C143.664 218.278 143.616 217.81 143.568 217.642C143.496 217.654 143.346 217.684 143.118 217.732C142.89 217.78 142.578 217.822 142.182 217.858C142.146 218.41 142.128 218.806 142.128 219.046C142.128 219.322 142.146 219.562 142.182 219.766C142.206 220.09 142.23 220.564 142.254 221.188V221.584C142.254 223.528 142.236 224.842 142.2 225.526C142.176 225.718 142.164 225.868 142.164 225.976C142.116 226.48 142.068 226.864 142.02 227.128C141.9 227.764 141.534 228.412 140.922 229.072C140.754 229.264 140.484 229.372 140.112 229.396H140.076ZM148.078 229.234C147.922 229.234 147.778 229.18 147.646 229.072C147.526 228.964 147.46 228.832 147.448 228.676V228.208V227.848C147.436 227.74 147.43 227.614 147.43 227.47C147.43 227.218 147.412 226.834 147.376 226.318L147.34 225.166C147.34 224.578 147.358 223.702 147.394 222.538C147.442 221.494 147.466 220.618 147.466 219.91C147.466 219.742 147.448 219.49 147.412 219.154C147.376 218.806 147.358 218.554 147.358 218.398C147.358 217.546 147.61 217.12 148.114 217.12C148.51 217.12 148.966 217.198 149.482 217.354C150.01 217.51 150.274 217.696 150.274 217.912C150.274 218.032 150.22 218.146 150.112 218.254C150.016 218.35 149.896 218.428 149.752 218.488C149.248 218.308 148.792 218.188 148.384 218.128C148.396 218.308 148.402 218.566 148.402 218.902C148.402 219.382 148.396 219.814 148.384 220.198C148.348 220.774 148.33 221.206 148.33 221.494L148.384 221.782L148.672 221.764C148.768 221.752 148.888 221.746 149.032 221.746C149.608 221.746 149.896 221.914 149.896 222.25C149.896 222.382 149.842 222.496 149.734 222.592C149.626 222.676 149.488 222.718 149.32 222.718C149.104 222.718 148.936 222.706 148.816 222.682H148.366C148.39 222.994 148.402 223.45 148.402 224.05C148.402 224.65 148.396 225.19 148.384 225.67C148.348 226.402 148.33 226.948 148.33 227.308C148.33 227.98 148.342 228.316 148.366 228.316L148.96 228.298C149.164 228.286 149.41 228.28 149.698 228.28C150.154 228.28 150.382 228.424 150.382 228.712C150.382 228.88 150.304 229.006 150.148 229.09C150.004 229.186 149.824 229.234 149.608 229.234H148.078ZM153.374 228.712L153.356 228.01C153.344 227.806 153.338 227.578 153.338 227.326L153.356 226.714C153.32 226.582 153.23 225.268 153.086 222.772C152.942 220.276 152.858 218.674 152.834 217.966C152.138 217.942 151.694 217.87 151.502 217.75C151.37 217.654 151.304 217.546 151.304 217.426C151.304 217.33 151.364 217.246 151.484 217.174C151.616 217.09 151.748 217.048 151.88 217.048C152.216 217.048 152.624 217.072 153.104 217.12C153.56 217.18 153.968 217.21 154.328 217.21H154.472H154.616C154.988 217.21 155.174 217.354 155.174 217.642C155.174 217.786 155.114 217.906 154.994 218.002C154.874 218.086 154.736 218.128 154.58 218.128C154.472 218.128 154.316 218.11 154.112 218.074L153.752 218.002L153.734 218.092L153.716 218.182C153.716 219.25 153.818 220.954 154.022 223.294C154.214 225.49 154.31 227.194 154.31 228.406C154.31 228.55 154.244 228.676 154.112 228.784C153.992 228.892 153.854 228.946 153.698 228.946L153.374 228.712Z" fill="black"/>
</svg>
