<svg width="139" height="16" viewBox="0 0 139 16" fill="none" xmlns="http://www.w3.org/2000/svg">
<path d="M0.00421888 15H3.08422V10.8H5.42422C8.56422 10.8 11.0842 9.12 11.0842 5.88C11.0842 2.98 9.06422 0.999999 5.72422 0.999999H0.00421888V15ZM3.08422 8.06V3.78H5.46422C7.00422 3.78 7.96422 4.52 7.96422 5.9C7.96422 7.14 7.06422 8.06 5.52422 8.06H3.08422ZM20.1636 15.24C24.4836 15.24 27.6236 11.98 27.6236 8C27.6236 3.98 24.5236 0.76 20.2036 0.76C15.8836 0.76 12.7436 4.02 12.7436 8C12.7436 12.02 15.8436 15.24 20.1636 15.24ZM20.2036 12.4C17.7236 12.4 15.9636 10.4 15.9636 8C15.9636 5.56 17.6836 3.6 20.1636 3.6C22.6436 3.6 24.4036 5.6 24.4036 8C24.4036 10.44 22.6836 12.4 20.2036 12.4ZM30.3558 15H33.3758V5.92L37.2758 11.84H37.3558L41.2958 5.86V15H44.3558V0.999999H41.0358L37.3558 6.92L33.6758 0.999999H30.3558V15ZM54.5191 15.24C58.8391 15.24 61.9791 11.98 61.9791 8C61.9791 3.98 58.8791 0.76 54.5591 0.76C50.2391 0.76 47.0991 4.02 47.0991 8C47.0991 12.02 50.1991 15.24 54.5191 15.24ZM54.5591 12.4C52.0791 12.4 50.3191 10.4 50.3191 8C50.3191 5.56 52.0391 3.6 54.5191 3.6C56.9991 3.6 58.7591 5.6 58.7591 8C58.7591 10.44 57.0391 12.4 54.5591 12.4ZM71.4513 15.24C74.0113 15.24 75.9913 14.24 77.4313 13.02V6.94H71.3513V9.6H74.4513V11.6C73.6713 12.16 72.6713 12.44 71.5513 12.44C69.0713 12.44 67.3113 10.56 67.3113 8C67.3113 5.58 69.0913 3.6 71.3313 3.6C72.9513 3.6 73.9113 4.12 74.9913 5.02L76.9313 2.68C75.4713 1.44 73.9513 0.76 71.4313 0.76C67.1913 0.76 64.0913 4.02 64.0913 8C64.0913 12.18 67.0913 15.24 71.4513 15.24ZM86.2348 15.22C89.9948 15.22 92.3748 13.14 92.3748 8.9V0.999999H89.2948V9.02C89.2948 11.24 88.1548 12.38 86.2748 12.38C84.3948 12.38 83.2548 11.2 83.2548 8.92V0.999999H80.1748V9C80.1748 13.12 82.4748 15.22 86.2348 15.22ZM98.772 15H101.852V3.84H106.112V0.999999H94.512V3.84H98.772V15ZM106.049 15H109.289V11.8H106.049V15ZM112.211 15H118.871C122.031 15 124.111 13.72 124.111 11.16C124.111 9.24 123.111 8.3 121.491 7.68C122.491 7.12 123.331 6.24 123.331 4.66C123.331 3.66 123.011 2.88 122.371 2.24C121.571 1.44 120.311 0.999999 118.711 0.999999H112.211V15ZM115.211 6.66V3.7H118.251C119.551 3.7 120.271 4.22 120.271 5.14C120.271 6.22 119.411 6.66 118.051 6.66H115.211ZM115.211 12.3V9.22H118.771C120.351 9.22 121.051 9.8 121.051 10.74C121.051 11.82 120.231 12.3 118.871 12.3H115.211ZM129.979 15H133.059V9.42L138.439 0.999999H134.939L131.539 6.62L128.199 0.999999H124.599L129.979 9.48V15Z" fill="#5DB9E0"/>
</svg>
