<svg width="30" height="30" viewBox="0 0 30 30" fill="none" xmlns="http://www.w3.org/2000/svg">
<path fill-rule="evenodd" clip-rule="evenodd" d="M30 15C30 23.2843 23.2843 30 15 30C6.71573 30 0 23.2843 0 15C0 6.71573 6.71573 0 15 0C23.2843 0 30 6.71573 30 15ZM22.1289 9.91914C22.5354 9.82257 22.9314 9.6891 23.313 9.51982C23.4902 9.44125 23.6601 9.64328 23.5523 9.80429C23.1444 10.4145 22.649 10.958 22.0803 11.4198C21.9304 11.5417 21.8445 11.7204 21.8445 11.9103V11.9668C21.8445 13.1496 21.6147 14.3889 21.1801 15.55C20.724 16.7684 20.0663 17.8699 19.2251 18.8242C18.3222 19.8485 17.2481 20.6533 16.0326 21.2164C14.7067 21.8307 13.2387 22.142 11.6693 22.142C9.87652 22.142 8.11115 21.6661 6.56357 20.7654C6.45095 20.6999 6.39007 20.567 6.42318 20.4413C6.45657 20.3136 6.5682 20.2275 6.70032 20.2275L7.12841 20.2277C8.50179 20.2277 9.82156 19.8265 10.9547 19.0657C9.58923 18.8441 8.44835 17.8674 8.02378 16.5421C7.97902 16.4023 8.10025 16.2655 8.24456 16.2929C8.45105 16.3326 8.66105 16.3524 8.86829 16.3524C8.89466 16.3524 8.92103 16.3521 8.9474 16.3516C7.63976 15.7542 6.76683 14.4275 6.78499 12.9366C6.78681 12.7901 6.94437 12.6984 7.07257 12.7695C7.33747 12.9167 7.62259 13.0267 7.91714 13.0966C7.21677 12.407 6.81341 11.4611 6.81341 10.4576C6.81341 9.80271 6.98673 9.15918 7.31462 8.59632C7.38271 8.47966 7.54665 8.46677 7.63191 8.5716C9.30663 10.6262 11.6762 11.892 14.3039 12.1363C14.3083 12.1367 14.3128 12.1369 14.317 12.1369C14.3558 12.1369 14.3929 12.1199 14.4193 12.0905C14.4342 12.0737 14.4583 12.038 14.4526 11.9867C14.4019 11.5404 14.4313 11.0816 14.5403 10.6236C14.831 9.40193 15.7573 8.41164 16.9577 8.03939C17.3451 7.91921 17.7396 7.85828 18.1305 7.85828C19.0337 7.85828 19.9037 8.18658 20.58 8.78271C20.6688 8.86076 20.7811 8.90371 20.8971 8.90371C20.9353 8.90371 20.9733 8.89902 21.0101 8.88964C21.6458 8.72875 22.2549 8.47732 22.8203 8.14187C22.9734 8.05105 23.1577 8.19783 23.1034 8.36734C22.9135 8.96136 22.5768 9.49369 22.1289 9.91914Z" fill="white"/>
</svg>
