<svg width="30" height="30" viewBox="0 0 30 30" fill="none" xmlns="http://www.w3.org/2000/svg">
<path fill-rule="evenodd" clip-rule="evenodd" d="M30 15C30 23.2843 23.2843 30 15 30C6.71573 30 0 23.2843 0 15C0 6.71573 6.71573 0 15 0C23.2843 0 30 6.71573 30 15ZM11.5297 6.41406H18.4704C21.2911 6.41406 23.5859 8.70883 23.586 11.5295V18.4703C23.586 21.291 21.291 23.5858 18.4704 23.5858H11.5297C8.70895 23.5858 6.41418 21.2908 6.41418 18.4703V11.5295C6.41418 8.70883 8.70895 6.41406 11.5297 6.41406ZM18.4704 21.8583C20.3416 21.8583 21.8584 20.3414 21.8584 18.4703V11.5296C21.8584 9.65852 20.3416 8.14152 18.4704 8.14152H11.5297C9.65858 8.14152 8.1417 9.65846 8.1417 11.5296V18.4703C8.1417 20.3414 9.65858 21.8583 11.5297 21.8583H18.4704ZM15 10.5586C12.5511 10.5586 10.5587 12.551 10.5587 14.9999C10.5587 17.4486 12.5511 19.441 15 19.441C17.4489 19.441 19.4411 17.4488 19.4411 14.9999C19.4411 12.551 17.4489 10.5586 15 10.5586ZM15 17.7135C13.5012 17.7135 12.2862 16.4987 12.2862 14.9999C12.2862 13.5011 13.5012 12.2861 15 12.2861C16.4988 12.2861 17.7137 13.501 17.7137 14.9999C17.7137 16.4987 16.4988 17.7135 15 17.7135ZM19.4495 11.6563C20.0372 11.6563 20.5137 11.1798 20.5137 10.5921C20.5137 10.0042 20.0374 9.52783 19.4495 9.52783C18.8618 9.52783 18.3853 10.0043 18.3853 10.5921C18.3853 11.1798 18.8618 11.6563 19.4495 11.6563Z" fill="white"/>
</svg>
