<svg width="30" height="30" viewBox="0 0 30 30" fill="none" xmlns="http://www.w3.org/2000/svg">
<path fill-rule="evenodd" clip-rule="evenodd" d="M15 30C23.2843 30 30 23.2843 30 15C30 6.71573 23.2843 0 15 0C6.71573 0 0 6.71573 0 15C0 23.2843 6.71573 30 15 30ZM12.4388 16.1335H15.1217C14.6508 17.4648 13.3753 18.4194 11.8822 18.4085C10.0705 18.3951 8.57221 16.9458 8.50202 15.1353C8.42667 13.1946 9.98356 11.5916 11.9077 11.5916C12.7876 11.5916 13.5905 11.927 14.1958 12.4763C14.3392 12.6064 14.5573 12.6073 14.6984 12.4745L15.6838 11.5472C15.838 11.4021 15.8384 11.1571 15.6847 11.0117C14.7249 10.1021 13.4371 9.53523 12.0171 9.50763C8.98835 9.44834 6.43536 11.9317 6.41432 14.961C6.39294 18.0131 8.86061 20.4939 11.9077 20.4939C14.8382 20.4939 17.232 18.1994 17.3923 15.3092C17.3966 15.273 17.3994 14.0483 17.3994 14.0483H12.4388C12.2355 14.0483 12.0707 14.2131 12.0707 14.4164V15.7654C12.0707 15.9687 12.2355 16.1335 12.4388 16.1335ZM21.9453 12.8526V14.1708H23.2635C23.4416 14.1708 23.5861 14.3152 23.5861 14.4934V15.6027C23.5861 15.7807 23.4416 15.9253 23.2635 15.9253H21.9453V17.2433C21.9453 17.4215 21.801 17.5659 21.6228 17.5659H20.5134C20.3351 17.5659 20.1908 17.4215 20.1908 17.2433V15.9253H18.8729C18.6946 15.9253 18.55 15.7807 18.55 15.6027V14.4934C18.55 14.3151 18.6947 14.1708 18.8729 14.1708H20.1908V12.8526C20.1908 12.6744 20.3352 12.5301 20.5134 12.5301H21.6228C21.801 12.5301 21.9453 12.6744 21.9453 12.8526Z" fill="white"/>
</svg>
