<svg width="30" height="30" viewBox="0 0 30 30" fill="none" xmlns="http://www.w3.org/2000/svg">
<path fill-rule="evenodd" clip-rule="evenodd" d="M30 15C30 23.2843 23.2843 30 15 30C6.71573 30 0 23.2843 0 15C0 6.71573 6.71573 0 15 0C23.2843 0 30 6.71573 30 15ZM9.98156 8.92578H20.0186C21.9877 8.92578 23.5841 10.5222 23.5841 12.4913V17.5088C23.5841 19.478 21.9878 21.0744 20.0186 21.0744H9.98156C8.0124 21.0744 6.41602 19.4781 6.41602 17.5088V12.4913C6.41602 10.5222 8.01234 8.92578 9.98156 8.92578ZM12.9126 17.4832L17.6071 15.2442C17.7483 15.1769 17.7509 14.9767 17.6111 14.906L12.9165 12.527C12.7912 12.4634 12.6429 12.5546 12.6429 12.6952V17.3132C12.6429 17.4518 12.7874 17.5429 12.9126 17.4832Z" fill="white"/>
</svg>
